<svg width="550" height="302" viewBox="0 0 550 302" fill="none" xmlns="http://www.w3.org/2000/svg">
<rect x="0.5" y="0.5" width="549" height="301" rx="19.5" fill="#151032" stroke="#1D1938"/>
<g opacity="0.8">
<path d="M21.6189 29V28.0455L24.572 24.9858C24.8873 24.6534 25.1473 24.3622 25.3518 24.1122C25.5592 23.8594 25.714 23.6193 25.8163 23.392C25.9186 23.1648 25.9697 22.9233 25.9697 22.6676C25.9697 22.3778 25.9015 22.1278 25.7652 21.9176C25.6288 21.7045 25.4427 21.5412 25.2069 21.4276C24.9711 21.3111 24.7055 21.2528 24.4101 21.2528C24.0976 21.2528 23.8248 21.3168 23.5919 21.4446C23.3589 21.5724 23.1799 21.7528 23.0549 21.9858C22.9299 22.2187 22.8674 22.4915 22.8674 22.804H21.6103C21.6103 22.2727 21.7325 21.8082 21.9768 21.4105C22.2211 21.0128 22.5564 20.7045 22.9825 20.4858C23.4086 20.2642 23.893 20.1534 24.4356 20.1534C24.9839 20.1534 25.4669 20.2628 25.8845 20.4815C26.3049 20.6974 26.6331 20.9929 26.8689 21.3679C27.1047 21.7401 27.2226 22.1605 27.2226 22.6293C27.2226 22.9531 27.1615 23.2699 27.0393 23.5795C26.92 23.8892 26.7112 24.2344 26.4129 24.6151C26.1146 24.9929 25.6998 25.4517 25.1686 25.9915L23.4342 27.8068V27.8707H27.3632V29H21.6189ZM28.1275 27.2955V26.2301L31.8988 20.2727H32.7383V21.8409H32.2056L29.5082 26.1108V26.179H34.6772V27.2955H28.1275ZM32.2653 29V26.9716L32.2738 26.4858V20.2727H33.5224V29H32.2653ZM36.2107 29.081C35.9778 29.081 35.7775 28.9986 35.6099 28.8338C35.4422 28.6662 35.3584 28.4645 35.3584 28.2287C35.3584 27.9957 35.4422 27.7969 35.6099 27.6321C35.7775 27.4645 35.9778 27.3807 36.2107 27.3807C36.4437 27.3807 36.6439 27.4645 36.8116 27.6321C36.9792 27.7969 37.063 27.9957 37.063 28.2287C37.063 28.3849 37.0232 28.5284 36.9437 28.6591C36.867 28.7869 36.7647 28.8892 36.6368 28.9659C36.509 29.0426 36.367 29.081 36.2107 29.081ZM41.0127 29.1193C40.4786 29.1193 39.9985 29.017 39.5723 28.8125C39.149 28.6051 38.811 28.321 38.5581 27.9602C38.3053 27.5994 38.1703 27.1875 38.1533 26.7244H39.4317C39.463 27.0994 39.6291 27.4077 39.9303 27.6491C40.2314 27.8906 40.5922 28.0114 41.0127 28.0114C41.3479 28.0114 41.6448 27.9347 41.9033 27.7812C42.1647 27.625 42.3692 27.4105 42.5169 27.1378C42.6675 26.8651 42.7428 26.554 42.7428 26.2045C42.7428 25.8494 42.6661 25.5327 42.5127 25.2543C42.3593 24.9759 42.1476 24.7571 41.8777 24.598C41.6107 24.4389 41.3039 24.358 40.9573 24.3551C40.6931 24.3551 40.4274 24.4006 40.1604 24.4915C39.8934 24.5824 39.6774 24.7017 39.5127 24.8494L38.3067 24.6705L38.7968 20.2727H43.5951V21.402H39.8919L39.6149 23.8438H39.6661C39.8365 23.679 40.0624 23.5412 40.3436 23.4304C40.6277 23.3196 40.9317 23.2642 41.2556 23.2642C41.7868 23.2642 42.2598 23.3906 42.6746 23.6435C43.0922 23.8963 43.4203 24.2415 43.659 24.679C43.9005 25.1136 44.0198 25.6136 44.0169 26.179C44.0198 26.7443 43.8919 27.2486 43.6334 27.6918C43.3777 28.1349 43.0226 28.4844 42.5681 28.7401C42.1164 28.9929 41.5979 29.1193 41.0127 29.1193ZM48.1317 29.1449C47.4585 29.142 46.8832 28.9645 46.4059 28.6122C45.9286 28.2599 45.5636 27.7472 45.3107 27.0739C45.0579 26.4006 44.9315 25.5895 44.9315 24.6406C44.9315 23.6946 45.0579 22.8864 45.3107 22.2159C45.5664 21.5455 45.9329 21.0341 46.4102 20.6818C46.8903 20.3295 47.4641 20.1534 48.1317 20.1534C48.7994 20.1534 49.3718 20.331 49.8491 20.6861C50.3263 21.0384 50.6914 21.5497 50.9442 22.2202C51.1999 22.8878 51.3278 23.6946 51.3278 24.6406C51.3278 25.5923 51.2013 26.4048 50.9485 27.0781C50.6957 27.7486 50.3306 28.2614 49.8533 28.6165C49.3761 28.9688 48.8022 29.1449 48.1317 29.1449ZM48.1317 28.0071C48.7227 28.0071 49.1843 27.7188 49.5167 27.142C49.8519 26.5653 50.0195 25.7315 50.0195 24.6406C50.0195 23.9162 49.9428 23.304 49.7894 22.804C49.6388 22.3011 49.4215 21.9205 49.1374 21.6619C48.8562 21.4006 48.521 21.2699 48.1317 21.2699C47.5437 21.2699 47.082 21.5597 46.7468 22.1392C46.4116 22.7187 46.2425 23.5526 46.2397 24.6406C46.2397 25.3679 46.315 25.983 46.4656 26.4858C46.619 26.9858 46.8363 27.3651 47.1175 27.6236C47.3988 27.8793 47.7369 28.0071 48.1317 28.0071Z" fill="#657180"/>
<g opacity="0.2">
<rect x="67.25" y="24.75" width="462.5" height="0.5" stroke="#657180" stroke-width="0.5" stroke-dasharray="6 4"/>
</g>
</g>
<g opacity="0.8">
<path d="M21.49 65V64.0455L24.4431 60.9858C24.7584 60.6534 25.0184 60.3622 25.2229 60.1122C25.4303 59.8594 25.5851 59.6193 25.6874 59.392C25.7897 59.1648 25.8408 58.9233 25.8408 58.6676C25.8408 58.3778 25.7726 58.1278 25.6363 57.9176C25.4999 57.7045 25.3138 57.5412 25.078 57.4276C24.8422 57.3111 24.5766 57.2528 24.2812 57.2528C23.9687 57.2528 23.6959 57.3168 23.463 57.4446C23.23 57.5724 23.051 57.7528 22.926 57.9858C22.801 58.2187 22.7385 58.4915 22.7385 58.804H21.4814C21.4814 58.2727 21.6036 57.8082 21.8479 57.4105C22.0922 57.0128 22.4275 56.7045 22.8536 56.4858C23.2797 56.2642 23.7641 56.1534 24.3067 56.1534C24.855 56.1534 25.338 56.2628 25.7556 56.4815C26.176 56.6974 26.5042 56.9929 26.74 57.3679C26.9758 57.7401 27.0937 58.1605 27.0937 58.6293C27.0937 58.9531 27.0326 59.2699 26.9104 59.5795C26.7911 59.8892 26.5823 60.2344 26.284 60.6151C25.9857 60.9929 25.5709 61.4517 25.0397 61.9915L23.3053 63.8068V63.8707H27.2343V65H21.49ZM27.9986 63.2955V62.2301L31.7699 56.2727H32.6094V57.8409H32.0767L29.3793 62.1108V62.179H34.5483V63.2955H27.9986ZM32.1364 65V62.9716L32.1449 62.4858V56.2727H33.3935V65H32.1364ZM36.0818 65.081C35.8488 65.081 35.6486 64.9986 35.481 64.8338C35.3133 64.6662 35.2295 64.4645 35.2295 64.2287C35.2295 63.9957 35.3133 63.7969 35.481 63.6321C35.6486 63.4645 35.8488 63.3807 36.0818 63.3807C36.3148 63.3807 36.515 63.4645 36.6827 63.6321C36.8503 63.7969 36.9341 63.9957 36.9341 64.2287C36.9341 64.3849 36.8943 64.5284 36.8148 64.6591C36.7381 64.7869 36.6358 64.8892 36.5079 64.9659C36.3801 65.0426 36.2381 65.081 36.0818 65.081ZM40.8657 65.1449C40.1924 65.142 39.6171 64.9645 39.1398 64.6122C38.6625 64.2599 38.2975 63.7472 38.0446 63.0739C37.7918 62.4006 37.6654 61.5895 37.6654 60.6406C37.6654 59.6946 37.7918 58.8864 38.0446 58.2159C38.3003 57.5455 38.6668 57.0341 39.1441 56.6818C39.6242 56.3295 40.198 56.1534 40.8657 56.1534C41.5333 56.1534 42.1057 56.331 42.583 56.6861C43.0603 57.0384 43.4253 57.5497 43.6782 58.2202C43.9338 58.8878 44.0617 59.6946 44.0617 60.6406C44.0617 61.5923 43.9353 62.4048 43.6824 63.0781C43.4296 63.7486 43.0645 64.2614 42.5872 64.6165C42.11 64.9688 41.5361 65.1449 40.8657 65.1449ZM40.8657 64.0071C41.4566 64.0071 41.9182 63.7188 42.2506 63.142C42.5858 62.5653 42.7534 61.7315 42.7534 60.6406C42.7534 59.9162 42.6767 59.304 42.5233 58.804C42.3728 58.3011 42.1554 57.9205 41.8713 57.6619C41.5901 57.4006 41.2549 57.2699 40.8657 57.2699C40.2776 57.2699 39.8159 57.5597 39.4807 58.1392C39.1455 58.7187 38.9764 59.5526 38.9736 60.6406C38.9736 61.3679 39.0489 61.983 39.1995 62.4858C39.3529 62.9858 39.5702 63.3651 39.8514 63.6236C40.1327 63.8793 40.4708 64.0071 40.8657 64.0071ZM48.1317 65.1449C47.4585 65.142 46.8832 64.9645 46.4059 64.6122C45.9286 64.2599 45.5636 63.7472 45.3107 63.0739C45.0579 62.4006 44.9315 61.5895 44.9315 60.6406C44.9315 59.6946 45.0579 58.8864 45.3107 58.2159C45.5664 57.5455 45.9329 57.0341 46.4102 56.6818C46.8903 56.3295 47.4641 56.1534 48.1317 56.1534C48.7994 56.1534 49.3718 56.331 49.8491 56.6861C50.3263 57.0384 50.6914 57.5497 50.9442 58.2202C51.1999 58.8878 51.3278 59.6946 51.3278 60.6406C51.3278 61.5923 51.2013 62.4048 50.9485 63.0781C50.6957 63.7486 50.3306 64.2614 49.8533 64.6165C49.3761 64.9688 48.8022 65.1449 48.1317 65.1449ZM48.1317 64.0071C48.7227 64.0071 49.1843 63.7188 49.5167 63.142C49.8519 62.5653 50.0195 61.7315 50.0195 60.6406C50.0195 59.9162 49.9428 59.304 49.7894 58.804C49.6388 58.3011 49.4215 57.9205 49.1374 57.6619C48.8562 57.4006 48.521 57.2699 48.1317 57.2699C47.5437 57.2699 47.082 57.5597 46.7468 58.1392C46.4116 58.7187 46.2425 59.5526 46.2397 60.6406C46.2397 61.3679 46.315 61.983 46.4656 62.4858C46.619 62.9858 46.8363 63.3651 47.1175 63.6236C47.3988 63.8793 47.7369 64.0071 48.1317 64.0071Z" fill="#657180"/>
<g opacity="0.2">
<rect x="67.25" y="60.75" width="462.5" height="0.5" stroke="#657180" stroke-width="0.5" stroke-dasharray="6 4"/>
</g>
</g>
<g opacity="0.8">
<path d="M21.4782 101V100.045L24.4314 96.9858C24.7467 96.6534 25.0066 96.3622 25.2112 96.1122C25.4186 95.8594 25.5734 95.6193 25.6757 95.392C25.778 95.1648 25.8291 94.9233 25.8291 94.6676C25.8291 94.3778 25.7609 94.1278 25.6245 93.9176C25.4882 93.7045 25.3021 93.5412 25.0663 93.4276C24.8305 93.3111 24.5649 93.2528 24.2694 93.2528C23.9569 93.2528 23.6842 93.3168 23.4513 93.4446C23.2183 93.5724 23.0393 93.7528 22.9143 93.9858C22.7893 94.2187 22.7268 94.4915 22.7268 94.804H21.4697C21.4697 94.2727 21.5919 93.8082 21.8362 93.4105C22.0805 93.0128 22.4157 92.7045 22.8419 92.4858C23.268 92.2642 23.7524 92.1534 24.295 92.1534C24.8433 92.1534 25.3263 92.2628 25.7439 92.4815C26.1643 92.6974 26.4924 92.9929 26.7282 93.3679C26.964 93.7401 27.0819 94.1605 27.0819 94.6293C27.0819 94.9531 27.0209 95.2699 26.8987 95.5795C26.7794 95.8892 26.5706 96.2344 26.2723 96.6151C25.974 96.9929 25.5592 97.4517 25.028 97.9915L23.2936 99.8068V99.8707H27.2226V101H21.4782ZM31.396 101.119C30.8107 101.119 30.288 101.018 29.8278 100.817C29.3704 100.615 29.0082 100.335 28.7411 99.9773C28.4769 99.6165 28.3349 99.1989 28.315 98.7244H29.6531C29.6701 98.983 29.7568 99.2074 29.913 99.3977C30.0721 99.5852 30.2795 99.7301 30.5352 99.8324C30.7909 99.9347 31.0749 99.9858 31.3874 99.9858C31.7312 99.9858 32.0352 99.9261 32.2994 99.8068C32.5664 99.6875 32.7752 99.5213 32.9258 99.3082C33.0764 99.0923 33.1516 98.8438 33.1516 98.5625C33.1516 98.2699 33.0764 98.0128 32.9258 97.7912C32.7781 97.5668 32.5607 97.3906 32.2738 97.2628C31.9897 97.1349 31.646 97.071 31.2426 97.071H30.5053V95.9972H31.2426C31.5664 95.9972 31.8505 95.9389 32.0948 95.8224C32.342 95.706 32.5352 95.544 32.6744 95.3366C32.8136 95.1264 32.8832 94.8807 32.8832 94.5994C32.8832 94.3295 32.8221 94.0952 32.6999 93.8963C32.5806 93.6946 32.4102 93.5369 32.1886 93.4233C31.9698 93.3097 31.7113 93.2528 31.413 93.2528C31.1289 93.2528 30.8633 93.3054 30.6161 93.4105C30.3718 93.5128 30.173 93.6605 30.0195 93.8537C29.8661 94.044 29.7838 94.2727 29.7724 94.5398H28.4982C28.5124 94.0682 28.6516 93.6534 28.9159 93.2955C29.1829 92.9375 29.5352 92.6577 29.9727 92.456C30.4102 92.2543 30.896 92.1534 31.4301 92.1534C31.9897 92.1534 32.4727 92.2628 32.8789 92.4815C33.288 92.6974 33.6034 92.9858 33.8249 93.3466C34.0494 93.7074 34.1602 94.1023 34.1573 94.5312C34.1602 95.0199 34.0238 95.4347 33.7482 95.7756C33.4755 96.1165 33.1119 96.3452 32.6573 96.4616V96.5298C33.2369 96.6179 33.6857 96.848 34.0039 97.2202C34.3249 97.5923 34.484 98.054 34.4812 98.6051C34.484 99.0852 34.3505 99.5156 34.0806 99.8963C33.8136 100.277 33.4485 100.577 32.9855 100.795C32.5224 101.011 31.9926 101.119 31.396 101.119ZM36.2107 101.081C35.9778 101.081 35.7775 100.999 35.6099 100.834C35.4422 100.666 35.3584 100.464 35.3584 100.229C35.3584 99.9957 35.4422 99.7969 35.6099 99.6321C35.7775 99.4645 35.9778 99.3807 36.2107 99.3807C36.4437 99.3807 36.6439 99.4645 36.8116 99.6321C36.9792 99.7969 37.063 99.9957 37.063 100.229C37.063 100.385 37.0232 100.528 36.9437 100.659C36.867 100.787 36.7647 100.889 36.6368 100.966C36.509 101.043 36.367 101.081 36.2107 101.081ZM41.0127 101.119C40.4786 101.119 39.9985 101.017 39.5723 100.812C39.149 100.605 38.811 100.321 38.5581 99.9602C38.3053 99.5994 38.1703 99.1875 38.1533 98.7244H39.4317C39.463 99.0994 39.6291 99.4077 39.9303 99.6491C40.2314 99.8906 40.5922 100.011 41.0127 100.011C41.3479 100.011 41.6448 99.9347 41.9033 99.7812C42.1647 99.625 42.3692 99.4105 42.5169 99.1378C42.6675 98.8651 42.7428 98.554 42.7428 98.2045C42.7428 97.8494 42.6661 97.5327 42.5127 97.2543C42.3593 96.9759 42.1476 96.7571 41.8777 96.598C41.6107 96.4389 41.3039 96.358 40.9573 96.3551C40.6931 96.3551 40.4274 96.4006 40.1604 96.4915C39.8934 96.5824 39.6774 96.7017 39.5127 96.8494L38.3067 96.6705L38.7968 92.2727H43.5951V93.402H39.8919L39.6149 95.8438H39.6661C39.8365 95.679 40.0624 95.5412 40.3436 95.4304C40.6277 95.3196 40.9317 95.2642 41.2556 95.2642C41.7868 95.2642 42.2598 95.3906 42.6746 95.6435C43.0922 95.8963 43.4203 96.2415 43.659 96.679C43.9005 97.1136 44.0198 97.6136 44.0169 98.179C44.0198 98.7443 43.8919 99.2486 43.6334 99.6918C43.3777 100.135 43.0226 100.484 42.5681 100.74C42.1164 100.993 41.5979 101.119 41.0127 101.119ZM48.1317 101.145C47.4585 101.142 46.8832 100.964 46.4059 100.612C45.9286 100.26 45.5636 99.7472 45.3107 99.0739C45.0579 98.4006 44.9315 97.5895 44.9315 96.6406C44.9315 95.6946 45.0579 94.8864 45.3107 94.2159C45.5664 93.5455 45.9329 93.0341 46.4102 92.6818C46.8903 92.3295 47.4641 92.1534 48.1317 92.1534C48.7994 92.1534 49.3718 92.331 49.8491 92.6861C50.3263 93.0384 50.6914 93.5497 50.9442 94.2202C51.1999 94.8878 51.3278 95.6946 51.3278 96.6406C51.3278 97.5923 51.2013 98.4048 50.9485 99.0781C50.6957 99.7486 50.3306 100.261 49.8533 100.616C49.3761 100.969 48.8022 101.145 48.1317 101.145ZM48.1317 100.007C48.7227 100.007 49.1843 99.7188 49.5167 99.142C49.8519 98.5653 50.0195 97.7315 50.0195 96.6406C50.0195 95.9162 49.9428 95.304 49.7894 94.804C49.6388 94.3011 49.4215 93.9205 49.1374 93.6619C48.8562 93.4006 48.521 93.2699 48.1317 93.2699C47.5437 93.2699 47.082 93.5597 46.7468 94.1392C46.4116 94.7187 46.2425 95.5526 46.2397 96.6406C46.2397 97.3679 46.315 97.983 46.4656 98.4858C46.619 98.9858 46.8363 99.3651 47.1175 99.6236C47.3988 99.8793 47.7369 100.007 48.1317 100.007Z" fill="#657180"/>
<g opacity="0.2">
<rect x="67.25" y="96.75" width="462.5" height="0.5" stroke="#657180" stroke-width="0.5" stroke-dasharray="6 4"/>
</g>
</g>
<g opacity="0.8">
<path d="M21.3493 137V136.045L24.3025 132.986C24.6178 132.653 24.8777 132.362 25.0823 132.112C25.2897 131.859 25.4445 131.619 25.5468 131.392C25.649 131.165 25.7002 130.923 25.7002 130.668C25.7002 130.378 25.632 130.128 25.4956 129.918C25.3593 129.705 25.1732 129.541 24.9374 129.428C24.7016 129.311 24.436 129.253 24.1405 129.253C23.828 129.253 23.5553 129.317 23.3223 129.445C23.0894 129.572 22.9104 129.753 22.7854 129.986C22.6604 130.219 22.5979 130.491 22.5979 130.804H21.3408C21.3408 130.273 21.463 129.808 21.7073 129.411C21.9516 129.013 22.2868 128.705 22.713 128.486C23.1391 128.264 23.6235 128.153 24.1661 128.153C24.7144 128.153 25.1973 128.263 25.615 128.482C26.0354 128.697 26.3635 128.993 26.5993 129.368C26.8351 129.74 26.953 130.161 26.953 130.629C26.953 130.953 26.8919 131.27 26.7698 131.58C26.6505 131.889 26.4417 132.234 26.1434 132.615C25.8451 132.993 25.4303 133.452 24.899 133.991L23.1647 135.807V135.871H27.0937V137H21.3493ZM31.2671 137.119C30.6818 137.119 30.1591 137.018 29.6989 136.817C29.2415 136.615 28.8793 136.335 28.6122 135.977C28.348 135.616 28.206 135.199 28.1861 134.724H29.5242C29.5412 134.983 29.6279 135.207 29.7841 135.398C29.9432 135.585 30.1506 135.73 30.4063 135.832C30.6619 135.935 30.946 135.986 31.2585 135.986C31.6023 135.986 31.9063 135.926 32.1705 135.807C32.4375 135.687 32.6463 135.521 32.7969 135.308C32.9475 135.092 33.0227 134.844 33.0227 134.562C33.0227 134.27 32.9475 134.013 32.7969 133.791C32.6492 133.567 32.4318 133.391 32.1449 133.263C31.8608 133.135 31.5171 133.071 31.1137 133.071H30.3764V131.997H31.1137C31.4375 131.997 31.7216 131.939 31.9659 131.822C32.2131 131.706 32.4063 131.544 32.5455 131.337C32.6847 131.126 32.7543 130.881 32.7543 130.599C32.7543 130.33 32.6932 130.095 32.571 129.896C32.4517 129.695 32.2813 129.537 32.0597 129.423C31.8409 129.31 31.5824 129.253 31.2841 129.253C31 129.253 30.7344 129.305 30.4872 129.411C30.2429 129.513 30.044 129.661 29.8906 129.854C29.7372 130.044 29.6548 130.273 29.6435 130.54H28.3693C28.3835 130.068 28.5227 129.653 28.7869 129.295C29.054 128.937 29.4063 128.658 29.8438 128.456C30.2813 128.254 30.7671 128.153 31.3012 128.153C31.8608 128.153 32.3438 128.263 32.75 128.482C33.1591 128.697 33.4744 128.986 33.696 129.347C33.9205 129.707 34.0313 130.102 34.0284 130.531C34.0313 131.02 33.8949 131.435 33.6193 131.776C33.3466 132.116 32.983 132.345 32.5284 132.462V132.53C33.108 132.618 33.5568 132.848 33.875 133.22C34.196 133.592 34.3551 134.054 34.3523 134.605C34.3551 135.085 34.2216 135.516 33.9517 135.896C33.6847 136.277 33.3196 136.577 32.8565 136.795C32.3935 137.011 31.8637 137.119 31.2671 137.119ZM36.0818 137.081C35.8488 137.081 35.6486 136.999 35.481 136.834C35.3133 136.666 35.2295 136.464 35.2295 136.229C35.2295 135.996 35.3133 135.797 35.481 135.632C35.6486 135.464 35.8488 135.381 36.0818 135.381C36.3148 135.381 36.515 135.464 36.6827 135.632C36.8503 135.797 36.9341 135.996 36.9341 136.229C36.9341 136.385 36.8943 136.528 36.8148 136.659C36.7381 136.787 36.6358 136.889 36.5079 136.966C36.3801 137.043 36.2381 137.081 36.0818 137.081ZM40.8657 137.145C40.1924 137.142 39.6171 136.964 39.1398 136.612C38.6625 136.26 38.2975 135.747 38.0446 135.074C37.7918 134.401 37.6654 133.589 37.6654 132.641C37.6654 131.695 37.7918 130.886 38.0446 130.216C38.3003 129.545 38.6668 129.034 39.1441 128.682C39.6242 128.33 40.198 128.153 40.8657 128.153C41.5333 128.153 42.1057 128.331 42.583 128.686C43.0603 129.038 43.4253 129.55 43.6782 130.22C43.9338 130.888 44.0617 131.695 44.0617 132.641C44.0617 133.592 43.9353 134.405 43.6824 135.078C43.4296 135.749 43.0645 136.261 42.5872 136.616C42.11 136.969 41.5361 137.145 40.8657 137.145ZM40.8657 136.007C41.4566 136.007 41.9182 135.719 42.2506 135.142C42.5858 134.565 42.7534 133.732 42.7534 132.641C42.7534 131.916 42.6767 131.304 42.5233 130.804C42.3728 130.301 42.1554 129.92 41.8713 129.662C41.5901 129.401 41.2549 129.27 40.8657 129.27C40.2776 129.27 39.8159 129.56 39.4807 130.139C39.1455 130.719 38.9764 131.553 38.9736 132.641C38.9736 133.368 39.0489 133.983 39.1995 134.486C39.3529 134.986 39.5702 135.365 39.8514 135.624C40.1327 135.879 40.4708 136.007 40.8657 136.007ZM48.1317 137.145C47.4585 137.142 46.8832 136.964 46.4059 136.612C45.9286 136.26 45.5636 135.747 45.3107 135.074C45.0579 134.401 44.9315 133.589 44.9315 132.641C44.9315 131.695 45.0579 130.886 45.3107 130.216C45.5664 129.545 45.9329 129.034 46.4102 128.682C46.8903 128.33 47.4641 128.153 48.1317 128.153C48.7994 128.153 49.3718 128.331 49.8491 128.686C50.3263 129.038 50.6914 129.55 50.9442 130.22C51.1999 130.888 51.3278 131.695 51.3278 132.641C51.3278 133.592 51.2013 134.405 50.9485 135.078C50.6957 135.749 50.3306 136.261 49.8533 136.616C49.3761 136.969 48.8022 137.145 48.1317 137.145ZM48.1317 136.007C48.7227 136.007 49.1843 135.719 49.5167 135.142C49.8519 134.565 50.0195 133.732 50.0195 132.641C50.0195 131.916 49.9428 131.304 49.7894 130.804C49.6388 130.301 49.4215 129.92 49.1374 129.662C48.8562 129.401 48.521 129.27 48.1317 129.27C47.5437 129.27 47.082 129.56 46.7468 130.139C46.4116 130.719 46.2425 131.553 46.2397 132.641C46.2397 133.368 46.315 133.983 46.4656 134.486C46.619 134.986 46.8363 135.365 47.1175 135.624C47.3988 135.879 47.7369 136.007 48.1317 136.007Z" fill="#657180"/>
<g opacity="0.2">
<rect x="67.25" y="132.75" width="462.5" height="0.5" stroke="#657180" stroke-width="0.5" stroke-dasharray="6 4"/>
</g>
</g>
<g opacity="0.8">
<path d="M21.5954 173V172.045L24.5486 168.986C24.8639 168.653 25.1238 168.362 25.3284 168.112C25.5358 167.859 25.6906 167.619 25.7929 167.392C25.8951 167.165 25.9463 166.923 25.9463 166.668C25.9463 166.378 25.8781 166.128 25.7417 165.918C25.6054 165.705 25.4193 165.541 25.1835 165.428C24.9477 165.311 24.6821 165.253 24.3866 165.253C24.0741 165.253 23.8014 165.317 23.5684 165.445C23.3355 165.572 23.1565 165.753 23.0315 165.986C22.9065 166.219 22.844 166.491 22.844 166.804H21.5869C21.5869 166.273 21.7091 165.808 21.9534 165.411C22.1977 165.013 22.5329 164.705 22.9591 164.486C23.3852 164.264 23.8696 164.153 24.4122 164.153C24.9605 164.153 25.4434 164.263 25.8611 164.482C26.2815 164.697 26.6096 164.993 26.8454 165.368C27.0812 165.74 27.1991 166.161 27.1991 166.629C27.1991 166.953 27.138 167.27 27.0159 167.58C26.8966 167.889 26.6878 168.234 26.3895 168.615C26.0912 168.993 25.6764 169.452 25.1451 169.991L23.4108 171.807V171.871H27.3397V173H21.5954ZM28.4748 173V172.045L31.4279 168.986C31.7433 168.653 32.0032 168.362 32.2078 168.112C32.4151 167.859 32.57 167.619 32.6722 167.392C32.7745 167.165 32.8257 166.923 32.8257 166.668C32.8257 166.378 32.7575 166.128 32.6211 165.918C32.4847 165.705 32.2987 165.541 32.0629 165.428C31.8271 165.311 31.5614 165.253 31.266 165.253C30.9535 165.253 30.6808 165.317 30.4478 165.445C30.2149 165.572 30.0359 165.753 29.9109 165.986C29.7859 166.219 29.7234 166.491 29.7234 166.804H28.4663C28.4663 166.273 28.5884 165.808 28.8328 165.411C29.0771 165.013 29.4123 164.705 29.8384 164.486C30.2646 164.264 30.7489 164.153 31.2916 164.153C31.8399 164.153 32.3228 164.263 32.7404 164.482C33.1609 164.697 33.489 164.993 33.7248 165.368C33.9606 165.74 34.0785 166.161 34.0785 166.629C34.0785 166.953 34.0174 167.27 33.8953 167.58C33.7759 167.889 33.5671 168.234 33.2688 168.615C32.9705 168.993 32.5558 169.452 32.0245 169.991L30.2901 171.807V171.871H34.2191V173H28.4748ZM36.2107 173.081C35.9778 173.081 35.7775 172.999 35.6099 172.834C35.4422 172.666 35.3584 172.464 35.3584 172.229C35.3584 171.996 35.4422 171.797 35.6099 171.632C35.7775 171.464 35.9778 171.381 36.2107 171.381C36.4437 171.381 36.6439 171.464 36.8116 171.632C36.9792 171.797 37.063 171.996 37.063 172.229C37.063 172.385 37.0232 172.528 36.9437 172.659C36.867 172.787 36.7647 172.889 36.6368 172.966C36.509 173.043 36.367 173.081 36.2107 173.081ZM41.0127 173.119C40.4786 173.119 39.9985 173.017 39.5723 172.812C39.149 172.605 38.811 172.321 38.5581 171.96C38.3053 171.599 38.1703 171.188 38.1533 170.724H39.4317C39.463 171.099 39.6291 171.408 39.9303 171.649C40.2314 171.891 40.5922 172.011 41.0127 172.011C41.3479 172.011 41.6448 171.935 41.9033 171.781C42.1647 171.625 42.3692 171.411 42.5169 171.138C42.6675 170.865 42.7428 170.554 42.7428 170.205C42.7428 169.849 42.6661 169.533 42.5127 169.254C42.3593 168.976 42.1476 168.757 41.8777 168.598C41.6107 168.439 41.3039 168.358 40.9573 168.355C40.6931 168.355 40.4274 168.401 40.1604 168.491C39.8934 168.582 39.6774 168.702 39.5127 168.849L38.3067 168.67L38.7968 164.273H43.5951V165.402H39.8919L39.6149 167.844H39.6661C39.8365 167.679 40.0624 167.541 40.3436 167.43C40.6277 167.32 40.9317 167.264 41.2556 167.264C41.7868 167.264 42.2598 167.391 42.6746 167.643C43.0922 167.896 43.4203 168.241 43.659 168.679C43.9005 169.114 44.0198 169.614 44.0169 170.179C44.0198 170.744 43.8919 171.249 43.6334 171.692C43.3777 172.135 43.0226 172.484 42.5681 172.74C42.1164 172.993 41.5979 173.119 41.0127 173.119ZM48.1317 173.145C47.4585 173.142 46.8832 172.964 46.4059 172.612C45.9286 172.26 45.5636 171.747 45.3107 171.074C45.0579 170.401 44.9315 169.589 44.9315 168.641C44.9315 167.695 45.0579 166.886 45.3107 166.216C45.5664 165.545 45.9329 165.034 46.4102 164.682C46.8903 164.33 47.4641 164.153 48.1317 164.153C48.7994 164.153 49.3718 164.331 49.8491 164.686C50.3263 165.038 50.6914 165.55 50.9442 166.22C51.1999 166.888 51.3278 167.695 51.3278 168.641C51.3278 169.592 51.2013 170.405 50.9485 171.078C50.6957 171.749 50.3306 172.261 49.8533 172.616C49.3761 172.969 48.8022 173.145 48.1317 173.145ZM48.1317 172.007C48.7227 172.007 49.1843 171.719 49.5167 171.142C49.8519 170.565 50.0195 169.732 50.0195 168.641C50.0195 167.916 49.9428 167.304 49.7894 166.804C49.6388 166.301 49.4215 165.92 49.1374 165.662C48.8562 165.401 48.521 165.27 48.1317 165.27C47.5437 165.27 47.082 165.56 46.7468 166.139C46.4116 166.719 46.2425 167.553 46.2397 168.641C46.2397 169.368 46.315 169.983 46.4656 170.486C46.619 170.986 46.8363 171.365 47.1175 171.624C47.3988 171.879 47.7369 172.007 48.1317 172.007Z" fill="#657180"/>
<g opacity="0.2">
<rect x="67.25" y="168.75" width="462.5" height="0.5" stroke="#657180" stroke-width="0.5" stroke-dasharray="6 4"/>
</g>
</g>
<g opacity="0.8">
<path d="M21.4665 209V208.045L24.4196 204.986C24.735 204.653 24.9949 204.362 25.1995 204.112C25.4069 203.859 25.5617 203.619 25.664 203.392C25.7662 203.165 25.8174 202.923 25.8174 202.668C25.8174 202.378 25.7492 202.128 25.6128 201.918C25.4765 201.705 25.2904 201.541 25.0546 201.428C24.8188 201.311 24.5532 201.253 24.2577 201.253C23.9452 201.253 23.6725 201.317 23.4395 201.445C23.2066 201.572 23.0276 201.753 22.9026 201.986C22.7776 202.219 22.7151 202.491 22.7151 202.804H21.458C21.458 202.273 21.5802 201.808 21.8245 201.411C22.0688 201.013 22.404 200.705 22.8302 200.486C23.2563 200.264 23.7407 200.153 24.2833 200.153C24.8316 200.153 25.3145 200.263 25.7321 200.482C26.1526 200.697 26.4807 200.993 26.7165 201.368C26.9523 201.74 27.0702 202.161 27.0702 202.629C27.0702 202.953 27.0091 203.27 26.887 203.58C26.7677 203.889 26.5588 204.234 26.2606 204.615C25.9623 204.993 25.5475 205.452 25.0162 205.991L23.2819 207.807V207.871H27.2108V209H21.4665ZM28.3459 209V208.045L31.299 204.986C31.6144 204.653 31.8743 204.362 32.0788 204.112C32.2862 203.859 32.4411 203.619 32.5433 203.392C32.6456 203.165 32.6967 202.923 32.6967 202.668C32.6967 202.378 32.6286 202.128 32.4922 201.918C32.3558 201.705 32.1698 201.541 31.934 201.428C31.6982 201.311 31.4325 201.253 31.1371 201.253C30.8246 201.253 30.5519 201.317 30.3189 201.445C30.086 201.572 29.907 201.753 29.782 201.986C29.657 202.219 29.5945 202.491 29.5945 202.804H28.3374C28.3374 202.273 28.4595 201.808 28.7038 201.411C28.9482 201.013 29.2834 200.705 29.7095 200.486C30.1357 200.264 30.62 200.153 31.1627 200.153C31.711 200.153 32.1939 200.263 32.6115 200.482C33.032 200.697 33.3601 200.993 33.5959 201.368C33.8317 201.74 33.9496 202.161 33.9496 202.629C33.9496 202.953 33.8885 203.27 33.7663 203.58C33.647 203.889 33.4382 204.234 33.1399 204.615C32.8416 204.993 32.4269 205.452 31.8956 205.991L30.1612 207.807V207.871H34.0902V209H28.3459ZM36.0818 209.081C35.8488 209.081 35.6486 208.999 35.481 208.834C35.3133 208.666 35.2295 208.464 35.2295 208.229C35.2295 207.996 35.3133 207.797 35.481 207.632C35.6486 207.464 35.8488 207.381 36.0818 207.381C36.3148 207.381 36.515 207.464 36.6827 207.632C36.8503 207.797 36.9341 207.996 36.9341 208.229C36.9341 208.385 36.8943 208.528 36.8148 208.659C36.7381 208.787 36.6358 208.889 36.5079 208.966C36.3801 209.043 36.2381 209.081 36.0818 209.081ZM40.8657 209.145C40.1924 209.142 39.6171 208.964 39.1398 208.612C38.6625 208.26 38.2975 207.747 38.0446 207.074C37.7918 206.401 37.6654 205.589 37.6654 204.641C37.6654 203.695 37.7918 202.886 38.0446 202.216C38.3003 201.545 38.6668 201.034 39.1441 200.682C39.6242 200.33 40.198 200.153 40.8657 200.153C41.5333 200.153 42.1057 200.331 42.583 200.686C43.0603 201.038 43.4253 201.55 43.6782 202.22C43.9338 202.888 44.0617 203.695 44.0617 204.641C44.0617 205.592 43.9353 206.405 43.6824 207.078C43.4296 207.749 43.0645 208.261 42.5872 208.616C42.11 208.969 41.5361 209.145 40.8657 209.145ZM40.8657 208.007C41.4566 208.007 41.9182 207.719 42.2506 207.142C42.5858 206.565 42.7534 205.732 42.7534 204.641C42.7534 203.916 42.6767 203.304 42.5233 202.804C42.3728 202.301 42.1554 201.92 41.8713 201.662C41.5901 201.401 41.2549 201.27 40.8657 201.27C40.2776 201.27 39.8159 201.56 39.4807 202.139C39.1455 202.719 38.9764 203.553 38.9736 204.641C38.9736 205.368 39.0489 205.983 39.1995 206.486C39.3529 206.986 39.5702 207.365 39.8514 207.624C40.1327 207.879 40.4708 208.007 40.8657 208.007ZM48.1317 209.145C47.4585 209.142 46.8832 208.964 46.4059 208.612C45.9286 208.26 45.5636 207.747 45.3107 207.074C45.0579 206.401 44.9315 205.589 44.9315 204.641C44.9315 203.695 45.0579 202.886 45.3107 202.216C45.5664 201.545 45.9329 201.034 46.4102 200.682C46.8903 200.33 47.4641 200.153 48.1317 200.153C48.7994 200.153 49.3718 200.331 49.8491 200.686C50.3263 201.038 50.6914 201.55 50.9442 202.22C51.1999 202.888 51.3278 203.695 51.3278 204.641C51.3278 205.592 51.2013 206.405 50.9485 207.078C50.6957 207.749 50.3306 208.261 49.8533 208.616C49.3761 208.969 48.8022 209.145 48.1317 209.145ZM48.1317 208.007C48.7227 208.007 49.1843 207.719 49.5167 207.142C49.8519 206.565 50.0195 205.732 50.0195 204.641C50.0195 203.916 49.9428 203.304 49.7894 202.804C49.6388 202.301 49.4215 201.92 49.1374 201.662C48.8562 201.401 48.521 201.27 48.1317 201.27C47.5437 201.27 47.082 201.56 46.7468 202.139C46.4116 202.719 46.2425 203.553 46.2397 204.641C46.2397 205.368 46.315 205.983 46.4656 206.486C46.619 206.986 46.8363 207.365 47.1175 207.624C47.3988 207.879 47.7369 208.007 48.1317 208.007Z" fill="#657180"/>
<g opacity="0.2">
<rect x="67.25" y="204.75" width="462.5" height="0.5" stroke="#657180" stroke-width="0.5" stroke-dasharray="6 4"/>
</g>
</g>
<g opacity="0.8">
<path d="M21.7868 245V244.045L24.74 240.986C25.0553 240.653 25.3152 240.362 25.5198 240.112C25.7272 239.859 25.882 239.619 25.9843 239.392C26.0865 239.165 26.1377 238.923 26.1377 238.668C26.1377 238.378 26.0695 238.128 25.9331 237.918C25.7968 237.705 25.6107 237.541 25.3749 237.428C25.1391 237.311 24.8735 237.253 24.578 237.253C24.2655 237.253 23.9928 237.317 23.7598 237.445C23.5269 237.572 23.3479 237.753 23.2229 237.986C23.0979 238.219 23.0354 238.491 23.0354 238.804H21.7783C21.7783 238.273 21.9005 237.808 22.1448 237.411C22.3891 237.013 22.7243 236.705 23.1505 236.486C23.5766 236.264 24.061 236.153 24.6036 236.153C25.1519 236.153 25.6348 236.263 26.0525 236.482C26.4729 236.697 26.801 236.993 27.0368 237.368C27.2726 237.74 27.3905 238.161 27.3905 238.629C27.3905 238.953 27.3294 239.27 27.2073 239.58C27.088 239.889 26.8792 240.234 26.5809 240.615C26.2826 240.993 25.8678 241.452 25.3365 241.991L23.6022 243.807V243.871H27.5312V245H21.7868ZM31.9773 236.273V245H30.6563V237.594H30.6051L28.5171 238.957V237.696L30.6946 236.273H31.9773ZM34.2107 245.081C33.9778 245.081 33.7775 244.999 33.6099 244.834C33.4422 244.666 33.3584 244.464 33.3584 244.229C33.3584 243.996 33.4422 243.797 33.6099 243.632C33.7775 243.464 33.9778 243.381 34.2107 243.381C34.4437 243.381 34.6439 243.464 34.8116 243.632C34.9792 243.797 35.063 243.996 35.063 244.229C35.063 244.385 35.0232 244.528 34.9437 244.659C34.867 244.787 34.7647 244.889 34.6368 244.966C34.509 245.043 34.367 245.081 34.2107 245.081ZM39.0127 245.119C38.4786 245.119 37.9985 245.017 37.5723 244.812C37.149 244.605 36.811 244.321 36.5581 243.96C36.3053 243.599 36.1703 243.188 36.1533 242.724H37.4317C37.463 243.099 37.6291 243.408 37.9303 243.649C38.2314 243.891 38.5922 244.011 39.0127 244.011C39.3479 244.011 39.6448 243.935 39.9033 243.781C40.1647 243.625 40.3692 243.411 40.5169 243.138C40.6675 242.865 40.7428 242.554 40.7428 242.205C40.7428 241.849 40.6661 241.533 40.5127 241.254C40.3593 240.976 40.1476 240.757 39.8777 240.598C39.6107 240.439 39.3039 240.358 38.9573 240.355C38.6931 240.355 38.4274 240.401 38.1604 240.491C37.8934 240.582 37.6774 240.702 37.5127 240.849L36.3067 240.67L36.7968 236.273H41.5951V237.402H37.8919L37.6149 239.844H37.6661C37.8365 239.679 38.0624 239.541 38.3436 239.43C38.6277 239.32 38.9317 239.264 39.2556 239.264C39.7868 239.264 40.2598 239.391 40.6746 239.643C41.0922 239.896 41.4203 240.241 41.659 240.679C41.9005 241.114 42.0198 241.614 42.0169 242.179C42.0198 242.744 41.8919 243.249 41.6334 243.692C41.3777 244.135 41.0226 244.484 40.5681 244.74C40.1164 244.993 39.5979 245.119 39.0127 245.119ZM46.1317 245.145C45.4585 245.142 44.8832 244.964 44.4059 244.612C43.9286 244.26 43.5636 243.747 43.3107 243.074C43.0579 242.401 42.9315 241.589 42.9315 240.641C42.9315 239.695 43.0579 238.886 43.3107 238.216C43.5664 237.545 43.9329 237.034 44.4102 236.682C44.8903 236.33 45.4641 236.153 46.1317 236.153C46.7994 236.153 47.3718 236.331 47.8491 236.686C48.3263 237.038 48.6914 237.55 48.9442 238.22C49.1999 238.888 49.3278 239.695 49.3278 240.641C49.3278 241.592 49.2013 242.405 48.9485 243.078C48.6957 243.749 48.3306 244.261 47.8533 244.616C47.3761 244.969 46.8022 245.145 46.1317 245.145ZM46.1317 244.007C46.7227 244.007 47.1843 243.719 47.5167 243.142C47.8519 242.565 48.0195 241.732 48.0195 240.641C48.0195 239.916 47.9428 239.304 47.7894 238.804C47.6388 238.301 47.4215 237.92 47.1374 237.662C46.8562 237.401 46.521 237.27 46.1317 237.27C45.5437 237.27 45.082 237.56 44.7468 238.139C44.4116 238.719 44.2425 239.553 44.2397 240.641C44.2397 241.368 44.315 241.983 44.4656 242.486C44.619 242.986 44.8363 243.365 45.1175 243.624C45.3988 243.879 45.7369 244.007 46.1317 244.007Z" fill="#657180"/>
<g opacity="0.2">
<rect x="65.25" y="240.75" width="464.5" height="0.5" stroke="#657180" stroke-width="0.5" stroke-dasharray="6 4"/>
</g>
</g>
<path d="M17 32H60L66 40L60 48H17V32Z" fill="#ED1F24"/>
<path d="M21.7695 44V43.125L24.4766 40.3203C24.7656 40.0156 25.0039 39.7487 25.1914 39.5195C25.3815 39.2878 25.5234 39.0677 25.6172 38.8594C25.7109 38.651 25.7578 38.4297 25.7578 38.1953C25.7578 37.9297 25.6953 37.7005 25.5703 37.5078C25.4453 37.3125 25.2747 37.1628 25.0586 37.0586C24.8424 36.9518 24.599 36.8984 24.3281 36.8984C24.0417 36.8984 23.7917 36.957 23.5781 37.0742C23.3646 37.1914 23.2005 37.3568 23.0859 37.5703C22.9714 37.7839 22.9141 38.0339 22.9141 38.3203H21.7617C21.7617 37.8333 21.8737 37.4076 22.0977 37.043C22.3216 36.6784 22.6289 36.3958 23.0195 36.1953C23.4102 35.9922 23.8542 35.8906 24.3516 35.8906C24.8542 35.8906 25.2969 35.9909 25.6797 36.1914C26.0651 36.3893 26.3659 36.6602 26.582 37.0039C26.7982 37.3451 26.9062 37.7305 26.9062 38.1602C26.9062 38.457 26.8503 38.7474 26.7383 39.0312C26.6289 39.3151 26.4375 39.6315 26.1641 39.9805C25.8906 40.3268 25.5104 40.7474 25.0234 41.2422L23.4336 42.9062V42.9648H27.0352V44H21.7695ZM27.7358 42.4375V41.4609L31.1928 36H31.9623V37.4375H31.4741L29.0014 41.3516V41.4141H33.7397V42.4375H27.7358ZM31.5287 44V42.1406L31.5366 41.6953V36H32.6811V44H31.5287ZM35.1454 44.0742C34.9318 44.0742 34.7483 43.9987 34.5946 43.8477C34.441 43.694 34.3641 43.5091 34.3641 43.293C34.3641 43.0794 34.441 42.8971 34.5946 42.7461C34.7483 42.5924 34.9318 42.5156 35.1454 42.5156C35.3589 42.5156 35.5425 42.5924 35.6962 42.7461C35.8498 42.8971 35.9266 43.0794 35.9266 43.293C35.9266 43.4362 35.8902 43.5677 35.8173 43.6875C35.747 43.8047 35.6532 43.8984 35.536 43.9687C35.4188 44.0391 35.2886 44.0742 35.1454 44.0742ZM39.5306 44.1094C38.9941 44.1094 38.515 44.0169 38.0931 43.832C37.6738 43.6471 37.3418 43.3906 37.097 43.0625C36.8548 42.7318 36.7246 42.349 36.7064 41.9141H37.9329C37.9486 42.151 38.028 42.3568 38.1712 42.5312C38.317 42.7031 38.5071 42.8359 38.7415 42.9297C38.9759 43.0234 39.2363 43.0703 39.5228 43.0703C39.8379 43.0703 40.1165 43.0156 40.3587 42.9062C40.6035 42.7969 40.7949 42.6445 40.9329 42.4492C41.071 42.2513 41.14 42.0234 41.14 41.7656C41.14 41.4974 41.071 41.2617 40.9329 41.0586C40.7975 40.8529 40.5983 40.6914 40.3353 40.5742C40.0749 40.457 39.7598 40.3984 39.39 40.3984H38.7142V39.4141H39.39C39.6868 39.4141 39.9473 39.3607 40.1712 39.2539C40.3978 39.1471 40.5749 38.9987 40.7025 38.8086C40.8301 38.6159 40.8939 38.3906 40.8939 38.1328C40.8939 37.8854 40.8379 37.6706 40.7259 37.4883C40.6165 37.3034 40.4603 37.1589 40.2571 37.0547C40.0566 36.9505 39.8196 36.8984 39.5462 36.8984C39.2858 36.8984 39.0423 36.9466 38.8157 37.043C38.5918 37.1367 38.4095 37.2721 38.2689 37.4492C38.1282 37.6237 38.0527 37.8333 38.0423 38.0781H36.8743C36.8874 37.6458 37.015 37.2656 37.2571 36.9375C37.5019 36.6094 37.8249 36.3529 38.2259 36.168C38.6269 35.9831 39.0723 35.8906 39.5618 35.8906C40.0749 35.8906 40.5176 35.9909 40.89 36.1914C41.265 36.3893 41.554 36.6536 41.7571 36.9844C41.9629 37.3151 42.0644 37.6771 42.0618 38.0703C42.0644 38.5182 41.9394 38.8984 41.6868 39.2109C41.4368 39.5234 41.1035 39.7331 40.6868 39.8398V39.9023C41.2181 39.9831 41.6295 40.194 41.9212 40.5352C42.2155 40.8763 42.3613 41.2995 42.3587 41.8047C42.3613 42.2448 42.2389 42.6393 41.9915 42.9883C41.7467 43.3372 41.4121 43.612 40.9876 43.8125C40.5631 44.0104 40.0775 44.1094 39.5306 44.1094ZM46.0554 35.8906C46.4122 35.8932 46.7638 35.9583 47.1101 36.0859C47.4565 36.2135 47.769 36.4219 48.0476 36.7109C48.3289 37 48.5528 37.3906 48.7195 37.8828C48.8888 38.3724 48.9747 38.9818 48.9773 39.7109C48.9773 40.4115 48.907 41.0352 48.7664 41.582C48.6257 42.1263 48.4239 42.5859 48.1609 42.9609C47.9005 43.3359 47.5841 43.6211 47.2117 43.8164C46.8393 44.0117 46.42 44.1094 45.9539 44.1094C45.4773 44.1094 45.0541 44.0156 44.6843 43.8281C44.3145 43.6406 44.0138 43.3815 43.782 43.0508C43.5502 42.7174 43.4057 42.3346 43.3484 41.9023H44.5398C44.6179 42.2461 44.7768 42.5247 45.0164 42.7383C45.2586 42.9492 45.5711 43.0547 45.9539 43.0547C46.5398 43.0547 46.9968 42.7995 47.325 42.2891C47.6531 41.776 47.8185 41.0599 47.8211 40.1406H47.7586C47.6231 40.3646 47.4539 40.5573 47.2507 40.7187C47.0502 40.8802 46.825 41.0052 46.575 41.0937C46.325 41.1823 46.058 41.2266 45.7742 41.2266C45.3132 41.2266 44.894 41.1133 44.5164 40.8867C44.1388 40.6602 43.838 40.349 43.614 39.9531C43.3901 39.5573 43.2781 39.1055 43.2781 38.5977C43.2781 38.0924 43.3927 37.6341 43.6218 37.2227C43.8536 36.8112 44.1765 36.4857 44.5906 36.2461C45.0073 36.0039 45.4955 35.8854 46.0554 35.8906ZM46.0593 36.9062C45.7546 36.9062 45.4799 36.9818 45.2351 37.1328C44.9929 37.2812 44.8015 37.4831 44.6609 37.7383C44.5203 37.9909 44.45 38.2721 44.45 38.582C44.45 38.8919 44.5177 39.1732 44.6531 39.4258C44.7911 39.6758 44.9786 39.875 45.2156 40.0234C45.4552 40.1693 45.7286 40.2422 46.0359 40.2422C46.2651 40.2422 46.4786 40.1979 46.6765 40.1094C46.8744 40.0208 47.0476 39.8984 47.1961 39.7422C47.3445 39.5833 47.4604 39.4036 47.5437 39.2031C47.627 39.0026 47.6687 38.7917 47.6687 38.5703C47.6687 38.276 47.5984 38.0026 47.4578 37.75C47.3198 37.4974 47.1296 37.2943 46.8875 37.1406C46.6453 36.9844 46.3692 36.9062 46.0593 36.9062Z" fill="white"/>
<path opacity="0.5" d="M68 61L68 23.5V0M68 23.5H60M68 61H60M68 61V97M68 97H60M68 97V133M68 133H60M68 133V169M68 169H60M68 169V205.5M68 205.5H60M68 205.5V241.5M68 241.5H60M68 241.5L68 267H20" stroke="#657180" stroke-width="1.5"/>
<path opacity="0.5" d="M68.0078 267.001L89.5078 267.001M245.008 267.001L284.008 267.001L323.008 267.001L345.008 267.001L362.008 267.001M479.008 267L440.008 267L420.008 267L401.008 267L362.008 267.001M362.008 267.001L362.008 275M89.5078 267.001L89.5078 275.001M89.5078 267.001L128.008 267.001M128.008 267.001L128.008 275.001M206.008 267.001L167.008 267.001L128.008 267.001M167.008 267.001L167.008 275.001M206.008 267.001L206.008 275.001M206.008 267.001L245.008 267.001M245.008 267.001L245.008 275.001M284.008 267.001L284.008 275.001M323.008 267.001L323.008 275.001M401.008 267L401.008 275M440.008 267L440.008 275M545.008 267L518.008 267L495.008 267L479.008 267M479.008 267L479.008 275M518.008 267L518.008 275" stroke="#657180" stroke-width="1.5"/>
<g clip-path="url(#clip0_656_5815)">
<path d="M413 149.236V184.392M413 188.899V184.392M413 184.392H416.529V181.687V190.702M416.529 235.124V190.702M416.529 190.702H420.059V186.194M420.059 181.687V186.194M420.059 196.11V186.194M420.059 186.194H423.588V176.279V194.307H427.118V188.899M427.118 185.293V188.899M427.118 197.012V188.899M427.118 188.899H431.823V183.49M431.823 178.983V183.49M431.823 183.49H435.353V178.983H438.882V172.673V182.589M438.882 186.194V182.589M438.882 182.589H442.412V188.899M442.412 195.209V188.899M442.412 188.899H445.941V185.293V191.603M445.941 193.406V191.603M445.941 191.603H449.471V185.293M449.471 183.49V185.293M449.471 194.307V185.293M449.471 185.293H453V178.983V189.8H457.706V178.983M457.706 176.279V178.983M457.706 178.983H461.235V171.772V196.396M461.235 218.001V196.396M461.235 196.396H464.765V192.504M464.765 184.392V192.504M464.765 205.124V192.504M464.765 192.504H468.294V196.11V160.053M468.294 149.236V160.053M468.294 160.053H471.823V148.334V165.462M471.823 171.772V165.462M471.823 165.462H475.353M475.353 165.462V160.053V170.87V165.462ZM478.882 165.462V159.152M478.882 155.546V159.152M478.882 169.969V159.152M478.882 159.152H482.412M482.412 159.152V157.349V168.166V159.152ZM487.118 153.743C487.118 153.743 487.118 157.039 487.118 159.152V160.954M487.118 165.462V160.954M487.118 160.954H490.647V156.447M490.647 151.039V156.447M490.647 156.447H494.176V151.94V158.25M494.176 160.954V158.25M494.176 158.25H497.706V154.644M497.706 150.137V154.644M497.706 154.644H501.235V149.236M501.235 147.433V149.236M501.235 159.152V149.236M501.235 149.236H504.765M504.765 149.236V142.024V158.25V149.236ZM508.294 149.236V200.954V139.119M508.294 122.562V139.119M508.294 139.119H512.75L513 120.389V127.601M513 151.94V127.601M513 127.601H516.529V135.714V110.474M516.529 108.671V110.474M516.529 110.474H520.059V113.178V102.361M520.059 99.6565V102.361M520.059 102.361H524.765V84.3323H527.117V91.5437V82.5294M527.117 80.7266V82.5294M527.117 82.5294H530.647" stroke="#F23645" stroke-width="1.8"/>
<path d="M413.188 137.12L412.937 118.39V125.601M412.937 149.94V125.601M412.937 125.601H409.408V133.714V108.474M409.408 106.671V108.474M409.408 108.474H405.879V111.178V100.361M405.879 97.6568V100.361M405.879 100.361H401.173V82.3326H398.82V89.544V80.5297M398.82 78.7268V80.5297M398.82 80.5297H395.29V83.234V67.9097M395.29 63.4026V67.9097M395.29 67.9097H391.761V76.0226M391.761 80.5297V76.0226M391.761 59.7969V76.0226M391.761 76.0226H387.055V72.4169V80.5297M387.055 88.6425V80.5297M387.055 80.5297H383.526V75.5718M383.526 70.614V75.5718M383.526 87.7411V75.5718M383.526 75.5718H379.996V72.4169V89.544M379.996 92.2482V89.544M379.996 89.544H376.467V87.7411M376.467 82.3326V87.7411M376.467 87.7411H372.937V85.0368M372.937 82.3326V85.0368M372.937 99.4597V85.0368M372.937 85.0368H369.408" stroke="#F23645" stroke-width="1.8"/>
<path d="M229.211 162.564V140.93M229.211 125.606V140.93M229.211 140.93H225.682V158.057V130.113M225.682 127.409V130.113M225.682 130.113H220.976M220.976 130.113V122.901V134.62V130.113ZM217.446 130.113V127.409V143.634M217.446 146.339V143.634M217.446 143.634H213.917V140.93V154.451M213.917 162.564V154.451M213.917 154.451H210.387V158.959M210.387 172.48V158.959M210.387 158.959H206.858M206.858 158.959V153.55V163.466V158.959ZM203.329 158.959V160.761V155.353M203.329 152.649V155.353M203.329 155.353H198.623V161.663V153.55M198.623 149.944V153.55M198.623 153.55H195.093V155.353V137.324H191.564V132.817M191.564 127.409V132.817M191.564 132.817H188.035V122H184.505V140.93" stroke="#F23645" stroke-width="1.8"/>
<path d="M372.988 33.3906V90.1805M372.988 94.6877V90.1805M372.988 90.1805H369.459V102.801V76.6591M369.459 74.8563V76.6591M369.459 76.6591H365.929V73.0534V84.772M365.929 89.2791V84.772M365.929 84.772H362.4V87.4762V78.462M362.4 73.0534V78.462M362.4 78.462H358.871V66.7434V79.3634M358.871 81.1663V79.3634M358.871 79.3634H354.165V76.6591V87.4762M354.165 91.082V87.4762M354.165 87.4762H350.635V86.5748M350.635 83.8705V86.5748M350.635 92.8848V86.5748M350.635 86.5748H347.106V84.772M347.106 81.1663V84.772M347.106 91.9834V84.772M347.106 84.772H343.577V82.9691V86.5748M343.577 89.2791V86.5748M343.577 86.5748H338.871M338.871 86.5748V82.9691V91.082V86.5748ZM335.341 86.5748V77.5606M335.341 75.7577V77.5606M335.341 77.5606H331.812V74.8563V84.772M331.812 85.6734V84.772M331.812 84.772H328.282V81.1663M328.282 78.462V81.1663M328.282 95.5891V81.1663" stroke="#F23645" stroke-width="1.8"/>
<path d="M184.477 100.784V122.419M184.477 128.729V122.419M184.477 122.419H180.947V128.729V106.193M180.947 100.784V106.193M180.947 106.193H177.418V114.306V91.77M177.418 89.9671V91.77M177.418 91.77H173.888V96.2771V90.8686M173.888 82.7557V90.8686M173.888 90.8686H169.182V93.5729V82.7557M169.182 80.0514V82.7557M169.182 82.7557H165.653V83.6572M165.653 87.2629V83.6572M165.653 77.3472V83.6572M165.653 83.6572H162.124V91.77M162.124 94.4743V91.77M162.124 80.9529V91.77M162.124 91.77L160.947 92.6714H158.594V88.1643M158.594 83.6572V88.1643M158.594 88.1643H155.065M155.065 88.1643V91.77V82.7557V88.1643ZM151.535 88.1643V86.3614V89.9671M151.535 94.4743V89.9671M151.535 89.9671H148.006V91.77M148.006 93.5729V91.77M148.006 84.5586V91.77M148.006 91.77H143.3V95.3757V88.1643M143.3 81.8543V88.1643M143.3 88.1643H139.771V89.0657M139.771 93.5729V89.0657M139.771 85.46V89.0657M139.771 89.0657H136.241V122.134V87.8855M136.241 33.1772V87.8855M136.241 87.8855H132.712V94.4743M132.712 108.897V94.4743M132.712 71.9386V94.4743M132.712 94.4743H129.183V104.39M129.183 107.094V104.39M129.183 79.15V104.39M129.183 104.39H125.653V113.404M125.653 128.729V113.404M125.653 99.8828V113.404M125.653 113.404H120.947V119.714V93.5729M120.947 86.8394V93.5729M120.947 93.5729H117.418V74.6429M117.418 72.84V74.6429M117.418 74.6429H113.888V68.3329M113.888 57.3453V68.3329M113.888 68.3329H110.359V52.1072M110.359 47.6001V52.1072M110.359 52.1072H106.83V45.7972V66.53M106.83 68.3329V66.53M106.83 66.53H103.3V56.6143V73.7415M103.3 78.6403V73.7415M103.3 73.7415H98.5944V71.9386V83.6572M98.5944 87.2629V83.6572M98.5944 83.6572H95.0649V84.5586M95.0649 89.0657V84.5586M95.0649 78.2486V84.5586M95.0649 84.5586H91.5355V87.8855V64.7272M91.5355 61.1215V64.7272M91.5355 64.7272H88.0061" stroke="#F23645" stroke-width="1.8"/>
<path d="M229.207 229.484V163.68M229.207 159.173V163.68M229.207 163.68H232.736V156.468V195.23M232.736 200.638V195.23M232.736 195.23H236.266V191.624M236.266 180.807V191.624M236.266 209.653V191.624M236.266 191.624H240.972V202.441M240.972 207.85V202.441M240.972 202.441H244.501V206.948V185.314M244.501 179.004V185.314M244.501 185.314H248.031V181.708M248.031 174.497V181.708M248.031 188.92V181.708M248.031 181.708H251.56V176.3M251.56 175.398V176.3M251.56 187.117V176.3M251.56 176.3H255.089V172.694V196.131M255.089 197.934V196.131M255.089 196.131H258.619V183.511M258.619 181.708V183.511M258.619 200.638V183.511M258.619 183.511H262.148V187.117V173.596M262.148 172.694V173.596M262.148 173.596H264.501V172.694H266.854V164.581M266.854 160.074V164.581M266.854 164.581H270.383V160.976V173.596M270.383 176.3V173.596M270.383 173.596H272.736V179.906H275.089V177.201H277.442V179.004V143.933M277.442 125.904V143.933M277.442 143.933H280.972V143.031M280.972 132.214V143.031M280.972 156.553V143.031M280.972 143.031H284.501V147.538V138.524M284.501 134.017V138.524M284.501 138.524H288.03V130.411V142.13M288.03 147.538V142.13M288.03 142.13H291.56V145.736V139.426M291.56 137.623V139.426M291.56 139.426H296.266V136.721V141.229M296.266 143.031V141.229M296.266 141.229H299.795V138.524M299.795 135.82V138.524M299.795 143.031V138.524M299.795 138.524H303.325V136.721V139.426M303.325 144.834V139.426M303.325 139.426H306.854V136.721M306.854 134.017V136.721M306.854 146.637V136.721M306.854 136.721H310.383V141.229V132.214M310.383 131.313V132.214M310.383 132.214H313.913V137.623V131.313M313.913 126.806V131.313M313.913 131.313H317.442V132.214V126.806M317.442 124.101V126.806M317.442 126.806H320.972M320.972 126.806V128.609V119.594V126.806ZM323.325 126.806H325.677V129.51V125.255V117" stroke="#F23645" stroke-width="1.8"/>
<line opacity="0.2" x1="435" y1="148.25" x2="535" y2="148.25" stroke="#A7ADBE" stroke-width="1.5"/>
<line opacity="0.2" x1="398.775" y1="244.498" x2="586.713" y2="176.094" stroke="#A7ADBE" stroke-width="1.5"/>
</g>
<path d="M83.3107 289.119C82.9215 289.114 82.538 289.043 82.1602 288.906C81.7852 288.77 81.4443 288.543 81.1374 288.224C80.8306 287.906 80.5849 287.479 80.4002 286.942C80.2184 286.405 80.1275 285.734 80.1275 284.93C80.1275 284.169 80.2028 283.493 80.3534 282.902C80.5068 282.311 80.7269 281.812 81.0139 281.406C81.3008 280.997 81.6474 280.686 82.0536 280.473C82.4599 280.26 82.9159 280.153 83.4215 280.153C83.9414 280.153 84.4031 280.256 84.8065 280.46C85.2099 280.665 85.5366 280.947 85.7866 281.308C86.0394 281.669 86.1999 282.08 86.2681 282.54H84.9684C84.8803 282.176 84.7056 281.879 84.4443 281.649C84.1829 281.419 83.842 281.304 83.4215 281.304C82.7823 281.304 82.2838 281.582 81.9258 282.139C81.5707 282.696 81.3917 283.47 81.3889 284.462H81.4528C81.6034 284.214 81.788 284.004 82.0068 283.831C82.2284 283.655 82.4755 283.52 82.7482 283.426C83.0238 283.33 83.3136 283.281 83.6176 283.281C84.1232 283.281 84.5806 283.405 84.9897 283.652C85.4016 283.896 85.7298 284.234 85.9741 284.666C86.2184 285.098 86.3406 285.592 86.3406 286.149C86.3406 286.706 86.2141 287.21 85.9613 287.662C85.7113 288.114 85.359 288.472 84.9045 288.736C84.4499 288.997 83.9187 289.125 83.3107 289.119ZM83.3065 288.011C83.6417 288.011 83.9414 287.929 84.2056 287.764C84.4698 287.599 84.6786 287.378 84.832 287.099C84.9855 286.821 85.0622 286.51 85.0622 286.166C85.0622 285.831 84.9869 285.526 84.8363 285.25C84.6886 284.974 84.484 284.756 84.2227 284.594C83.9641 284.432 83.6687 284.351 83.3363 284.351C83.0835 284.351 82.8491 284.399 82.6332 284.496C82.4201 284.592 82.2326 284.726 82.0707 284.896C81.9088 285.067 81.7809 285.263 81.6872 285.484C81.5963 285.703 81.5508 285.935 81.5508 286.179C81.5508 286.506 81.6261 286.808 81.7766 287.087C81.9301 287.365 82.1389 287.589 82.4031 287.76C82.6701 287.928 82.9713 288.011 83.3065 288.011ZM90.7537 279.864L87.9412 290.312H86.8034L89.6159 279.864H90.7537ZM91.339 289V288.045L94.2921 284.986C94.6075 284.653 94.8674 284.362 95.072 284.112C95.2794 283.859 95.4342 283.619 95.5365 283.392C95.6387 283.165 95.6899 282.923 95.6899 282.668C95.6899 282.378 95.6217 282.128 95.4853 281.918C95.349 281.705 95.1629 281.541 94.9271 281.428C94.6913 281.311 94.4257 281.253 94.1302 281.253C93.8177 281.253 93.545 281.317 93.312 281.445C93.0791 281.572 92.9001 281.753 92.7751 281.986C92.6501 282.219 92.5876 282.491 92.5876 282.804H91.3305C91.3305 282.273 91.4527 281.808 91.697 281.411C91.9413 281.013 92.2765 280.705 92.7027 280.486C93.1288 280.264 93.6132 280.153 94.1558 280.153C94.7041 280.153 95.187 280.263 95.6046 280.482C96.0251 280.697 96.3532 280.993 96.589 281.368C96.8248 281.74 96.9427 282.161 96.9427 282.629C96.9427 282.953 96.8816 283.27 96.7595 283.58C96.6402 283.889 96.4314 284.234 96.1331 284.615C95.8348 284.993 95.42 285.452 94.8887 285.991L93.1544 287.807V287.871H97.0833V289H91.339ZM101.265 289.119C100.876 289.114 100.493 289.043 100.115 288.906C99.7397 288.77 99.3988 288.543 99.092 288.224C98.7852 287.906 98.5394 287.479 98.3548 286.942C98.1729 286.405 98.082 285.734 98.082 284.93C98.082 284.169 98.1573 283.493 98.3079 282.902C98.4613 282.311 98.6815 281.812 98.9684 281.406C99.2553 280.997 99.6019 280.686 100.008 280.473C100.414 280.26 100.87 280.153 101.376 280.153C101.896 280.153 102.358 280.256 102.761 280.46C103.164 280.665 103.491 280.947 103.741 281.308C103.994 281.669 104.154 282.08 104.223 282.54H102.923C102.835 282.176 102.66 281.879 102.399 281.649C102.137 281.419 101.797 281.304 101.376 281.304C100.737 281.304 100.238 281.582 99.8803 282.139C99.5252 282.696 99.3462 283.47 99.3434 284.462H99.4073C99.5579 284.214 99.7425 284.004 99.9613 283.831C100.183 283.655 100.43 283.52 100.703 283.426C100.978 283.33 101.268 283.281 101.572 283.281C102.078 283.281 102.535 283.405 102.944 283.652C103.356 283.896 103.684 284.234 103.929 284.666C104.173 285.098 104.295 285.592 104.295 286.149C104.295 286.706 104.169 287.21 103.916 287.662C103.666 288.114 103.314 288.472 102.859 288.736C102.404 288.997 101.873 289.125 101.265 289.119ZM101.261 288.011C101.596 288.011 101.896 287.929 102.16 287.764C102.424 287.599 102.633 287.378 102.787 287.099C102.94 286.821 103.017 286.51 103.017 286.166C103.017 285.831 102.941 285.526 102.791 285.25C102.643 284.974 102.439 284.756 102.177 284.594C101.919 284.432 101.623 284.351 101.291 284.351C101.038 284.351 100.804 284.399 100.588 284.496C100.375 284.592 100.187 284.726 100.025 284.896C99.8633 285.067 99.7354 285.263 99.6417 285.484C99.5508 285.703 99.5053 285.935 99.5053 286.179C99.5053 286.506 99.5806 286.808 99.7312 287.087C99.8846 287.365 100.093 287.589 100.358 287.76C100.625 287.928 100.926 288.011 101.261 288.011Z" fill="#657180"/>
<path d="M120.942 289.119C120.553 289.114 120.17 289.043 119.792 288.906C119.417 288.77 119.076 288.543 118.769 288.224C118.462 287.906 118.216 287.479 118.032 286.942C117.85 286.405 117.759 285.734 117.759 284.93C117.759 284.169 117.834 283.493 117.985 282.902C118.138 282.311 118.358 281.812 118.645 281.406C118.932 280.997 119.279 280.686 119.685 280.473C120.091 280.26 120.547 280.153 121.053 280.153C121.573 280.153 122.035 280.256 122.438 280.46C122.841 280.665 123.168 280.947 123.418 281.308C123.671 281.669 123.832 282.08 123.9 282.54H122.6C122.512 282.176 122.337 281.879 122.076 281.649C121.814 281.419 121.474 281.304 121.053 281.304C120.414 281.304 119.915 281.582 119.557 282.139C119.202 282.696 119.023 283.47 119.02 284.462H119.084C119.235 284.214 119.42 284.004 119.638 283.831C119.86 283.655 120.107 283.52 120.38 283.426C120.655 283.33 120.945 283.281 121.249 283.281C121.755 283.281 122.212 283.405 122.621 283.652C123.033 283.896 123.361 284.234 123.606 284.666C123.85 285.098 123.972 285.592 123.972 286.149C123.972 286.706 123.846 287.21 123.593 287.662C123.343 288.114 122.991 288.472 122.536 288.736C122.082 288.997 121.55 289.125 120.942 289.119ZM120.938 288.011C121.273 288.011 121.573 287.929 121.837 287.764C122.101 287.599 122.31 287.378 122.464 287.099C122.617 286.821 122.694 286.51 122.694 286.166C122.694 285.831 122.618 285.526 122.468 285.25C122.32 284.974 122.116 284.756 121.854 284.594C121.596 284.432 121.3 284.351 120.968 284.351C120.715 284.351 120.481 284.399 120.265 284.496C120.052 284.592 119.864 284.726 119.702 284.896C119.54 285.067 119.412 285.263 119.319 285.484C119.228 285.703 119.182 285.935 119.182 286.179C119.182 286.506 119.258 286.808 119.408 287.087C119.562 287.365 119.77 287.589 120.035 287.76C120.302 287.928 120.603 288.011 120.938 288.011ZM128.385 279.864L125.573 290.312H124.435L127.247 279.864H128.385ZM128.971 289V288.045L131.924 284.986C132.239 284.653 132.499 284.362 132.704 284.112C132.911 283.859 133.066 283.619 133.168 283.392C133.27 283.165 133.321 282.923 133.321 282.668C133.321 282.378 133.253 282.128 133.117 281.918C132.981 281.705 132.794 281.541 132.559 281.428C132.323 281.311 132.057 281.253 131.762 281.253C131.449 281.253 131.177 281.317 130.944 281.445C130.711 281.572 130.532 281.753 130.407 281.986C130.282 282.219 130.219 282.491 130.219 282.804H128.962C128.962 282.273 129.084 281.808 129.329 281.411C129.573 281.013 129.908 280.705 130.334 280.486C130.76 280.264 131.245 280.153 131.787 280.153C132.336 280.153 132.819 280.263 133.236 280.482C133.657 280.697 133.985 280.993 134.221 281.368C134.456 281.74 134.574 282.161 134.574 282.629C134.574 282.953 134.513 283.27 134.391 283.58C134.272 283.889 134.063 284.234 133.765 284.615C133.466 284.993 133.052 285.452 132.52 285.991L130.786 287.807V287.871H134.715V289H128.971ZM136.144 289L139.954 281.466V281.402H135.547V280.273H141.317V281.44L137.52 289H136.144Z" fill="#657180"/>
<path d="M159.626 289.119C159.237 289.114 158.853 289.043 158.475 288.906C158.1 288.77 157.759 288.543 157.453 288.224C157.146 287.906 156.9 287.479 156.715 286.942C156.534 286.405 156.443 285.734 156.443 284.93C156.443 284.169 156.518 283.493 156.669 282.902C156.822 282.311 157.042 281.812 157.329 281.406C157.616 280.997 157.963 280.686 158.369 280.473C158.775 280.26 159.231 280.153 159.737 280.153C160.257 280.153 160.718 280.256 161.122 280.46C161.525 280.665 161.852 280.947 162.102 281.308C162.355 281.669 162.515 282.08 162.583 282.54H161.284C161.195 282.176 161.021 281.879 160.759 281.649C160.498 281.419 160.157 281.304 159.737 281.304C159.097 281.304 158.599 281.582 158.241 282.139C157.886 282.696 157.707 283.47 157.704 284.462H157.768C157.919 284.214 158.103 284.004 158.322 283.831C158.544 283.655 158.791 283.52 159.063 283.426C159.339 283.33 159.629 283.281 159.933 283.281C160.438 283.281 160.896 283.405 161.305 283.652C161.717 283.896 162.045 284.234 162.289 284.666C162.534 285.098 162.656 285.592 162.656 286.149C162.656 286.706 162.529 287.21 162.276 287.662C162.026 288.114 161.674 288.472 161.22 288.736C160.765 288.997 160.234 289.125 159.626 289.119ZM159.622 288.011C159.957 288.011 160.257 287.929 160.521 287.764C160.785 287.599 160.994 287.378 161.147 287.099C161.301 286.821 161.377 286.51 161.377 286.166C161.377 285.831 161.302 285.526 161.151 285.25C161.004 284.974 160.799 284.756 160.538 284.594C160.279 284.432 159.984 284.351 159.651 284.351C159.399 284.351 159.164 284.399 158.948 284.496C158.735 284.592 158.548 284.726 158.386 284.896C158.224 285.067 158.096 285.263 158.002 285.484C157.911 285.703 157.866 285.935 157.866 286.179C157.866 286.506 157.941 286.808 158.092 287.087C158.245 287.365 158.454 287.589 158.718 287.76C158.985 287.928 159.286 288.011 159.622 288.011ZM167.069 279.864L164.256 290.312H163.119L165.931 279.864H167.069ZM167.654 289V288.045L170.607 284.986C170.923 284.653 171.183 284.362 171.387 284.112C171.595 283.859 171.749 283.619 171.852 283.392C171.954 283.165 172.005 282.923 172.005 282.668C172.005 282.378 171.937 282.128 171.8 281.918C171.664 281.705 171.478 281.541 171.242 281.428C171.006 281.311 170.741 281.253 170.445 281.253C170.133 281.253 169.86 281.317 169.627 281.445C169.394 281.572 169.215 281.753 169.09 281.986C168.965 282.219 168.903 282.491 168.903 282.804H167.646C167.646 282.273 167.768 281.808 168.012 281.411C168.256 281.013 168.592 280.705 169.018 280.486C169.444 280.264 169.928 280.153 170.471 280.153C171.019 280.153 171.502 280.263 171.92 280.482C172.34 280.697 172.668 280.993 172.904 281.368C173.14 281.74 173.258 282.161 173.258 282.629C173.258 282.953 173.197 283.27 173.075 283.58C172.955 283.889 172.747 284.234 172.448 284.615C172.15 284.993 171.735 285.452 171.204 285.991L169.47 287.807V287.871H173.398V289H167.654ZM177.482 289.119C176.872 289.119 176.332 289.014 175.863 288.804C175.397 288.594 175.032 288.304 174.768 287.935C174.504 287.565 174.373 287.145 174.376 286.673C174.373 286.304 174.448 285.964 174.602 285.655C174.758 285.342 174.97 285.082 175.237 284.875C175.504 284.665 175.802 284.531 176.132 284.474V284.423C175.697 284.318 175.349 284.085 175.088 283.724C174.826 283.364 174.697 282.949 174.7 282.48C174.697 282.034 174.815 281.636 175.053 281.287C175.295 280.935 175.626 280.658 176.046 280.456C176.467 280.254 176.945 280.153 177.482 280.153C178.014 280.153 178.488 280.256 178.906 280.46C179.326 280.662 179.657 280.939 179.899 281.291C180.14 281.641 180.262 282.037 180.265 282.48C180.262 282.949 180.129 283.364 179.865 283.724C179.6 284.085 179.257 284.318 178.833 284.423V284.474C179.16 284.531 179.454 284.665 179.715 284.875C179.98 285.082 180.19 285.342 180.346 285.655C180.505 285.964 180.586 286.304 180.589 286.673C180.586 287.145 180.453 287.565 180.188 287.935C179.924 288.304 179.558 288.594 179.089 288.804C178.623 289.014 178.088 289.119 177.482 289.119ZM177.482 288.041C177.843 288.041 178.156 287.982 178.42 287.862C178.684 287.74 178.889 287.571 179.034 287.355C179.178 287.136 179.252 286.881 179.255 286.588C179.252 286.284 179.173 286.016 179.017 285.783C178.863 285.55 178.654 285.366 178.39 285.233C178.126 285.099 177.823 285.033 177.482 285.033C177.139 285.033 176.833 285.099 176.566 285.233C176.299 285.366 176.089 285.55 175.936 285.783C175.782 286.016 175.707 286.284 175.71 286.588C175.707 286.881 175.776 287.136 175.918 287.355C176.063 287.571 176.269 287.74 176.536 287.862C176.803 287.982 177.119 288.041 177.482 288.041ZM177.482 283.98C177.772 283.98 178.029 283.922 178.254 283.805C178.478 283.689 178.654 283.527 178.782 283.32C178.913 283.112 178.98 282.869 178.982 282.591C178.98 282.318 178.914 282.08 178.786 281.875C178.661 281.67 178.487 281.513 178.262 281.402C178.038 281.288 177.778 281.232 177.482 281.232C177.181 281.232 176.917 281.288 176.69 281.402C176.465 281.513 176.291 281.67 176.166 281.875C176.041 282.08 175.98 282.318 175.982 282.591C175.98 282.869 176.042 283.112 176.17 283.32C176.298 283.527 176.474 283.689 176.698 283.805C176.926 283.922 177.187 283.98 177.482 283.98Z" fill="#657180"/>
<path d="M198.602 289.119C198.213 289.114 197.83 289.043 197.452 288.906C197.077 288.77 196.736 288.543 196.429 288.224C196.122 287.906 195.877 287.479 195.692 286.942C195.51 286.405 195.419 285.734 195.419 284.93C195.419 284.169 195.495 283.493 195.645 282.902C195.798 282.311 196.019 281.812 196.306 281.406C196.593 280.997 196.939 280.686 197.345 280.473C197.752 280.26 198.208 280.153 198.713 280.153C199.233 280.153 199.695 280.256 200.098 280.46C200.502 280.665 200.828 280.947 201.078 281.308C201.331 281.669 201.492 282.08 201.56 282.54H200.26C200.172 282.176 199.997 281.879 199.736 281.649C199.475 281.419 199.134 281.304 198.713 281.304C198.074 281.304 197.575 281.582 197.218 282.139C196.862 282.696 196.683 283.47 196.681 284.462H196.745C196.895 284.214 197.08 284.004 197.298 283.831C197.52 283.655 197.767 283.52 198.04 283.426C198.316 283.33 198.605 283.281 198.909 283.281C199.415 283.281 199.872 283.405 200.281 283.652C200.693 283.896 201.021 284.234 201.266 284.666C201.51 285.098 201.632 285.592 201.632 286.149C201.632 286.706 201.506 287.21 201.253 287.662C201.003 288.114 200.651 288.472 200.196 288.736C199.742 288.997 199.21 289.125 198.602 289.119ZM198.598 288.011C198.933 288.011 199.233 287.929 199.497 287.764C199.762 287.599 199.97 287.378 200.124 287.099C200.277 286.821 200.354 286.51 200.354 286.166C200.354 285.831 200.279 285.526 200.128 285.25C199.98 284.974 199.776 284.756 199.514 284.594C199.256 284.432 198.96 284.351 198.628 284.351C198.375 284.351 198.141 284.399 197.925 284.496C197.712 284.592 197.524 284.726 197.362 284.896C197.2 285.067 197.073 285.263 196.979 285.484C196.888 285.703 196.843 285.935 196.843 286.179C196.843 286.506 196.918 286.808 197.068 287.087C197.222 287.365 197.431 287.589 197.695 287.76C197.962 287.928 198.263 288.011 198.598 288.011ZM206.045 279.864L203.233 290.312H202.095L204.908 279.864H206.045ZM206.631 289V288.045L209.584 284.986C209.899 284.653 210.159 284.362 210.364 284.112C210.571 283.859 210.726 283.619 210.828 283.392C210.93 283.165 210.982 282.923 210.982 282.668C210.982 282.378 210.913 282.128 210.777 281.918C210.641 281.705 210.455 281.541 210.219 281.428C209.983 281.311 209.717 281.253 209.422 281.253C209.109 281.253 208.837 281.317 208.604 281.445C208.371 281.572 208.192 281.753 208.067 281.986C207.942 282.219 207.879 282.491 207.879 282.804H206.622C206.622 282.273 206.744 281.808 206.989 281.411C207.233 281.013 207.568 280.705 207.994 280.486C208.421 280.264 208.905 280.153 209.448 280.153C209.996 280.153 210.479 280.263 210.896 280.482C211.317 280.697 211.645 280.993 211.881 281.368C212.117 281.74 212.234 282.161 212.234 282.629C212.234 282.953 212.173 283.27 212.051 283.58C211.932 283.889 211.723 284.234 211.425 284.615C211.126 284.993 210.712 285.452 210.18 285.991L208.446 287.807V287.871H212.375V289H206.631ZM216.412 280.153C216.801 280.156 217.185 280.227 217.563 280.366C217.941 280.506 218.281 280.733 218.585 281.048C218.892 281.364 219.137 281.79 219.318 282.327C219.503 282.861 219.597 283.526 219.6 284.321C219.6 285.085 219.523 285.766 219.369 286.362C219.216 286.956 218.996 287.457 218.709 287.866C218.425 288.276 218.08 288.587 217.673 288.8C217.267 289.013 216.81 289.119 216.301 289.119C215.781 289.119 215.32 289.017 214.916 288.812C214.513 288.608 214.185 288.325 213.932 287.964C213.679 287.601 213.521 287.183 213.459 286.712H214.759C214.844 287.087 215.017 287.391 215.279 287.624C215.543 287.854 215.884 287.969 216.301 287.969C216.941 287.969 217.439 287.69 217.797 287.134C218.155 286.574 218.335 285.793 218.338 284.79H218.27C218.122 285.034 217.938 285.244 217.716 285.42C217.497 285.597 217.252 285.733 216.979 285.83C216.706 285.926 216.415 285.974 216.105 285.974C215.602 285.974 215.145 285.851 214.733 285.604C214.321 285.357 213.993 285.017 213.749 284.585C213.504 284.153 213.382 283.661 213.382 283.107C213.382 282.555 213.507 282.055 213.757 281.607C214.01 281.158 214.362 280.803 214.814 280.541C215.269 280.277 215.801 280.148 216.412 280.153ZM216.416 281.261C216.084 281.261 215.784 281.344 215.517 281.509C215.253 281.67 215.044 281.891 214.891 282.169C214.737 282.445 214.661 282.751 214.661 283.089C214.661 283.428 214.735 283.734 214.882 284.01C215.033 284.283 215.237 284.5 215.496 284.662C215.757 284.821 216.056 284.901 216.391 284.901C216.641 284.901 216.874 284.852 217.09 284.756C217.306 284.659 217.494 284.526 217.656 284.355C217.818 284.182 217.945 283.986 218.036 283.767C218.127 283.548 218.172 283.318 218.172 283.077C218.172 282.756 218.095 282.457 217.942 282.182C217.791 281.906 217.584 281.685 217.32 281.517C217.056 281.347 216.754 281.261 216.416 281.261Z" fill="#657180"/>
<path d="M242.966 280.273H244.278V286.46C244.278 287.02 244.167 287.499 243.946 287.896C243.727 288.294 243.419 288.598 243.021 288.808C242.623 289.016 242.157 289.119 241.623 289.119C241.132 289.119 240.69 289.03 240.298 288.851C239.909 288.672 239.601 288.412 239.373 288.071C239.149 287.727 239.037 287.31 239.037 286.818H240.345C240.345 287.06 240.4 287.268 240.511 287.445C240.625 287.621 240.78 287.759 240.976 287.858C241.174 287.955 241.402 288.003 241.657 288.003C241.936 288.003 242.172 287.945 242.365 287.828C242.561 287.709 242.71 287.534 242.812 287.304C242.914 287.074 242.966 286.793 242.966 286.46V280.273ZM249.759 286.286V282.455H251.037V289H249.784V287.866H249.716C249.566 288.216 249.324 288.507 248.992 288.74C248.662 288.97 248.252 289.085 247.76 289.085C247.34 289.085 246.968 288.993 246.644 288.808C246.323 288.621 246.07 288.344 245.885 287.977C245.703 287.611 245.612 287.158 245.612 286.618V282.455H246.887V286.464C246.887 286.911 247.01 287.266 247.257 287.53C247.504 287.794 247.825 287.926 248.22 287.926C248.459 287.926 248.696 287.866 248.932 287.747C249.171 287.628 249.368 287.447 249.524 287.206C249.683 286.964 249.762 286.658 249.759 286.286ZM253.543 280.273V289H252.269V280.273H253.543Z" fill="#657180"/>
<path d="M277.723 289L281.533 281.466V281.402H277.126V280.273H282.896V281.44L279.099 289H277.723ZM287.239 279.864L284.426 290.312H283.289L286.101 279.864H287.239ZM290.705 289.119C290.171 289.119 289.691 289.017 289.265 288.812C288.841 288.605 288.503 288.321 288.25 287.96C287.998 287.599 287.863 287.188 287.846 286.724H289.124C289.155 287.099 289.321 287.408 289.623 287.649C289.924 287.891 290.285 288.011 290.705 288.011C291.04 288.011 291.337 287.935 291.596 287.781C291.857 287.625 292.062 287.411 292.209 287.138C292.36 286.865 292.435 286.554 292.435 286.205C292.435 285.849 292.358 285.533 292.205 285.254C292.052 284.976 291.84 284.757 291.57 284.598C291.303 284.439 290.996 284.358 290.65 284.355C290.385 284.355 290.12 284.401 289.853 284.491C289.586 284.582 289.37 284.702 289.205 284.849L287.999 284.67L288.489 280.273H293.287V281.402H289.584L289.307 283.844H289.358C289.529 283.679 289.755 283.541 290.036 283.43C290.32 283.32 290.624 283.264 290.948 283.264C291.479 283.264 291.952 283.391 292.367 283.643C292.785 283.896 293.113 284.241 293.351 284.679C293.593 285.114 293.712 285.614 293.709 286.179C293.712 286.744 293.584 287.249 293.326 287.692C293.07 288.135 292.715 288.484 292.26 288.74C291.809 288.993 291.29 289.119 290.705 289.119Z" fill="#657180"/>
<path d="M316.629 289L320.439 281.466V281.402H316.033V280.273H321.802V281.44L318.006 289H316.629ZM326.145 279.864L323.333 290.312H322.195L325.007 279.864H326.145ZM329.777 289.119C329.388 289.114 329.005 289.043 328.627 288.906C328.252 288.77 327.911 288.543 327.604 288.224C327.297 287.906 327.052 287.479 326.867 286.942C326.685 286.405 326.594 285.734 326.594 284.93C326.594 284.169 326.67 283.493 326.82 282.902C326.973 282.311 327.194 281.812 327.481 281.406C327.768 280.997 328.114 280.686 328.52 280.473C328.927 280.26 329.383 280.153 329.888 280.153C330.408 280.153 330.87 280.256 331.273 280.46C331.677 280.665 332.003 280.947 332.253 281.308C332.506 281.669 332.667 282.08 332.735 282.54H331.435C331.347 282.176 331.172 281.879 330.911 281.649C330.65 281.419 330.309 281.304 329.888 281.304C329.249 281.304 328.75 281.582 328.393 282.139C328.037 282.696 327.858 283.47 327.856 284.462H327.92C328.07 284.214 328.255 284.004 328.473 283.831C328.695 283.655 328.942 283.52 329.215 283.426C329.491 283.33 329.78 283.281 330.084 283.281C330.59 283.281 331.047 283.405 331.456 283.652C331.868 283.896 332.196 284.234 332.441 284.666C332.685 285.098 332.807 285.592 332.807 286.149C332.807 286.706 332.681 287.21 332.428 287.662C332.178 288.114 331.826 288.472 331.371 288.736C330.917 288.997 330.385 289.125 329.777 289.119ZM329.773 288.011C330.108 288.011 330.408 287.929 330.672 287.764C330.937 287.599 331.145 287.378 331.299 287.099C331.452 286.821 331.529 286.51 331.529 286.166C331.529 285.831 331.454 285.526 331.303 285.25C331.155 284.974 330.951 284.756 330.689 284.594C330.431 284.432 330.135 284.351 329.803 284.351C329.55 284.351 329.316 284.399 329.1 284.496C328.887 284.592 328.699 284.726 328.537 284.896C328.375 285.067 328.248 285.263 328.154 285.484C328.063 285.703 328.018 285.935 328.018 286.179C328.018 286.506 328.093 286.808 328.243 287.087C328.397 287.365 328.606 287.589 328.87 287.76C329.137 287.928 329.438 288.011 329.773 288.011Z" fill="#657180"/>
<path d="M355.969 289L359.779 281.466V281.402H355.372V280.273H361.142V281.44L357.345 289H355.969ZM365.485 279.864L362.673 290.312H361.535L364.347 279.864H365.485ZM366.364 289L370.174 281.466V281.402H365.768V280.273H371.538V281.44L367.741 289H366.364Z" fill="#657180"/>
<path d="M394.653 289L398.462 281.466V281.402H394.056V280.273H399.826V281.44L396.029 289H394.653ZM404.169 279.864L401.356 290.312H400.218L403.031 279.864H404.169ZM407.703 289.119C407.092 289.119 406.552 289.014 406.084 288.804C405.618 288.594 405.253 288.304 404.988 287.935C404.724 287.565 404.594 287.145 404.596 286.673C404.594 286.304 404.669 285.964 404.822 285.655C404.978 285.342 405.19 285.082 405.457 284.875C405.724 284.665 406.022 284.531 406.352 284.474V284.423C405.917 284.318 405.569 284.085 405.308 283.724C405.047 283.364 404.917 282.949 404.92 282.48C404.917 282.034 405.035 281.636 405.274 281.287C405.515 280.935 405.846 280.658 406.267 280.456C406.687 280.254 407.166 280.153 407.703 280.153C408.234 280.153 408.709 280.256 409.126 280.46C409.547 280.662 409.878 280.939 410.119 281.291C410.361 281.641 410.483 282.037 410.486 282.48C410.483 282.949 410.349 283.364 410.085 283.724C409.821 284.085 409.477 284.318 409.054 284.423V284.474C409.38 284.531 409.674 284.665 409.936 284.875C410.2 285.082 410.41 285.342 410.567 285.655C410.726 285.964 410.807 286.304 410.809 286.673C410.807 287.145 410.673 287.565 410.409 287.935C410.145 288.304 409.778 288.594 409.309 288.804C408.844 289.014 408.308 289.119 407.703 289.119ZM407.703 288.041C408.064 288.041 408.376 287.982 408.64 287.862C408.905 287.74 409.109 287.571 409.254 287.355C409.399 287.136 409.473 286.881 409.476 286.588C409.473 286.284 409.393 286.016 409.237 285.783C409.084 285.55 408.875 285.366 408.611 285.233C408.346 285.099 408.044 285.033 407.703 285.033C407.359 285.033 407.054 285.099 406.787 285.233C406.52 285.366 406.309 285.55 406.156 285.783C406.003 286.016 405.927 286.284 405.93 286.588C405.927 286.881 405.997 287.136 406.139 287.355C406.284 287.571 406.49 287.74 406.757 287.862C407.024 287.982 407.339 288.041 407.703 288.041ZM407.703 283.98C407.993 283.98 408.25 283.922 408.474 283.805C408.699 283.689 408.875 283.527 409.003 283.32C409.133 283.112 409.2 282.869 409.203 282.591C409.2 282.318 409.135 282.08 409.007 281.875C408.882 281.67 408.707 281.513 408.483 281.402C408.258 281.288 407.998 281.232 407.703 281.232C407.402 281.232 407.138 281.288 406.91 281.402C406.686 281.513 406.511 281.67 406.386 281.875C406.261 282.08 406.2 282.318 406.203 282.591C406.2 282.869 406.263 283.112 406.39 283.32C406.518 283.527 406.694 283.689 406.919 283.805C407.146 283.922 407.407 283.98 407.703 283.98Z" fill="#657180"/>
<path d="M433.629 289L437.439 281.466V281.402H433.033V280.273H438.802V281.44L435.006 289H433.629ZM443.145 279.864L440.333 290.312H439.195L442.007 279.864H443.145ZM446.633 280.153C447.022 280.156 447.405 280.227 447.783 280.366C448.161 280.506 448.502 280.733 448.806 281.048C449.113 281.364 449.357 281.79 449.539 282.327C449.723 282.861 449.817 283.526 449.82 284.321C449.82 285.085 449.743 285.766 449.59 286.362C449.437 286.956 449.216 287.457 448.929 287.866C448.645 288.276 448.3 288.587 447.894 288.8C447.488 289.013 447.03 289.119 446.522 289.119C446.002 289.119 445.54 289.017 445.137 288.812C444.733 288.608 444.405 288.325 444.152 287.964C443.9 287.601 443.742 287.183 443.679 286.712H444.979C445.064 287.087 445.238 287.391 445.499 287.624C445.763 287.854 446.104 287.969 446.522 287.969C447.161 287.969 447.66 287.69 448.018 287.134C448.375 286.574 448.556 285.793 448.559 284.79H448.491C448.343 285.034 448.158 285.244 447.937 285.42C447.718 285.597 447.472 285.733 447.199 285.83C446.927 285.926 446.635 285.974 446.326 285.974C445.823 285.974 445.366 285.851 444.954 285.604C444.542 285.357 444.214 285.017 443.969 284.585C443.725 284.153 443.603 283.661 443.603 283.107C443.603 282.555 443.728 282.055 443.978 281.607C444.231 281.158 444.583 280.803 445.035 280.541C445.489 280.277 446.022 280.148 446.633 280.153ZM446.637 281.261C446.304 281.261 446.005 281.344 445.738 281.509C445.473 281.67 445.265 281.891 445.111 282.169C444.958 282.445 444.881 282.751 444.881 283.089C444.881 283.428 444.955 283.734 445.103 284.01C445.253 284.283 445.458 284.5 445.716 284.662C445.978 284.821 446.276 284.901 446.611 284.901C446.861 284.901 447.094 284.852 447.31 284.756C447.526 284.659 447.715 284.526 447.877 284.355C448.039 284.182 448.165 283.986 448.256 283.767C448.347 283.548 448.393 283.318 448.393 283.077C448.393 282.756 448.316 282.457 448.162 282.182C448.012 281.906 447.804 281.685 447.54 281.517C447.276 281.347 446.975 281.261 446.637 281.261Z" fill="#657180"/>
<path d="M469.975 289L473.784 281.466V281.402H469.378V280.273H475.148V281.44L471.351 289H469.975ZM479.491 279.864L476.678 290.312H475.54L478.353 279.864H479.491ZM483.387 280.273V289H482.066V281.594H482.015L479.927 282.957V281.696L482.104 280.273H483.387ZM488.306 289.145C487.633 289.142 487.058 288.964 486.58 288.612C486.103 288.26 485.738 287.747 485.485 287.074C485.232 286.401 485.106 285.589 485.106 284.641C485.106 283.695 485.232 282.886 485.485 282.216C485.741 281.545 486.107 281.034 486.585 280.682C487.065 280.33 487.639 280.153 488.306 280.153C488.974 280.153 489.546 280.331 490.024 280.686C490.501 281.038 490.866 281.55 491.119 282.22C491.374 282.888 491.502 283.695 491.502 284.641C491.502 285.592 491.376 286.405 491.123 287.078C490.87 287.749 490.505 288.261 490.028 288.616C489.551 288.969 488.977 289.145 488.306 289.145ZM488.306 288.007C488.897 288.007 489.359 287.719 489.691 287.142C490.026 286.565 490.194 285.732 490.194 284.641C490.194 283.916 490.117 283.304 489.964 282.804C489.813 282.301 489.596 281.92 489.312 281.662C489.031 281.401 488.695 281.27 488.306 281.27C487.718 281.27 487.257 281.56 486.921 282.139C486.586 282.719 486.417 283.553 486.414 284.641C486.414 285.368 486.49 285.983 486.64 286.486C486.793 286.986 487.011 287.365 487.292 287.624C487.573 287.879 487.911 288.007 488.306 288.007Z" fill="#657180"/>
<path d="M510.012 289L513.821 281.466V281.402H509.415V280.273H515.185V281.44L511.388 289H510.012ZM519.528 279.864L516.715 290.312H515.578L518.39 279.864H519.528ZM523.424 280.273V289H522.103V281.594H522.052L519.964 282.957V281.696L522.142 280.273H523.424ZM528.616 280.273V289H527.295V281.594H527.244L525.156 282.957V281.696L527.333 280.273H528.616Z" fill="#657180"/>
<rect x="448" y="96" width="89" height="26" rx="6" fill="#ED1F24"/>
<path d="M456.938 114V104.2H460.438C461.119 104.2 461.717 104.312 462.23 104.536C462.743 104.751 463.145 105.073 463.434 105.502C463.723 105.931 463.868 106.459 463.868 107.084C463.868 107.709 463.719 108.241 463.42 108.68C463.131 109.109 462.729 109.436 462.216 109.66C461.703 109.875 461.11 109.982 460.438 109.982H458.534V114H456.938ZM458.534 108.624H460.396C461.077 108.624 461.553 108.489 461.824 108.218C462.104 107.938 462.244 107.56 462.244 107.084C462.244 106.617 462.104 106.244 461.824 105.964C461.553 105.684 461.077 105.544 460.396 105.544H458.534V108.624ZM467.519 114V105.544H464.635V104.2H471.985V105.544H469.101V114H467.519ZM471.593 114L475.177 104.2H476.941L480.525 114H478.845L478.033 111.676H474.071L473.245 114H471.593ZM474.533 110.402H477.585L476.045 106.062L474.533 110.402ZM488.269 114.168C487.597 114.168 486.985 114.051 486.435 113.818C485.884 113.575 485.445 113.225 485.119 112.768C484.801 112.301 484.638 111.727 484.629 111.046H486.295C486.304 111.569 486.486 111.998 486.841 112.334C487.195 112.661 487.667 112.824 488.255 112.824C488.777 112.824 489.197 112.703 489.515 112.46C489.832 112.217 489.991 111.877 489.991 111.438C489.991 111.186 489.949 110.976 489.865 110.808C489.781 110.631 489.641 110.477 489.445 110.346C489.249 110.206 488.987 110.075 488.661 109.954C488.334 109.823 487.919 109.674 487.415 109.506C486.827 109.31 486.346 109.086 485.973 108.834C485.599 108.573 485.324 108.274 485.147 107.938C484.979 107.593 484.895 107.21 484.895 106.79C484.895 106.193 485.035 105.689 485.315 105.278C485.604 104.867 485.991 104.559 486.477 104.354C486.971 104.139 487.517 104.032 488.115 104.032C488.721 104.032 489.267 104.139 489.753 104.354C490.238 104.569 490.63 104.886 490.929 105.306C491.227 105.717 491.381 106.221 491.391 106.818H489.697C489.697 106.417 489.547 106.076 489.249 105.796C488.95 105.516 488.553 105.376 488.059 105.376C487.639 105.367 487.279 105.474 486.981 105.698C486.691 105.922 486.547 106.249 486.547 106.678C486.547 106.977 486.64 107.224 486.827 107.42C487.023 107.616 487.298 107.789 487.653 107.938C488.007 108.087 488.437 108.251 488.941 108.428C489.249 108.531 489.561 108.652 489.879 108.792C490.205 108.932 490.499 109.114 490.761 109.338C491.031 109.553 491.251 109.823 491.419 110.15C491.587 110.467 491.671 110.864 491.671 111.34C491.671 111.928 491.517 112.437 491.209 112.866C490.91 113.286 490.504 113.608 489.991 113.832C489.477 114.056 488.903 114.168 488.269 114.168ZM493.868 105.95C493.579 105.95 493.331 105.847 493.126 105.642C492.921 105.437 492.818 105.189 492.818 104.9C492.818 104.611 492.921 104.368 493.126 104.172C493.331 103.967 493.579 103.864 493.868 103.864C494.157 103.864 494.405 103.967 494.61 104.172C494.815 104.368 494.918 104.611 494.918 104.9C494.918 105.189 494.815 105.437 494.61 105.642C494.405 105.847 494.157 105.95 493.868 105.95ZM493.07 114V107.056H494.666V114H493.07ZM499.153 117.248C498.547 117.248 497.991 117.178 497.487 117.038C496.983 116.898 496.577 116.669 496.269 116.352C495.971 116.035 495.821 115.615 495.821 115.092C495.821 114.747 495.896 114.453 496.045 114.21C496.204 113.967 496.428 113.767 496.717 113.608C496.484 113.468 496.302 113.295 496.171 113.09C496.041 112.875 495.975 112.633 495.975 112.362C495.975 111.765 496.255 111.298 496.815 110.962C496.61 110.747 496.451 110.505 496.339 110.234C496.237 109.963 496.185 109.674 496.185 109.366C496.185 108.853 496.302 108.414 496.535 108.05C496.778 107.677 497.109 107.392 497.529 107.196C497.959 106.991 498.449 106.888 498.999 106.888C499.391 106.888 499.76 106.944 500.105 107.056H502.555V108.288H501.547C501.622 108.456 501.683 108.629 501.729 108.806C501.785 108.983 501.813 109.17 501.813 109.366C501.813 109.861 501.687 110.295 501.435 110.668C501.183 111.041 500.847 111.331 500.427 111.536C500.007 111.732 499.531 111.83 498.999 111.83C498.757 111.83 498.533 111.807 498.327 111.76C498.122 111.713 497.921 111.643 497.725 111.55C497.511 111.662 497.403 111.835 497.403 112.068C497.403 112.497 497.763 112.712 498.481 112.712H499.713C500.264 112.712 500.735 112.787 501.127 112.936C501.529 113.076 501.837 113.309 502.051 113.636C502.266 113.953 502.373 114.364 502.373 114.868C502.373 115.372 502.224 115.801 501.925 116.156C501.636 116.511 501.244 116.781 500.749 116.968C500.264 117.155 499.732 117.248 499.153 117.248ZM499.139 115.988C499.625 115.988 500.035 115.904 500.371 115.736C500.717 115.568 500.889 115.316 500.889 114.98C500.889 114.345 500.469 114.028 499.629 114.028H498.565C498.164 114.028 497.851 114.107 497.627 114.266C497.413 114.434 497.305 114.672 497.305 114.98C497.305 115.232 497.389 115.428 497.557 115.568C497.725 115.717 497.949 115.825 498.229 115.89C498.509 115.955 498.813 115.988 499.139 115.988ZM498.971 110.57C499.373 110.57 499.699 110.458 499.951 110.234C500.213 110.01 500.343 109.721 500.343 109.366C500.343 109.011 500.213 108.722 499.951 108.498C499.699 108.265 499.373 108.148 498.971 108.148C498.579 108.148 498.257 108.265 498.005 108.498C497.763 108.722 497.641 109.011 497.641 109.366C497.641 109.721 497.758 110.01 497.991 110.234C498.234 110.458 498.561 110.57 498.971 110.57ZM503.582 114V107.056H505.122L505.15 108.008C505.383 107.644 505.705 107.369 506.116 107.182C506.527 106.986 506.956 106.888 507.404 106.888C508.216 106.888 508.874 107.145 509.378 107.658C509.882 108.171 510.134 108.927 510.134 109.926V114H508.566V110.122C508.566 109.534 508.426 109.072 508.146 108.736C507.866 108.4 507.455 108.232 506.914 108.232C506.373 108.232 505.943 108.414 505.626 108.778C505.318 109.133 505.164 109.618 505.164 110.234V114H503.582ZM513.696 114.168C513.266 114.168 512.865 114.089 512.492 113.93C512.128 113.762 511.834 113.519 511.61 113.202C511.395 112.885 511.288 112.507 511.288 112.068C511.288 111.545 511.418 111.121 511.68 110.794C511.941 110.467 512.296 110.229 512.744 110.08C513.192 109.921 513.686 109.842 514.228 109.842H515.964C515.964 109.469 515.903 109.165 515.782 108.932C515.66 108.689 515.492 108.512 515.278 108.4C515.063 108.279 514.811 108.218 514.522 108.218C514.148 108.218 513.822 108.302 513.542 108.47C513.262 108.638 513.089 108.913 513.024 109.296H511.428C511.474 108.792 511.642 108.363 511.932 108.008C512.23 107.644 512.608 107.369 513.066 107.182C513.523 106.986 514.013 106.888 514.536 106.888C515.208 106.888 515.763 107.014 516.202 107.266C516.65 107.509 516.986 107.849 517.21 108.288C517.443 108.727 517.56 109.235 517.56 109.814V111.928C517.569 112.18 517.63 112.362 517.742 112.474C517.863 112.586 518.05 112.647 518.302 112.656V114C517.91 114 517.574 113.958 517.294 113.874C517.014 113.79 516.78 113.664 516.594 113.496C516.416 113.328 516.272 113.109 516.16 112.838C515.936 113.211 515.604 113.529 515.166 113.79C514.736 114.042 514.246 114.168 513.696 114.168ZM514.102 112.88C514.466 112.88 514.783 112.796 515.054 112.628C515.334 112.451 515.553 112.217 515.712 111.928C515.88 111.629 515.964 111.303 515.964 110.948V110.906H514.34C514.097 110.906 513.864 110.939 513.64 111.004C513.416 111.069 513.238 111.177 513.108 111.326C512.977 111.466 512.912 111.662 512.912 111.914C512.912 112.25 513.028 112.497 513.262 112.656C513.495 112.805 513.775 112.88 514.102 112.88ZM519.346 114V104.2H520.928V114H519.346ZM525.208 114.168C524.676 114.168 524.181 114.075 523.724 113.888C523.276 113.692 522.907 113.417 522.618 113.062C522.338 112.707 522.179 112.292 522.142 111.816H523.738C523.794 112.143 523.952 112.409 524.214 112.614C524.484 112.81 524.811 112.908 525.194 112.908C525.539 112.908 525.824 112.833 526.048 112.684C526.281 112.535 526.398 112.329 526.398 112.068C526.398 111.844 526.318 111.671 526.16 111.55C526.001 111.419 525.805 111.321 525.572 111.256C525.338 111.181 525.096 111.116 524.844 111.06C524.405 110.957 523.994 110.831 523.612 110.682C523.238 110.533 522.935 110.323 522.702 110.052C522.468 109.781 522.352 109.427 522.352 108.988C522.352 108.549 522.473 108.176 522.716 107.868C522.958 107.551 523.28 107.308 523.682 107.14C524.092 106.972 524.55 106.888 525.054 106.888C525.819 106.888 526.454 107.079 526.958 107.462C527.471 107.845 527.756 108.405 527.812 109.142H526.3C526.262 108.825 526.127 108.582 525.894 108.414C525.67 108.246 525.376 108.162 525.012 108.162C524.694 108.162 524.428 108.223 524.214 108.344C524.008 108.465 523.906 108.661 523.906 108.932C523.906 109.119 523.98 109.273 524.13 109.394C524.288 109.515 524.484 109.618 524.718 109.702C524.96 109.777 525.198 109.842 525.432 109.898C525.908 110.01 526.332 110.141 526.706 110.29C527.079 110.439 527.373 110.649 527.588 110.92C527.812 111.191 527.928 111.559 527.938 112.026C527.938 112.474 527.816 112.857 527.574 113.174C527.331 113.491 527.004 113.739 526.594 113.916C526.183 114.084 525.721 114.168 525.208 114.168Z" fill="white"/>
<path d="M492.118 141.923C491.996 141.872 491.885 141.799 491.793 141.707L487.793 137.707C487.7 137.614 487.626 137.504 487.576 137.383C487.526 137.261 487.5 137.131 487.5 137C487.5 136.744 487.598 136.489 487.793 136.293C488.184 135.903 488.817 135.903 489.207 136.293L491.5 138.586V129C491.5 128.448 491.948 128 492.5 128C493.053 128 493.5 128.448 493.5 129V138.586L495.793 136.293C496.184 135.903 496.817 135.903 497.207 136.293C497.598 136.684 497.598 137.317 497.207 137.707L493.208 141.707C493.116 141.799 493.005 141.872 492.882 141.923C492.637 142.024 492.363 142.024 492.118 141.923Z" fill="white" stroke="#181933" stroke-width="0.6"/>
<defs>
<clipPath id="clip0_656_5815">
<rect width="442" height="245" fill="white" transform="translate(88.0078 24)"/>
</clipPath>
</defs>
</svg>
