<svg width="550" height="302" viewBox="0 0 550 302" fill="none" xmlns="http://www.w3.org/2000/svg">
<rect x="0.5" y="0.5" width="549" height="301" rx="19.5" fill="#151032" stroke="#1D1938"/>
<g opacity="0.8">
<path d="M21.6189 29V28.0455L24.572 24.9858C24.8873 24.6534 25.1473 24.3622 25.3518 24.1122C25.5592 23.8594 25.714 23.6193 25.8163 23.392C25.9186 23.1648 25.9697 22.9233 25.9697 22.6676C25.9697 22.3778 25.9015 22.1278 25.7652 21.9176C25.6288 21.7045 25.4427 21.5412 25.2069 21.4276C24.9711 21.3111 24.7055 21.2528 24.4101 21.2528C24.0976 21.2528 23.8248 21.3168 23.5919 21.4446C23.3589 21.5724 23.1799 21.7528 23.0549 21.9858C22.9299 22.2187 22.8674 22.4915 22.8674 22.804H21.6103C21.6103 22.2727 21.7325 21.8082 21.9768 21.4105C22.2211 21.0128 22.5564 20.7045 22.9825 20.4858C23.4086 20.2642 23.893 20.1534 24.4356 20.1534C24.9839 20.1534 25.4669 20.2628 25.8845 20.4815C26.3049 20.6974 26.6331 20.9929 26.8689 21.3679C27.1047 21.7401 27.2226 22.1605 27.2226 22.6293C27.2226 22.9531 27.1615 23.2699 27.0393 23.5795C26.92 23.8892 26.7112 24.2344 26.4129 24.6151C26.1146 24.9929 25.6998 25.4517 25.1686 25.9915L23.4342 27.8068V27.8707H27.3632V29H21.6189ZM28.1275 27.2955V26.2301L31.8988 20.2727H32.7383V21.8409H32.2056L29.5082 26.1108V26.179H34.6772V27.2955H28.1275ZM32.2653 29V26.9716L32.2738 26.4858V20.2727H33.5224V29H32.2653ZM36.2107 29.081C35.9778 29.081 35.7775 28.9986 35.6099 28.8338C35.4422 28.6662 35.3584 28.4645 35.3584 28.2287C35.3584 27.9957 35.4422 27.7969 35.6099 27.6321C35.7775 27.4645 35.9778 27.3807 36.2107 27.3807C36.4437 27.3807 36.6439 27.4645 36.8116 27.6321C36.9792 27.7969 37.063 27.9957 37.063 28.2287C37.063 28.3849 37.0232 28.5284 36.9437 28.6591C36.867 28.7869 36.7647 28.8892 36.6368 28.9659C36.509 29.0426 36.367 29.081 36.2107 29.081ZM41.0127 29.1193C40.4786 29.1193 39.9985 29.017 39.5723 28.8125C39.149 28.6051 38.811 28.321 38.5581 27.9602C38.3053 27.5994 38.1703 27.1875 38.1533 26.7244H39.4317C39.463 27.0994 39.6291 27.4077 39.9303 27.6491C40.2314 27.8906 40.5922 28.0114 41.0127 28.0114C41.3479 28.0114 41.6448 27.9347 41.9033 27.7812C42.1647 27.625 42.3692 27.4105 42.5169 27.1378C42.6675 26.8651 42.7428 26.554 42.7428 26.2045C42.7428 25.8494 42.6661 25.5327 42.5127 25.2543C42.3593 24.9759 42.1476 24.7571 41.8777 24.598C41.6107 24.4389 41.3039 24.358 40.9573 24.3551C40.6931 24.3551 40.4274 24.4006 40.1604 24.4915C39.8934 24.5824 39.6774 24.7017 39.5127 24.8494L38.3067 24.6705L38.7968 20.2727H43.5951V21.402H39.8919L39.6149 23.8438H39.6661C39.8365 23.679 40.0624 23.5412 40.3436 23.4304C40.6277 23.3196 40.9317 23.2642 41.2556 23.2642C41.7868 23.2642 42.2598 23.3906 42.6746 23.6435C43.0922 23.8963 43.4203 24.2415 43.659 24.679C43.9005 25.1136 44.0198 25.6136 44.0169 26.179C44.0198 26.7443 43.8919 27.2486 43.6334 27.6918C43.3777 28.1349 43.0226 28.4844 42.5681 28.7401C42.1164 28.9929 41.5979 29.1193 41.0127 29.1193ZM48.1317 29.1449C47.4585 29.142 46.8832 28.9645 46.4059 28.6122C45.9286 28.2599 45.5636 27.7472 45.3107 27.0739C45.0579 26.4006 44.9315 25.5895 44.9315 24.6406C44.9315 23.6946 45.0579 22.8864 45.3107 22.2159C45.5664 21.5455 45.9329 21.0341 46.4102 20.6818C46.8903 20.3295 47.4641 20.1534 48.1317 20.1534C48.7994 20.1534 49.3718 20.331 49.8491 20.6861C50.3263 21.0384 50.6914 21.5497 50.9442 22.2202C51.1999 22.8878 51.3278 23.6946 51.3278 24.6406C51.3278 25.5923 51.2013 26.4048 50.9485 27.0781C50.6957 27.7486 50.3306 28.2614 49.8533 28.6165C49.3761 28.9688 48.8022 29.1449 48.1317 29.1449ZM48.1317 28.0071C48.7227 28.0071 49.1843 27.7188 49.5167 27.142C49.8519 26.5653 50.0195 25.7315 50.0195 24.6406C50.0195 23.9162 49.9428 23.304 49.7894 22.804C49.6388 22.3011 49.4215 21.9205 49.1374 21.6619C48.8562 21.4006 48.521 21.2699 48.1317 21.2699C47.5437 21.2699 47.082 21.5597 46.7468 22.1392C46.4116 22.7187 46.2425 23.5526 46.2397 24.6406C46.2397 25.3679 46.315 25.983 46.4656 26.4858C46.619 26.9858 46.8363 27.3651 47.1175 27.6236C47.3988 27.8793 47.7369 28.0071 48.1317 28.0071Z" fill="#657180"/>
<g opacity="0.2">
<rect x="67.25" y="24.75" width="462.5" height="0.5" stroke="#657180" stroke-width="0.5" stroke-dasharray="6 4"/>
</g>
</g>
<g opacity="0.8">
<path d="M21.49 65V64.0455L24.4431 60.9858C24.7584 60.6534 25.0184 60.3622 25.2229 60.1122C25.4303 59.8594 25.5851 59.6193 25.6874 59.392C25.7897 59.1648 25.8408 58.9233 25.8408 58.6676C25.8408 58.3778 25.7726 58.1278 25.6363 57.9176C25.4999 57.7045 25.3138 57.5412 25.078 57.4276C24.8422 57.3111 24.5766 57.2528 24.2812 57.2528C23.9687 57.2528 23.6959 57.3168 23.463 57.4446C23.23 57.5724 23.051 57.7528 22.926 57.9858C22.801 58.2187 22.7385 58.4915 22.7385 58.804H21.4814C21.4814 58.2727 21.6036 57.8082 21.8479 57.4105C22.0922 57.0128 22.4275 56.7045 22.8536 56.4858C23.2797 56.2642 23.7641 56.1534 24.3067 56.1534C24.855 56.1534 25.338 56.2628 25.7556 56.4815C26.176 56.6974 26.5042 56.9929 26.74 57.3679C26.9758 57.7401 27.0937 58.1605 27.0937 58.6293C27.0937 58.9531 27.0326 59.2699 26.9104 59.5795C26.7911 59.8892 26.5823 60.2344 26.284 60.6151C25.9857 60.9929 25.5709 61.4517 25.0397 61.9915L23.3053 63.8068V63.8707H27.2343V65H21.49ZM27.9986 63.2955V62.2301L31.7699 56.2727H32.6094V57.8409H32.0767L29.3793 62.1108V62.179H34.5483V63.2955H27.9986ZM32.1364 65V62.9716L32.1449 62.4858V56.2727H33.3935V65H32.1364ZM36.0818 65.081C35.8488 65.081 35.6486 64.9986 35.481 64.8338C35.3133 64.6662 35.2295 64.4645 35.2295 64.2287C35.2295 63.9957 35.3133 63.7969 35.481 63.6321C35.6486 63.4645 35.8488 63.3807 36.0818 63.3807C36.3148 63.3807 36.515 63.4645 36.6827 63.6321C36.8503 63.7969 36.9341 63.9957 36.9341 64.2287C36.9341 64.3849 36.8943 64.5284 36.8148 64.6591C36.7381 64.7869 36.6358 64.8892 36.5079 64.9659C36.3801 65.0426 36.2381 65.081 36.0818 65.081ZM40.8657 65.1449C40.1924 65.142 39.6171 64.9645 39.1398 64.6122C38.6625 64.2599 38.2975 63.7472 38.0446 63.0739C37.7918 62.4006 37.6654 61.5895 37.6654 60.6406C37.6654 59.6946 37.7918 58.8864 38.0446 58.2159C38.3003 57.5455 38.6668 57.0341 39.1441 56.6818C39.6242 56.3295 40.198 56.1534 40.8657 56.1534C41.5333 56.1534 42.1057 56.331 42.583 56.6861C43.0603 57.0384 43.4253 57.5497 43.6782 58.2202C43.9338 58.8878 44.0617 59.6946 44.0617 60.6406C44.0617 61.5923 43.9353 62.4048 43.6824 63.0781C43.4296 63.7486 43.0645 64.2614 42.5872 64.6165C42.11 64.9688 41.5361 65.1449 40.8657 65.1449ZM40.8657 64.0071C41.4566 64.0071 41.9182 63.7188 42.2506 63.142C42.5858 62.5653 42.7534 61.7315 42.7534 60.6406C42.7534 59.9162 42.6767 59.304 42.5233 58.804C42.3728 58.3011 42.1554 57.9205 41.8713 57.6619C41.5901 57.4006 41.2549 57.2699 40.8657 57.2699C40.2776 57.2699 39.8159 57.5597 39.4807 58.1392C39.1455 58.7187 38.9764 59.5526 38.9736 60.6406C38.9736 61.3679 39.0489 61.983 39.1995 62.4858C39.3529 62.9858 39.5702 63.3651 39.8514 63.6236C40.1327 63.8793 40.4708 64.0071 40.8657 64.0071ZM48.1317 65.1449C47.4585 65.142 46.8832 64.9645 46.4059 64.6122C45.9286 64.2599 45.5636 63.7472 45.3107 63.0739C45.0579 62.4006 44.9315 61.5895 44.9315 60.6406C44.9315 59.6946 45.0579 58.8864 45.3107 58.2159C45.5664 57.5455 45.9329 57.0341 46.4102 56.6818C46.8903 56.3295 47.4641 56.1534 48.1317 56.1534C48.7994 56.1534 49.3718 56.331 49.8491 56.6861C50.3263 57.0384 50.6914 57.5497 50.9442 58.2202C51.1999 58.8878 51.3278 59.6946 51.3278 60.6406C51.3278 61.5923 51.2013 62.4048 50.9485 63.0781C50.6957 63.7486 50.3306 64.2614 49.8533 64.6165C49.3761 64.9688 48.8022 65.1449 48.1317 65.1449ZM48.1317 64.0071C48.7227 64.0071 49.1843 63.7188 49.5167 63.142C49.8519 62.5653 50.0195 61.7315 50.0195 60.6406C50.0195 59.9162 49.9428 59.304 49.7894 58.804C49.6388 58.3011 49.4215 57.9205 49.1374 57.6619C48.8562 57.4006 48.521 57.2699 48.1317 57.2699C47.5437 57.2699 47.082 57.5597 46.7468 58.1392C46.4116 58.7187 46.2425 59.5526 46.2397 60.6406C46.2397 61.3679 46.315 61.983 46.4656 62.4858C46.619 62.9858 46.8363 63.3651 47.1175 63.6236C47.3988 63.8793 47.7369 64.0071 48.1317 64.0071Z" fill="#657180"/>
<g opacity="0.2">
<rect x="67.25" y="60.75" width="462.5" height="0.5" stroke="#657180" stroke-width="0.5" stroke-dasharray="6 4"/>
</g>
</g>
<g opacity="0.8">
<path d="M21.4782 101V100.045L24.4314 96.9858C24.7467 96.6534 25.0066 96.3622 25.2112 96.1122C25.4186 95.8594 25.5734 95.6193 25.6757 95.392C25.778 95.1648 25.8291 94.9233 25.8291 94.6676C25.8291 94.3778 25.7609 94.1278 25.6245 93.9176C25.4882 93.7045 25.3021 93.5412 25.0663 93.4276C24.8305 93.3111 24.5649 93.2528 24.2694 93.2528C23.9569 93.2528 23.6842 93.3168 23.4513 93.4446C23.2183 93.5724 23.0393 93.7528 22.9143 93.9858C22.7893 94.2187 22.7268 94.4915 22.7268 94.804H21.4697C21.4697 94.2727 21.5919 93.8082 21.8362 93.4105C22.0805 93.0128 22.4157 92.7045 22.8419 92.4858C23.268 92.2642 23.7524 92.1534 24.295 92.1534C24.8433 92.1534 25.3263 92.2628 25.7439 92.4815C26.1643 92.6974 26.4924 92.9929 26.7282 93.3679C26.964 93.7401 27.0819 94.1605 27.0819 94.6293C27.0819 94.9531 27.0209 95.2699 26.8987 95.5795C26.7794 95.8892 26.5706 96.2344 26.2723 96.6151C25.974 96.9929 25.5592 97.4517 25.028 97.9915L23.2936 99.8068V99.8707H27.2226V101H21.4782ZM31.396 101.119C30.8107 101.119 30.288 101.018 29.8278 100.817C29.3704 100.615 29.0082 100.335 28.7411 99.9773C28.4769 99.6165 28.3349 99.1989 28.315 98.7244H29.6531C29.6701 98.983 29.7568 99.2074 29.913 99.3977C30.0721 99.5852 30.2795 99.7301 30.5352 99.8324C30.7909 99.9347 31.0749 99.9858 31.3874 99.9858C31.7312 99.9858 32.0352 99.9261 32.2994 99.8068C32.5664 99.6875 32.7752 99.5213 32.9258 99.3082C33.0764 99.0923 33.1516 98.8438 33.1516 98.5625C33.1516 98.2699 33.0764 98.0128 32.9258 97.7912C32.7781 97.5668 32.5607 97.3906 32.2738 97.2628C31.9897 97.1349 31.646 97.071 31.2426 97.071H30.5053V95.9972H31.2426C31.5664 95.9972 31.8505 95.9389 32.0948 95.8224C32.342 95.706 32.5352 95.544 32.6744 95.3366C32.8136 95.1264 32.8832 94.8807 32.8832 94.5994C32.8832 94.3295 32.8221 94.0952 32.6999 93.8963C32.5806 93.6946 32.4102 93.5369 32.1886 93.4233C31.9698 93.3097 31.7113 93.2528 31.413 93.2528C31.1289 93.2528 30.8633 93.3054 30.6161 93.4105C30.3718 93.5128 30.173 93.6605 30.0195 93.8537C29.8661 94.044 29.7838 94.2727 29.7724 94.5398H28.4982C28.5124 94.0682 28.6516 93.6534 28.9159 93.2955C29.1829 92.9375 29.5352 92.6577 29.9727 92.456C30.4102 92.2543 30.896 92.1534 31.4301 92.1534C31.9897 92.1534 32.4727 92.2628 32.8789 92.4815C33.288 92.6974 33.6034 92.9858 33.8249 93.3466C34.0494 93.7074 34.1602 94.1023 34.1573 94.5312C34.1602 95.0199 34.0238 95.4347 33.7482 95.7756C33.4755 96.1165 33.1119 96.3452 32.6573 96.4616V96.5298C33.2369 96.6179 33.6857 96.848 34.0039 97.2202C34.3249 97.5923 34.484 98.054 34.4812 98.6051C34.484 99.0852 34.3505 99.5156 34.0806 99.8963C33.8136 100.277 33.4485 100.577 32.9855 100.795C32.5224 101.011 31.9926 101.119 31.396 101.119ZM36.2107 101.081C35.9778 101.081 35.7775 100.999 35.6099 100.834C35.4422 100.666 35.3584 100.464 35.3584 100.229C35.3584 99.9957 35.4422 99.7969 35.6099 99.6321C35.7775 99.4645 35.9778 99.3807 36.2107 99.3807C36.4437 99.3807 36.6439 99.4645 36.8116 99.6321C36.9792 99.7969 37.063 99.9957 37.063 100.229C37.063 100.385 37.0232 100.528 36.9437 100.659C36.867 100.787 36.7647 100.889 36.6368 100.966C36.509 101.043 36.367 101.081 36.2107 101.081ZM41.0127 101.119C40.4786 101.119 39.9985 101.017 39.5723 100.812C39.149 100.605 38.811 100.321 38.5581 99.9602C38.3053 99.5994 38.1703 99.1875 38.1533 98.7244H39.4317C39.463 99.0994 39.6291 99.4077 39.9303 99.6491C40.2314 99.8906 40.5922 100.011 41.0127 100.011C41.3479 100.011 41.6448 99.9347 41.9033 99.7812C42.1647 99.625 42.3692 99.4105 42.5169 99.1378C42.6675 98.8651 42.7428 98.554 42.7428 98.2045C42.7428 97.8494 42.6661 97.5327 42.5127 97.2543C42.3593 96.9759 42.1476 96.7571 41.8777 96.598C41.6107 96.4389 41.3039 96.358 40.9573 96.3551C40.6931 96.3551 40.4274 96.4006 40.1604 96.4915C39.8934 96.5824 39.6774 96.7017 39.5127 96.8494L38.3067 96.6705L38.7968 92.2727H43.5951V93.402H39.8919L39.6149 95.8438H39.6661C39.8365 95.679 40.0624 95.5412 40.3436 95.4304C40.6277 95.3196 40.9317 95.2642 41.2556 95.2642C41.7868 95.2642 42.2598 95.3906 42.6746 95.6435C43.0922 95.8963 43.4203 96.2415 43.659 96.679C43.9005 97.1136 44.0198 97.6136 44.0169 98.179C44.0198 98.7443 43.8919 99.2486 43.6334 99.6918C43.3777 100.135 43.0226 100.484 42.5681 100.74C42.1164 100.993 41.5979 101.119 41.0127 101.119ZM48.1317 101.145C47.4585 101.142 46.8832 100.964 46.4059 100.612C45.9286 100.26 45.5636 99.7472 45.3107 99.0739C45.0579 98.4006 44.9315 97.5895 44.9315 96.6406C44.9315 95.6946 45.0579 94.8864 45.3107 94.2159C45.5664 93.5455 45.9329 93.0341 46.4102 92.6818C46.8903 92.3295 47.4641 92.1534 48.1317 92.1534C48.7994 92.1534 49.3718 92.331 49.8491 92.6861C50.3263 93.0384 50.6914 93.5497 50.9442 94.2202C51.1999 94.8878 51.3278 95.6946 51.3278 96.6406C51.3278 97.5923 51.2013 98.4048 50.9485 99.0781C50.6957 99.7486 50.3306 100.261 49.8533 100.616C49.3761 100.969 48.8022 101.145 48.1317 101.145ZM48.1317 100.007C48.7227 100.007 49.1843 99.7188 49.5167 99.142C49.8519 98.5653 50.0195 97.7315 50.0195 96.6406C50.0195 95.9162 49.9428 95.304 49.7894 94.804C49.6388 94.3011 49.4215 93.9205 49.1374 93.6619C48.8562 93.4006 48.521 93.2699 48.1317 93.2699C47.5437 93.2699 47.082 93.5597 46.7468 94.1392C46.4116 94.7187 46.2425 95.5526 46.2397 96.6406C46.2397 97.3679 46.315 97.983 46.4656 98.4858C46.619 98.9858 46.8363 99.3651 47.1175 99.6236C47.3988 99.8793 47.7369 100.007 48.1317 100.007Z" fill="#657180"/>
<g opacity="0.2">
<rect x="67.25" y="96.75" width="462.5" height="0.5" stroke="#657180" stroke-width="0.5" stroke-dasharray="6 4"/>
</g>
</g>
<g opacity="0.8">
<path d="M21.3493 137V136.045L24.3025 132.986C24.6178 132.653 24.8777 132.362 25.0823 132.112C25.2897 131.859 25.4445 131.619 25.5468 131.392C25.649 131.165 25.7002 130.923 25.7002 130.668C25.7002 130.378 25.632 130.128 25.4956 129.918C25.3593 129.705 25.1732 129.541 24.9374 129.428C24.7016 129.311 24.436 129.253 24.1405 129.253C23.828 129.253 23.5553 129.317 23.3223 129.445C23.0894 129.572 22.9104 129.753 22.7854 129.986C22.6604 130.219 22.5979 130.491 22.5979 130.804H21.3408C21.3408 130.273 21.463 129.808 21.7073 129.411C21.9516 129.013 22.2868 128.705 22.713 128.486C23.1391 128.264 23.6235 128.153 24.1661 128.153C24.7144 128.153 25.1973 128.263 25.615 128.482C26.0354 128.697 26.3635 128.993 26.5993 129.368C26.8351 129.74 26.953 130.161 26.953 130.629C26.953 130.953 26.8919 131.27 26.7698 131.58C26.6505 131.889 26.4417 132.234 26.1434 132.615C25.8451 132.993 25.4303 133.452 24.899 133.991L23.1647 135.807V135.871H27.0937V137H21.3493ZM31.2671 137.119C30.6818 137.119 30.1591 137.018 29.6989 136.817C29.2415 136.615 28.8793 136.335 28.6122 135.977C28.348 135.616 28.206 135.199 28.1861 134.724H29.5242C29.5412 134.983 29.6279 135.207 29.7841 135.398C29.9432 135.585 30.1506 135.73 30.4063 135.832C30.6619 135.935 30.946 135.986 31.2585 135.986C31.6023 135.986 31.9063 135.926 32.1705 135.807C32.4375 135.687 32.6463 135.521 32.7969 135.308C32.9475 135.092 33.0227 134.844 33.0227 134.562C33.0227 134.27 32.9475 134.013 32.7969 133.791C32.6492 133.567 32.4318 133.391 32.1449 133.263C31.8608 133.135 31.5171 133.071 31.1137 133.071H30.3764V131.997H31.1137C31.4375 131.997 31.7216 131.939 31.9659 131.822C32.2131 131.706 32.4063 131.544 32.5455 131.337C32.6847 131.126 32.7543 130.881 32.7543 130.599C32.7543 130.33 32.6932 130.095 32.571 129.896C32.4517 129.695 32.2813 129.537 32.0597 129.423C31.8409 129.31 31.5824 129.253 31.2841 129.253C31 129.253 30.7344 129.305 30.4872 129.411C30.2429 129.513 30.044 129.661 29.8906 129.854C29.7372 130.044 29.6548 130.273 29.6435 130.54H28.3693C28.3835 130.068 28.5227 129.653 28.7869 129.295C29.054 128.937 29.4063 128.658 29.8438 128.456C30.2813 128.254 30.7671 128.153 31.3012 128.153C31.8608 128.153 32.3438 128.263 32.75 128.482C33.1591 128.697 33.4744 128.986 33.696 129.347C33.9205 129.707 34.0313 130.102 34.0284 130.531C34.0313 131.02 33.8949 131.435 33.6193 131.776C33.3466 132.116 32.983 132.345 32.5284 132.462V132.53C33.108 132.618 33.5568 132.848 33.875 133.22C34.196 133.592 34.3551 134.054 34.3523 134.605C34.3551 135.085 34.2216 135.516 33.9517 135.896C33.6847 136.277 33.3196 136.577 32.8565 136.795C32.3935 137.011 31.8637 137.119 31.2671 137.119ZM36.0818 137.081C35.8488 137.081 35.6486 136.999 35.481 136.834C35.3133 136.666 35.2295 136.464 35.2295 136.229C35.2295 135.996 35.3133 135.797 35.481 135.632C35.6486 135.464 35.8488 135.381 36.0818 135.381C36.3148 135.381 36.515 135.464 36.6827 135.632C36.8503 135.797 36.9341 135.996 36.9341 136.229C36.9341 136.385 36.8943 136.528 36.8148 136.659C36.7381 136.787 36.6358 136.889 36.5079 136.966C36.3801 137.043 36.2381 137.081 36.0818 137.081ZM40.8657 137.145C40.1924 137.142 39.6171 136.964 39.1398 136.612C38.6625 136.26 38.2975 135.747 38.0446 135.074C37.7918 134.401 37.6654 133.589 37.6654 132.641C37.6654 131.695 37.7918 130.886 38.0446 130.216C38.3003 129.545 38.6668 129.034 39.1441 128.682C39.6242 128.33 40.198 128.153 40.8657 128.153C41.5333 128.153 42.1057 128.331 42.583 128.686C43.0603 129.038 43.4253 129.55 43.6782 130.22C43.9338 130.888 44.0617 131.695 44.0617 132.641C44.0617 133.592 43.9353 134.405 43.6824 135.078C43.4296 135.749 43.0645 136.261 42.5872 136.616C42.11 136.969 41.5361 137.145 40.8657 137.145ZM40.8657 136.007C41.4566 136.007 41.9182 135.719 42.2506 135.142C42.5858 134.565 42.7534 133.732 42.7534 132.641C42.7534 131.916 42.6767 131.304 42.5233 130.804C42.3728 130.301 42.1554 129.92 41.8713 129.662C41.5901 129.401 41.2549 129.27 40.8657 129.27C40.2776 129.27 39.8159 129.56 39.4807 130.139C39.1455 130.719 38.9764 131.553 38.9736 132.641C38.9736 133.368 39.0489 133.983 39.1995 134.486C39.3529 134.986 39.5702 135.365 39.8514 135.624C40.1327 135.879 40.4708 136.007 40.8657 136.007ZM48.1317 137.145C47.4585 137.142 46.8832 136.964 46.4059 136.612C45.9286 136.26 45.5636 135.747 45.3107 135.074C45.0579 134.401 44.9315 133.589 44.9315 132.641C44.9315 131.695 45.0579 130.886 45.3107 130.216C45.5664 129.545 45.9329 129.034 46.4102 128.682C46.8903 128.33 47.4641 128.153 48.1317 128.153C48.7994 128.153 49.3718 128.331 49.8491 128.686C50.3263 129.038 50.6914 129.55 50.9442 130.22C51.1999 130.888 51.3278 131.695 51.3278 132.641C51.3278 133.592 51.2013 134.405 50.9485 135.078C50.6957 135.749 50.3306 136.261 49.8533 136.616C49.3761 136.969 48.8022 137.145 48.1317 137.145ZM48.1317 136.007C48.7227 136.007 49.1843 135.719 49.5167 135.142C49.8519 134.565 50.0195 133.732 50.0195 132.641C50.0195 131.916 49.9428 131.304 49.7894 130.804C49.6388 130.301 49.4215 129.92 49.1374 129.662C48.8562 129.401 48.521 129.27 48.1317 129.27C47.5437 129.27 47.082 129.56 46.7468 130.139C46.4116 130.719 46.2425 131.553 46.2397 132.641C46.2397 133.368 46.315 133.983 46.4656 134.486C46.619 134.986 46.8363 135.365 47.1175 135.624C47.3988 135.879 47.7369 136.007 48.1317 136.007Z" fill="#657180"/>
<g opacity="0.2">
<rect x="67.25" y="132.75" width="462.5" height="0.5" stroke="#657180" stroke-width="0.5" stroke-dasharray="6 4"/>
</g>
</g>
<g opacity="0.8">
<path d="M21.5954 173V172.045L24.5486 168.986C24.8639 168.653 25.1238 168.362 25.3284 168.112C25.5358 167.859 25.6906 167.619 25.7929 167.392C25.8951 167.165 25.9463 166.923 25.9463 166.668C25.9463 166.378 25.8781 166.128 25.7417 165.918C25.6054 165.705 25.4193 165.541 25.1835 165.428C24.9477 165.311 24.6821 165.253 24.3866 165.253C24.0741 165.253 23.8014 165.317 23.5684 165.445C23.3355 165.572 23.1565 165.753 23.0315 165.986C22.9065 166.219 22.844 166.491 22.844 166.804H21.5869C21.5869 166.273 21.7091 165.808 21.9534 165.411C22.1977 165.013 22.5329 164.705 22.9591 164.486C23.3852 164.264 23.8696 164.153 24.4122 164.153C24.9605 164.153 25.4434 164.263 25.8611 164.482C26.2815 164.697 26.6096 164.993 26.8454 165.368C27.0812 165.74 27.1991 166.161 27.1991 166.629C27.1991 166.953 27.138 167.27 27.0159 167.58C26.8966 167.889 26.6878 168.234 26.3895 168.615C26.0912 168.993 25.6764 169.452 25.1451 169.991L23.4108 171.807V171.871H27.3397V173H21.5954ZM28.4748 173V172.045L31.4279 168.986C31.7433 168.653 32.0032 168.362 32.2078 168.112C32.4151 167.859 32.57 167.619 32.6722 167.392C32.7745 167.165 32.8257 166.923 32.8257 166.668C32.8257 166.378 32.7575 166.128 32.6211 165.918C32.4847 165.705 32.2987 165.541 32.0629 165.428C31.8271 165.311 31.5614 165.253 31.266 165.253C30.9535 165.253 30.6808 165.317 30.4478 165.445C30.2149 165.572 30.0359 165.753 29.9109 165.986C29.7859 166.219 29.7234 166.491 29.7234 166.804H28.4663C28.4663 166.273 28.5884 165.808 28.8328 165.411C29.0771 165.013 29.4123 164.705 29.8384 164.486C30.2646 164.264 30.7489 164.153 31.2916 164.153C31.8399 164.153 32.3228 164.263 32.7404 164.482C33.1609 164.697 33.489 164.993 33.7248 165.368C33.9606 165.74 34.0785 166.161 34.0785 166.629C34.0785 166.953 34.0174 167.27 33.8953 167.58C33.7759 167.889 33.5671 168.234 33.2688 168.615C32.9705 168.993 32.5558 169.452 32.0245 169.991L30.2901 171.807V171.871H34.2191V173H28.4748ZM36.2107 173.081C35.9778 173.081 35.7775 172.999 35.6099 172.834C35.4422 172.666 35.3584 172.464 35.3584 172.229C35.3584 171.996 35.4422 171.797 35.6099 171.632C35.7775 171.464 35.9778 171.381 36.2107 171.381C36.4437 171.381 36.6439 171.464 36.8116 171.632C36.9792 171.797 37.063 171.996 37.063 172.229C37.063 172.385 37.0232 172.528 36.9437 172.659C36.867 172.787 36.7647 172.889 36.6368 172.966C36.509 173.043 36.367 173.081 36.2107 173.081ZM41.0127 173.119C40.4786 173.119 39.9985 173.017 39.5723 172.812C39.149 172.605 38.811 172.321 38.5581 171.96C38.3053 171.599 38.1703 171.188 38.1533 170.724H39.4317C39.463 171.099 39.6291 171.408 39.9303 171.649C40.2314 171.891 40.5922 172.011 41.0127 172.011C41.3479 172.011 41.6448 171.935 41.9033 171.781C42.1647 171.625 42.3692 171.411 42.5169 171.138C42.6675 170.865 42.7428 170.554 42.7428 170.205C42.7428 169.849 42.6661 169.533 42.5127 169.254C42.3593 168.976 42.1476 168.757 41.8777 168.598C41.6107 168.439 41.3039 168.358 40.9573 168.355C40.6931 168.355 40.4274 168.401 40.1604 168.491C39.8934 168.582 39.6774 168.702 39.5127 168.849L38.3067 168.67L38.7968 164.273H43.5951V165.402H39.8919L39.6149 167.844H39.6661C39.8365 167.679 40.0624 167.541 40.3436 167.43C40.6277 167.32 40.9317 167.264 41.2556 167.264C41.7868 167.264 42.2598 167.391 42.6746 167.643C43.0922 167.896 43.4203 168.241 43.659 168.679C43.9005 169.114 44.0198 169.614 44.0169 170.179C44.0198 170.744 43.8919 171.249 43.6334 171.692C43.3777 172.135 43.0226 172.484 42.5681 172.74C42.1164 172.993 41.5979 173.119 41.0127 173.119ZM48.1317 173.145C47.4585 173.142 46.8832 172.964 46.4059 172.612C45.9286 172.26 45.5636 171.747 45.3107 171.074C45.0579 170.401 44.9315 169.589 44.9315 168.641C44.9315 167.695 45.0579 166.886 45.3107 166.216C45.5664 165.545 45.9329 165.034 46.4102 164.682C46.8903 164.33 47.4641 164.153 48.1317 164.153C48.7994 164.153 49.3718 164.331 49.8491 164.686C50.3263 165.038 50.6914 165.55 50.9442 166.22C51.1999 166.888 51.3278 167.695 51.3278 168.641C51.3278 169.592 51.2013 170.405 50.9485 171.078C50.6957 171.749 50.3306 172.261 49.8533 172.616C49.3761 172.969 48.8022 173.145 48.1317 173.145ZM48.1317 172.007C48.7227 172.007 49.1843 171.719 49.5167 171.142C49.8519 170.565 50.0195 169.732 50.0195 168.641C50.0195 167.916 49.9428 167.304 49.7894 166.804C49.6388 166.301 49.4215 165.92 49.1374 165.662C48.8562 165.401 48.521 165.27 48.1317 165.27C47.5437 165.27 47.082 165.56 46.7468 166.139C46.4116 166.719 46.2425 167.553 46.2397 168.641C46.2397 169.368 46.315 169.983 46.4656 170.486C46.619 170.986 46.8363 171.365 47.1175 171.624C47.3988 171.879 47.7369 172.007 48.1317 172.007Z" fill="#657180"/>
<g opacity="0.2">
<rect x="67.25" y="168.75" width="462.5" height="0.5" stroke="#657180" stroke-width="0.5" stroke-dasharray="6 4"/>
</g>
</g>
<g opacity="0.8">
<path d="M21.4665 209V208.045L24.4196 204.986C24.735 204.653 24.9949 204.362 25.1995 204.112C25.4069 203.859 25.5617 203.619 25.664 203.392C25.7662 203.165 25.8174 202.923 25.8174 202.668C25.8174 202.378 25.7492 202.128 25.6128 201.918C25.4765 201.705 25.2904 201.541 25.0546 201.428C24.8188 201.311 24.5532 201.253 24.2577 201.253C23.9452 201.253 23.6725 201.317 23.4395 201.445C23.2066 201.572 23.0276 201.753 22.9026 201.986C22.7776 202.219 22.7151 202.491 22.7151 202.804H21.458C21.458 202.273 21.5802 201.808 21.8245 201.411C22.0688 201.013 22.404 200.705 22.8302 200.486C23.2563 200.264 23.7407 200.153 24.2833 200.153C24.8316 200.153 25.3145 200.263 25.7321 200.482C26.1526 200.697 26.4807 200.993 26.7165 201.368C26.9523 201.74 27.0702 202.161 27.0702 202.629C27.0702 202.953 27.0091 203.27 26.887 203.58C26.7677 203.889 26.5588 204.234 26.2606 204.615C25.9623 204.993 25.5475 205.452 25.0162 205.991L23.2819 207.807V207.871H27.2108V209H21.4665ZM28.3459 209V208.045L31.299 204.986C31.6144 204.653 31.8743 204.362 32.0788 204.112C32.2862 203.859 32.4411 203.619 32.5433 203.392C32.6456 203.165 32.6967 202.923 32.6967 202.668C32.6967 202.378 32.6286 202.128 32.4922 201.918C32.3558 201.705 32.1698 201.541 31.934 201.428C31.6982 201.311 31.4325 201.253 31.1371 201.253C30.8246 201.253 30.5519 201.317 30.3189 201.445C30.086 201.572 29.907 201.753 29.782 201.986C29.657 202.219 29.5945 202.491 29.5945 202.804H28.3374C28.3374 202.273 28.4595 201.808 28.7038 201.411C28.9482 201.013 29.2834 200.705 29.7095 200.486C30.1357 200.264 30.62 200.153 31.1627 200.153C31.711 200.153 32.1939 200.263 32.6115 200.482C33.032 200.697 33.3601 200.993 33.5959 201.368C33.8317 201.74 33.9496 202.161 33.9496 202.629C33.9496 202.953 33.8885 203.27 33.7663 203.58C33.647 203.889 33.4382 204.234 33.1399 204.615C32.8416 204.993 32.4269 205.452 31.8956 205.991L30.1612 207.807V207.871H34.0902V209H28.3459ZM36.0818 209.081C35.8488 209.081 35.6486 208.999 35.481 208.834C35.3133 208.666 35.2295 208.464 35.2295 208.229C35.2295 207.996 35.3133 207.797 35.481 207.632C35.6486 207.464 35.8488 207.381 36.0818 207.381C36.3148 207.381 36.515 207.464 36.6827 207.632C36.8503 207.797 36.9341 207.996 36.9341 208.229C36.9341 208.385 36.8943 208.528 36.8148 208.659C36.7381 208.787 36.6358 208.889 36.5079 208.966C36.3801 209.043 36.2381 209.081 36.0818 209.081ZM40.8657 209.145C40.1924 209.142 39.6171 208.964 39.1398 208.612C38.6625 208.26 38.2975 207.747 38.0446 207.074C37.7918 206.401 37.6654 205.589 37.6654 204.641C37.6654 203.695 37.7918 202.886 38.0446 202.216C38.3003 201.545 38.6668 201.034 39.1441 200.682C39.6242 200.33 40.198 200.153 40.8657 200.153C41.5333 200.153 42.1057 200.331 42.583 200.686C43.0603 201.038 43.4253 201.55 43.6782 202.22C43.9338 202.888 44.0617 203.695 44.0617 204.641C44.0617 205.592 43.9353 206.405 43.6824 207.078C43.4296 207.749 43.0645 208.261 42.5872 208.616C42.11 208.969 41.5361 209.145 40.8657 209.145ZM40.8657 208.007C41.4566 208.007 41.9182 207.719 42.2506 207.142C42.5858 206.565 42.7534 205.732 42.7534 204.641C42.7534 203.916 42.6767 203.304 42.5233 202.804C42.3728 202.301 42.1554 201.92 41.8713 201.662C41.5901 201.401 41.2549 201.27 40.8657 201.27C40.2776 201.27 39.8159 201.56 39.4807 202.139C39.1455 202.719 38.9764 203.553 38.9736 204.641C38.9736 205.368 39.0489 205.983 39.1995 206.486C39.3529 206.986 39.5702 207.365 39.8514 207.624C40.1327 207.879 40.4708 208.007 40.8657 208.007ZM48.1317 209.145C47.4585 209.142 46.8832 208.964 46.4059 208.612C45.9286 208.26 45.5636 207.747 45.3107 207.074C45.0579 206.401 44.9315 205.589 44.9315 204.641C44.9315 203.695 45.0579 202.886 45.3107 202.216C45.5664 201.545 45.9329 201.034 46.4102 200.682C46.8903 200.33 47.4641 200.153 48.1317 200.153C48.7994 200.153 49.3718 200.331 49.8491 200.686C50.3263 201.038 50.6914 201.55 50.9442 202.22C51.1999 202.888 51.3278 203.695 51.3278 204.641C51.3278 205.592 51.2013 206.405 50.9485 207.078C50.6957 207.749 50.3306 208.261 49.8533 208.616C49.3761 208.969 48.8022 209.145 48.1317 209.145ZM48.1317 208.007C48.7227 208.007 49.1843 207.719 49.5167 207.142C49.8519 206.565 50.0195 205.732 50.0195 204.641C50.0195 203.916 49.9428 203.304 49.7894 202.804C49.6388 202.301 49.4215 201.92 49.1374 201.662C48.8562 201.401 48.521 201.27 48.1317 201.27C47.5437 201.27 47.082 201.56 46.7468 202.139C46.4116 202.719 46.2425 203.553 46.2397 204.641C46.2397 205.368 46.315 205.983 46.4656 206.486C46.619 206.986 46.8363 207.365 47.1175 207.624C47.3988 207.879 47.7369 208.007 48.1317 208.007Z" fill="#657180"/>
<g opacity="0.2">
<rect x="67.25" y="204.75" width="462.5" height="0.5" stroke="#657180" stroke-width="0.5" stroke-dasharray="6 4"/>
</g>
</g>
<g opacity="0.8">
<path d="M21.7868 245V244.045L24.74 240.986C25.0553 240.653 25.3152 240.362 25.5198 240.112C25.7272 239.859 25.882 239.619 25.9843 239.392C26.0865 239.165 26.1377 238.923 26.1377 238.668C26.1377 238.378 26.0695 238.128 25.9331 237.918C25.7968 237.705 25.6107 237.541 25.3749 237.428C25.1391 237.311 24.8735 237.253 24.578 237.253C24.2655 237.253 23.9928 237.317 23.7598 237.445C23.5269 237.572 23.3479 237.753 23.2229 237.986C23.0979 238.219 23.0354 238.491 23.0354 238.804H21.7783C21.7783 238.273 21.9005 237.808 22.1448 237.411C22.3891 237.013 22.7243 236.705 23.1505 236.486C23.5766 236.264 24.061 236.153 24.6036 236.153C25.1519 236.153 25.6348 236.263 26.0525 236.482C26.4729 236.697 26.801 236.993 27.0368 237.368C27.2726 237.74 27.3905 238.161 27.3905 238.629C27.3905 238.953 27.3294 239.27 27.2073 239.58C27.088 239.889 26.8792 240.234 26.5809 240.615C26.2826 240.993 25.8678 241.452 25.3365 241.991L23.6022 243.807V243.871H27.5312V245H21.7868ZM31.9773 236.273V245H30.6563V237.594H30.6051L28.5171 238.957V237.696L30.6946 236.273H31.9773ZM34.2107 245.081C33.9778 245.081 33.7775 244.999 33.6099 244.834C33.4422 244.666 33.3584 244.464 33.3584 244.229C33.3584 243.996 33.4422 243.797 33.6099 243.632C33.7775 243.464 33.9778 243.381 34.2107 243.381C34.4437 243.381 34.6439 243.464 34.8116 243.632C34.9792 243.797 35.063 243.996 35.063 244.229C35.063 244.385 35.0232 244.528 34.9437 244.659C34.867 244.787 34.7647 244.889 34.6368 244.966C34.509 245.043 34.367 245.081 34.2107 245.081ZM39.0127 245.119C38.4786 245.119 37.9985 245.017 37.5723 244.812C37.149 244.605 36.811 244.321 36.5581 243.96C36.3053 243.599 36.1703 243.188 36.1533 242.724H37.4317C37.463 243.099 37.6291 243.408 37.9303 243.649C38.2314 243.891 38.5922 244.011 39.0127 244.011C39.3479 244.011 39.6448 243.935 39.9033 243.781C40.1647 243.625 40.3692 243.411 40.5169 243.138C40.6675 242.865 40.7428 242.554 40.7428 242.205C40.7428 241.849 40.6661 241.533 40.5127 241.254C40.3593 240.976 40.1476 240.757 39.8777 240.598C39.6107 240.439 39.3039 240.358 38.9573 240.355C38.6931 240.355 38.4274 240.401 38.1604 240.491C37.8934 240.582 37.6774 240.702 37.5127 240.849L36.3067 240.67L36.7968 236.273H41.5951V237.402H37.8919L37.6149 239.844H37.6661C37.8365 239.679 38.0624 239.541 38.3436 239.43C38.6277 239.32 38.9317 239.264 39.2556 239.264C39.7868 239.264 40.2598 239.391 40.6746 239.643C41.0922 239.896 41.4203 240.241 41.659 240.679C41.9005 241.114 42.0198 241.614 42.0169 242.179C42.0198 242.744 41.8919 243.249 41.6334 243.692C41.3777 244.135 41.0226 244.484 40.5681 244.74C40.1164 244.993 39.5979 245.119 39.0127 245.119ZM46.1317 245.145C45.4585 245.142 44.8832 244.964 44.4059 244.612C43.9286 244.26 43.5636 243.747 43.3107 243.074C43.0579 242.401 42.9315 241.589 42.9315 240.641C42.9315 239.695 43.0579 238.886 43.3107 238.216C43.5664 237.545 43.9329 237.034 44.4102 236.682C44.8903 236.33 45.4641 236.153 46.1317 236.153C46.7994 236.153 47.3718 236.331 47.8491 236.686C48.3263 237.038 48.6914 237.55 48.9442 238.22C49.1999 238.888 49.3278 239.695 49.3278 240.641C49.3278 241.592 49.2013 242.405 48.9485 243.078C48.6957 243.749 48.3306 244.261 47.8533 244.616C47.3761 244.969 46.8022 245.145 46.1317 245.145ZM46.1317 244.007C46.7227 244.007 47.1843 243.719 47.5167 243.142C47.8519 242.565 48.0195 241.732 48.0195 240.641C48.0195 239.916 47.9428 239.304 47.7894 238.804C47.6388 238.301 47.4215 237.92 47.1374 237.662C46.8562 237.401 46.521 237.27 46.1317 237.27C45.5437 237.27 45.082 237.56 44.7468 238.139C44.4116 238.719 44.2425 239.553 44.2397 240.641C44.2397 241.368 44.315 241.983 44.4656 242.486C44.619 242.986 44.8363 243.365 45.1175 243.624C45.3988 243.879 45.7369 244.007 46.1317 244.007Z" fill="#657180"/>
<g opacity="0.2">
<rect x="65.25" y="240.75" width="464.5" height="0.5" stroke="#657180" stroke-width="0.5" stroke-dasharray="6 4"/>
</g>
</g>
<path d="M17 32H60L66 40L60 48H17V32Z" fill="#ED1F24"/>
<path d="M21.7695 44V43.125L24.4766 40.3203C24.7656 40.0156 25.0039 39.7487 25.1914 39.5195C25.3815 39.2878 25.5234 39.0677 25.6172 38.8594C25.7109 38.651 25.7578 38.4297 25.7578 38.1953C25.7578 37.9297 25.6953 37.7005 25.5703 37.5078C25.4453 37.3125 25.2747 37.1628 25.0586 37.0586C24.8424 36.9518 24.599 36.8984 24.3281 36.8984C24.0417 36.8984 23.7917 36.957 23.5781 37.0742C23.3646 37.1914 23.2005 37.3568 23.0859 37.5703C22.9714 37.7839 22.9141 38.0339 22.9141 38.3203H21.7617C21.7617 37.8333 21.8737 37.4076 22.0977 37.043C22.3216 36.6784 22.6289 36.3958 23.0195 36.1953C23.4102 35.9922 23.8542 35.8906 24.3516 35.8906C24.8542 35.8906 25.2969 35.9909 25.6797 36.1914C26.0651 36.3893 26.3659 36.6602 26.582 37.0039C26.7982 37.3451 26.9062 37.7305 26.9062 38.1602C26.9062 38.457 26.8503 38.7474 26.7383 39.0312C26.6289 39.3151 26.4375 39.6315 26.1641 39.9805C25.8906 40.3268 25.5104 40.7474 25.0234 41.2422L23.4336 42.9062V42.9648H27.0352V44H21.7695ZM27.7358 42.4375V41.4609L31.1928 36H31.9623V37.4375H31.4741L29.0014 41.3516V41.4141H33.7397V42.4375H27.7358ZM31.5287 44V42.1406L31.5366 41.6953V36H32.6811V44H31.5287ZM35.1454 44.0742C34.9318 44.0742 34.7483 43.9987 34.5946 43.8477C34.441 43.694 34.3641 43.5091 34.3641 43.293C34.3641 43.0794 34.441 42.8971 34.5946 42.7461C34.7483 42.5924 34.9318 42.5156 35.1454 42.5156C35.3589 42.5156 35.5425 42.5924 35.6962 42.7461C35.8498 42.8971 35.9266 43.0794 35.9266 43.293C35.9266 43.4362 35.8902 43.5677 35.8173 43.6875C35.747 43.8047 35.6532 43.8984 35.536 43.9687C35.4188 44.0391 35.2886 44.0742 35.1454 44.0742ZM39.5306 44.1094C38.9941 44.1094 38.515 44.0169 38.0931 43.832C37.6738 43.6471 37.3418 43.3906 37.097 43.0625C36.8548 42.7318 36.7246 42.349 36.7064 41.9141H37.9329C37.9486 42.151 38.028 42.3568 38.1712 42.5312C38.317 42.7031 38.5071 42.8359 38.7415 42.9297C38.9759 43.0234 39.2363 43.0703 39.5228 43.0703C39.8379 43.0703 40.1165 43.0156 40.3587 42.9062C40.6035 42.7969 40.7949 42.6445 40.9329 42.4492C41.071 42.2513 41.14 42.0234 41.14 41.7656C41.14 41.4974 41.071 41.2617 40.9329 41.0586C40.7975 40.8529 40.5983 40.6914 40.3353 40.5742C40.0749 40.457 39.7598 40.3984 39.39 40.3984H38.7142V39.4141H39.39C39.6868 39.4141 39.9473 39.3607 40.1712 39.2539C40.3978 39.1471 40.5749 38.9987 40.7025 38.8086C40.8301 38.6159 40.8939 38.3906 40.8939 38.1328C40.8939 37.8854 40.8379 37.6706 40.7259 37.4883C40.6165 37.3034 40.4603 37.1589 40.2571 37.0547C40.0566 36.9505 39.8196 36.8984 39.5462 36.8984C39.2858 36.8984 39.0423 36.9466 38.8157 37.043C38.5918 37.1367 38.4095 37.2721 38.2689 37.4492C38.1282 37.6237 38.0527 37.8333 38.0423 38.0781H36.8743C36.8874 37.6458 37.015 37.2656 37.2571 36.9375C37.5019 36.6094 37.8249 36.3529 38.2259 36.168C38.6269 35.9831 39.0723 35.8906 39.5618 35.8906C40.0749 35.8906 40.5176 35.9909 40.89 36.1914C41.265 36.3893 41.554 36.6536 41.7571 36.9844C41.9629 37.3151 42.0644 37.6771 42.0618 38.0703C42.0644 38.5182 41.9394 38.8984 41.6868 39.2109C41.4368 39.5234 41.1035 39.7331 40.6868 39.8398V39.9023C41.2181 39.9831 41.6295 40.194 41.9212 40.5352C42.2155 40.8763 42.3613 41.2995 42.3587 41.8047C42.3613 42.2448 42.2389 42.6393 41.9915 42.9883C41.7467 43.3372 41.4121 43.612 40.9876 43.8125C40.5631 44.0104 40.0775 44.1094 39.5306 44.1094ZM46.0554 35.8906C46.4122 35.8932 46.7638 35.9583 47.1101 36.0859C47.4565 36.2135 47.769 36.4219 48.0476 36.7109C48.3289 37 48.5528 37.3906 48.7195 37.8828C48.8888 38.3724 48.9747 38.9818 48.9773 39.7109C48.9773 40.4115 48.907 41.0352 48.7664 41.582C48.6257 42.1263 48.4239 42.5859 48.1609 42.9609C47.9005 43.3359 47.5841 43.6211 47.2117 43.8164C46.8393 44.0117 46.42 44.1094 45.9539 44.1094C45.4773 44.1094 45.0541 44.0156 44.6843 43.8281C44.3145 43.6406 44.0138 43.3815 43.782 43.0508C43.5502 42.7174 43.4057 42.3346 43.3484 41.9023H44.5398C44.6179 42.2461 44.7768 42.5247 45.0164 42.7383C45.2586 42.9492 45.5711 43.0547 45.9539 43.0547C46.5398 43.0547 46.9968 42.7995 47.325 42.2891C47.6531 41.776 47.8185 41.0599 47.8211 40.1406H47.7586C47.6231 40.3646 47.4539 40.5573 47.2507 40.7187C47.0502 40.8802 46.825 41.0052 46.575 41.0937C46.325 41.1823 46.058 41.2266 45.7742 41.2266C45.3132 41.2266 44.894 41.1133 44.5164 40.8867C44.1388 40.6602 43.838 40.349 43.614 39.9531C43.3901 39.5573 43.2781 39.1055 43.2781 38.5977C43.2781 38.0924 43.3927 37.6341 43.6218 37.2227C43.8536 36.8112 44.1765 36.4857 44.5906 36.2461C45.0073 36.0039 45.4955 35.8854 46.0554 35.8906ZM46.0593 36.9062C45.7546 36.9062 45.4799 36.9818 45.2351 37.1328C44.9929 37.2812 44.8015 37.4831 44.6609 37.7383C44.5203 37.9909 44.45 38.2721 44.45 38.582C44.45 38.8919 44.5177 39.1732 44.6531 39.4258C44.7911 39.6758 44.9786 39.875 45.2156 40.0234C45.4552 40.1693 45.7286 40.2422 46.0359 40.2422C46.2651 40.2422 46.4786 40.1979 46.6765 40.1094C46.8744 40.0208 47.0476 39.8984 47.1961 39.7422C47.3445 39.5833 47.4604 39.4036 47.5437 39.2031C47.627 39.0026 47.6687 38.7917 47.6687 38.5703C47.6687 38.276 47.5984 38.0026 47.4578 37.75C47.3198 37.4974 47.1296 37.2943 46.8875 37.1406C46.6453 36.9844 46.3692 36.9062 46.0593 36.9062Z" fill="white"/>
<path opacity="0.5" d="M68 61L68 23.5V0M68 23.5H60M68 61H60M68 61V97M68 97H60M68 97V133M68 133H60M68 133V169M68 169H60M68 169V205.5M68 205.5H60M68 205.5V241.5M68 241.5H60M68 241.5L68 267H20" stroke="#657180" stroke-width="1.5"/>
<path opacity="0.5" d="M68.0078 267.001L89.5078 267.001M245.008 267.001L284.008 267.001L323.008 267.001L345.008 267.001L362.008 267.001M479.008 267L440.008 267L420.008 267L401.008 267L362.008 267.001M362.008 267.001L362.008 275M89.5078 267.001L89.5078 275.001M89.5078 267.001L128.008 267.001M128.008 267.001L128.008 275.001M206.008 267.001L167.008 267.001L128.008 267.001M167.008 267.001L167.008 275.001M206.008 267.001L206.008 275.001M206.008 267.001L245.008 267.001M245.008 267.001L245.008 275.001M284.008 267.001L284.008 275.001M323.008 267.001L323.008 275.001M401.008 267L401.008 275M440.008 267L440.008 275M545.008 267L518.008 267L495.008 267L479.008 267M479.008 267L479.008 275M518.008 267L518.008 275" stroke="#657180" stroke-width="1.5"/>
<g clip-path="url(#clip0_656_5877)">
<path d="M329 114.12V92.4858M329 86.1758V92.4858M329 92.4858H332.529V86.1758V108.711M332.529 114.12V108.711M332.529 108.711H336.059V100.599V123.134M336.059 124.937V123.134M336.059 123.134H339.588V118.627V124.036M339.588 132.149V124.036M339.588 124.036H344.294V121.331V132.149M344.294 134.853V132.149M344.294 132.149H347.823V131.247M347.823 127.641V131.247M347.823 137.557V131.247M347.823 131.247H351.353V123.134M351.353 120.43V123.134M351.353 133.951V123.134M351.353 123.134L352.529 122.233H354.882V126.74M354.882 131.247V126.74M354.882 126.74H358.412M358.412 126.74V123.134V132.149V126.74ZM361.941 126.74V128.543V124.937M361.941 120.43V124.937M361.941 124.937H365.471V123.134M365.471 121.331V123.134M365.471 130.346V123.134M365.471 123.134H370.176V119.529V126.74M370.176 133.05V126.74M370.176 126.74H373.706V125.839M373.706 121.331V125.839M373.706 129.444V125.839M373.706 125.839H377.235V92.7707V127.019M377.235 181.727V127.019M377.235 127.019H380.765V120.43M380.765 106.007V120.43M380.765 142.966V120.43M380.765 120.43H384.294V110.514M384.294 107.81V110.514M384.294 135.754V110.514M384.294 110.514H387.823V101.5M387.823 86.1758V101.5M387.823 115.021V101.5M387.823 101.5H392.529V95.1901V121.331M392.529 128.065V121.331M392.529 121.331H396.059V140.261M396.059 142.064V140.261M396.059 140.261H399.588V146.571M399.588 157.559V146.571M399.588 146.571H403.118V162.797M403.118 167.304V162.797M403.118 162.797H406.647V169.107V148.374M406.647 146.571V148.374M406.647 148.374H410.176V158.29V141.163M410.176 136.264V141.163M410.176 141.163H414.882V142.966V131.247M414.882 127.641V131.247M414.882 131.247H418.412V130.346M418.412 125.839V130.346M418.412 136.656V130.346M418.412 130.346H421.941V127.019V150.177M421.941 153.783V150.177M421.941 150.177H425.47" stroke="#F23645" stroke-width="1.8"/>
<path d="M89 186.234V221.39M89 225.897V221.39M89 221.39H92.5294V218.686V227.7M92.5294 242.123V227.7M92.5294 227.7H96.0588V223.193M96.0588 218.686V223.193M96.0588 233.108V223.193M96.0588 223.193H99.5882V213.277V231.306H103.118V225.897M103.118 222.291V225.897M103.118 234.01V225.897M103.118 225.897H107.823V220.488M107.823 215.981V220.488M107.823 220.488H111.353V215.981H114.882V209.671V219.587M114.882 223.193V219.587M114.882 219.587H118.412V225.897M118.412 232.207V225.897M118.412 225.897H121.941V222.291V228.601M121.941 230.404V228.601M121.941 228.601H125.471V222.291M125.471 220.488V222.291M125.471 231.306V222.291M125.471 222.291H129V215.981V226.798H133.706V215.981M133.706 213.277V215.981M133.706 215.981H137.235V208.77V233.395M137.235 254.999V233.395M137.235 233.395H140.765V229.503M140.765 221.39V229.503M140.765 242.123V229.503M140.765 229.503H144.294V233.108V197.051M144.294 186.234V197.051M144.294 197.051H147.823V185.333V202.46M147.823 208.77V202.46M147.823 202.46H151.353M151.353 202.46V197.051V207.868V202.46ZM154.882 202.46V196.15M154.882 192.544V196.15M154.882 206.967V196.15M154.882 196.15H158.412M158.412 196.15V194.347V205.164V196.15ZM163.118 190.741C163.118 190.741 163.118 194.038 163.118 196.15V197.953M163.118 202.46V197.953M163.118 197.953H166.647V193.446M166.647 188.037V193.446M166.647 193.446H170.176V188.938V195.248M170.176 197.953V195.248M170.176 195.248H173.706V191.643M173.706 187.136V191.643M173.706 191.643H177.235V186.234M177.235 184.431V186.234M177.235 196.15V186.234M177.235 186.234H180.765M180.765 186.234V179.023V195.248V186.234ZM184.294 186.234V197.953V176.118M184.294 159.56V176.118M184.294 176.118H188.75L189 157.388V164.599M189 188.938V164.599M189 164.599H192.529V172.712V147.472M192.529 145.669V147.472M192.529 147.472H196.059V150.176V139.359M196.059 136.655V139.359M196.059 139.359H200.765V121.331H203.117V128.542V119.528M203.117 117.725V119.528M203.117 119.528H206.647V122.232V106.908M206.647 102.401V106.908M206.647 106.908H210.176V115.021M210.176 119.528V115.021M210.176 98.7949V115.021M210.176 115.021H214.882V111.415V119.528M214.882 127.641V119.528M214.882 119.528H218.412V114.57M218.412 109.612V114.57M218.412 126.739V114.57M218.412 114.57H221.941V111.415V128.542M221.941 131.246V128.542M221.941 128.542H225.47V126.739M225.47 121.331V126.739M225.47 126.739H229V124.035M229 121.331V124.035M229 138.458V124.035M229 124.035H232.529" stroke="#F23645" stroke-width="1.8"/>
<path d="M232.531 104.205V82.5706M232.531 67.2463V82.5706M232.531 82.5706H236.061V99.6977V71.7535M236.061 69.0492V71.7535M236.061 71.7535H240.767M240.767 71.7535V64.5421V76.2606V71.7535ZM244.296 71.7535V69.0492V85.2749M244.296 87.9792V85.2749M244.296 85.2749H247.825V82.5706V96.092M247.825 104.205V96.092M247.825 96.092H251.355V100.599M251.355 114.121V100.599M251.355 100.599H254.884M254.884 100.599V95.1906V105.106V100.599ZM258.414 100.599V102.402V96.9934M258.414 94.2892V96.9934M258.414 96.9934H263.119V103.303V95.1906M263.119 91.5849V95.1906M263.119 95.1906H266.649V96.9934V78.9649H270.178V74.4578M270.178 69.0492V74.4578M270.178 74.4578H273.708V63.6406H277.237V82.5706H280.766" stroke="#F23645" stroke-width="1.8"/>
<path d="M280.758 93.3906V150.181M280.758 154.688V150.181M280.758 150.181H284.287V162.801V136.659M284.287 134.856V136.659M284.287 136.659H287.817V133.053V144.772M287.817 149.279V144.772M287.817 144.772H291.346V147.476V138.462M291.346 133.053V138.462M291.346 138.462H294.875V126.743V139.363M294.875 141.166V139.363M294.875 139.363H299.581V136.659V147.476M299.581 151.082V147.476M299.581 147.476H303.111V146.575M303.111 143.871V146.575M303.111 152.885V146.575M303.111 146.575H306.64V144.772M306.64 141.166V144.772M306.64 151.983V144.772M306.64 144.772H310.17V142.969V146.575M310.17 149.279V146.575M310.17 146.575H314.875M314.875 146.575V142.969V151.082V146.575ZM318.405 146.575V137.561M318.405 135.758V137.561M318.405 137.561H321.934V134.856V144.772M321.934 145.673V144.772M321.934 144.772H325.464V141.166M325.464 138.462V141.166M325.464 155.589V141.166M325.464 141.166H328.993" stroke="#F23645" stroke-width="1.8"/>
<path d="M426.469 147.484V81.6799M426.469 77.1727V81.6799M426.469 81.6799H429.998V74.4685V113.23M429.998 118.638V113.23M429.998 113.23H433.528V109.624M433.528 98.807V109.624M433.528 127.653V109.624M433.528 109.624H438.233V120.441M438.233 125.85V120.441M438.233 120.441H441.763V124.948V103.314M441.763 97.0041V103.314M441.763 103.314H445.292V99.7084M445.292 92.497V99.7084M445.292 106.92V99.7084M445.292 99.7084H448.822V94.2999M448.822 93.3984V94.2999M448.822 105.117V94.2999M448.822 94.2999H452.351V90.6941V114.131M452.351 115.934V114.131M452.351 114.131H455.88V101.511M455.88 99.7084V101.511M455.88 118.638V101.511M455.88 101.511H459.41V105.117V91.5956M459.41 90.6941V91.5956M459.41 91.5956H461.763V90.6941H464.116V82.5813M464.116 78.0742V82.5813M464.116 82.5813H467.645V78.9756V91.5956M467.645 94.2999V91.5956M467.645 91.5956H469.998V97.9056H472.351V95.2013H474.704V97.0041V61.9328M474.704 43.9042V61.9328M474.704 61.9328H478.233V61.0314M478.233 50.2142V61.0314M478.233 74.5527V61.0314M478.233 61.0314H481.763V65.5385V56.5242M481.763 52.0171V56.5242M481.763 56.5242H485.292V48.4114V60.1299M485.292 65.5385V60.1299M485.292 60.1299H488.822V63.7356V57.4256M488.822 55.6228V57.4256M488.822 57.4256H493.527V54.7214V59.2285M493.527 61.0314V59.2285M493.527 59.2285H497.057V56.5242M497.057 53.8199V56.5242M497.057 61.0314V56.5242M497.057 56.5242H500.586V54.7214V57.4256M500.586 62.8342V57.4256M500.586 57.4256H504.116V54.7214M504.116 52.0171V54.7214M504.116 64.6371V54.7214M504.116 54.7214H507.645V59.2285V50.2142M507.645 49.3128V50.2142M507.645 50.2142H511.174V55.6228V49.3128M511.174 44.8057V49.3128M511.174 49.3128H514.704V50.2142V44.8057M514.704 42.1014V44.8057M514.704 44.8057H518.233M518.233 44.8057V46.6085V37.5942V44.8057ZM520.586 44.8057H522.939V47.5099V43.255V35M526.469 3.25498V16.7764V-8.46357M526.469 -11.1679V-8.46357M526.469 -8.46357H529.998V-1.25215V-32.8021M529.998 -36.4078V-32.8021M529.998 -32.8021H533.527V-29.1964V-56.2386M533.527 -58.5661V-56.2386M533.527 -56.2386H537.057V-60.7458M537.057 -75.1686V-60.7458M537.057 -60.7458H541.763V-57.1401V-75.1686M541.763 -76.9715V-75.1686M541.763 -75.1686H544.116V-70.6615V-79.6757M544.116 -85.9857V-79.6757M544.116 -79.6757H548.821V-76.9715M548.821 -67.0558V-76.9715M548.821 -88.69V-76.9715M548.821 -76.9715H552.351V-72.4643V-87.7886M552.351 -92.2957V-87.7886M552.351 -87.7886H555.88M555.88 -87.7886V-83.2814V-95V-87.7886ZM559.41 -87.7886V-94.0986V-86.8872M559.41 -81.4786V-86.8872M559.41 -86.8872H562.939V-93.1971V-77.8729M562.939 -73.3657V-77.8729M562.939 -77.8729H567.645V-64.3515M567.645 -63.4501V-64.3515M567.645 -64.3515H569.998" stroke="#F23645" stroke-width="1.8"/>
</g>
<line opacity="0.2" x1="142" y1="184" x2="472" y2="184" stroke="#A7ADBE" stroke-width="2"/>
<circle cx="310.5" cy="184.215" r="6" fill="white"/>
<circle cx="310.5" cy="184.215" r="3.5" fill="#ED1F24"/>
<rect x="266" y="198.215" width="89" height="26" rx="6" fill="#ED1F24"/>
<path d="M274.938 216.215V206.415H278.438C279.119 206.415 279.717 206.527 280.23 206.751C280.743 206.966 281.145 207.288 281.434 207.717C281.723 208.146 281.868 208.674 281.868 209.299C281.868 209.924 281.719 210.456 281.42 210.895C281.131 211.324 280.729 211.651 280.216 211.875C279.703 212.09 279.11 212.197 278.438 212.197H276.534V216.215H274.938ZM276.534 210.839H278.396C279.077 210.839 279.553 210.704 279.824 210.433C280.104 210.153 280.244 209.775 280.244 209.299C280.244 208.832 280.104 208.459 279.824 208.179C279.553 207.899 279.077 207.759 278.396 207.759H276.534V210.839ZM285.519 216.215V207.759H282.635V206.415H289.985V207.759H287.101V216.215H285.519ZM289.593 216.215L293.177 206.415H294.941L298.525 216.215H296.845L296.033 213.891H292.071L291.245 216.215H289.593ZM292.533 212.617H295.585L294.045 208.277L292.533 212.617ZM306.269 216.383C305.597 216.383 304.985 216.266 304.435 216.033C303.884 215.79 303.445 215.44 303.119 214.983C302.801 214.516 302.638 213.942 302.629 213.261H304.295C304.304 213.784 304.486 214.213 304.841 214.549C305.195 214.876 305.667 215.039 306.255 215.039C306.777 215.039 307.197 214.918 307.515 214.675C307.832 214.432 307.991 214.092 307.991 213.653C307.991 213.401 307.949 213.191 307.865 213.023C307.781 212.846 307.641 212.692 307.445 212.561C307.249 212.421 306.987 212.29 306.661 212.169C306.334 212.038 305.919 211.889 305.415 211.721C304.827 211.525 304.346 211.301 303.973 211.049C303.599 210.788 303.324 210.489 303.147 210.153C302.979 209.808 302.895 209.425 302.895 209.005C302.895 208.408 303.035 207.904 303.315 207.493C303.604 207.082 303.991 206.774 304.477 206.569C304.971 206.354 305.517 206.247 306.115 206.247C306.721 206.247 307.267 206.354 307.753 206.569C308.238 206.784 308.63 207.101 308.929 207.521C309.227 207.932 309.381 208.436 309.391 209.033H307.697C307.697 208.632 307.547 208.291 307.249 208.011C306.95 207.731 306.553 207.591 306.059 207.591C305.639 207.582 305.279 207.689 304.981 207.913C304.691 208.137 304.547 208.464 304.547 208.893C304.547 209.192 304.64 209.439 304.827 209.635C305.023 209.831 305.298 210.004 305.653 210.153C306.007 210.302 306.437 210.466 306.941 210.643C307.249 210.746 307.561 210.867 307.879 211.007C308.205 211.147 308.499 211.329 308.761 211.553C309.031 211.768 309.251 212.038 309.419 212.365C309.587 212.682 309.671 213.079 309.671 213.555C309.671 214.143 309.517 214.652 309.209 215.081C308.91 215.501 308.504 215.823 307.991 216.047C307.477 216.271 306.903 216.383 306.269 216.383ZM311.868 208.165C311.579 208.165 311.331 208.062 311.126 207.857C310.921 207.652 310.818 207.404 310.818 207.115C310.818 206.826 310.921 206.583 311.126 206.387C311.331 206.182 311.579 206.079 311.868 206.079C312.157 206.079 312.405 206.182 312.61 206.387C312.815 206.583 312.918 206.826 312.918 207.115C312.918 207.404 312.815 207.652 312.61 207.857C312.405 208.062 312.157 208.165 311.868 208.165ZM311.07 216.215V209.271H312.666V216.215H311.07ZM317.153 219.463C316.547 219.463 315.991 219.393 315.487 219.253C314.983 219.113 314.577 218.884 314.269 218.567C313.971 218.25 313.821 217.83 313.821 217.307C313.821 216.962 313.896 216.668 314.045 216.425C314.204 216.182 314.428 215.982 314.717 215.823C314.484 215.683 314.302 215.51 314.171 215.305C314.041 215.09 313.975 214.848 313.975 214.577C313.975 213.98 314.255 213.513 314.815 213.177C314.61 212.962 314.451 212.72 314.339 212.449C314.237 212.178 314.185 211.889 314.185 211.581C314.185 211.068 314.302 210.629 314.535 210.265C314.778 209.892 315.109 209.607 315.529 209.411C315.959 209.206 316.449 209.103 316.999 209.103C317.391 209.103 317.76 209.159 318.105 209.271H320.555V210.503H319.547C319.622 210.671 319.683 210.844 319.729 211.021C319.785 211.198 319.813 211.385 319.813 211.581C319.813 212.076 319.687 212.51 319.435 212.883C319.183 213.256 318.847 213.546 318.427 213.751C318.007 213.947 317.531 214.045 316.999 214.045C316.757 214.045 316.533 214.022 316.327 213.975C316.122 213.928 315.921 213.858 315.725 213.765C315.511 213.877 315.403 214.05 315.403 214.283C315.403 214.712 315.763 214.927 316.481 214.927H317.713C318.264 214.927 318.735 215.002 319.127 215.151C319.529 215.291 319.837 215.524 320.051 215.851C320.266 216.168 320.373 216.579 320.373 217.083C320.373 217.587 320.224 218.016 319.925 218.371C319.636 218.726 319.244 218.996 318.749 219.183C318.264 219.37 317.732 219.463 317.153 219.463ZM317.139 218.203C317.625 218.203 318.035 218.119 318.371 217.951C318.717 217.783 318.889 217.531 318.889 217.195C318.889 216.56 318.469 216.243 317.629 216.243H316.565C316.164 216.243 315.851 216.322 315.627 216.481C315.413 216.649 315.305 216.887 315.305 217.195C315.305 217.447 315.389 217.643 315.557 217.783C315.725 217.932 315.949 218.04 316.229 218.105C316.509 218.17 316.813 218.203 317.139 218.203ZM316.971 212.785C317.373 212.785 317.699 212.673 317.951 212.449C318.213 212.225 318.343 211.936 318.343 211.581C318.343 211.226 318.213 210.937 317.951 210.713C317.699 210.48 317.373 210.363 316.971 210.363C316.579 210.363 316.257 210.48 316.005 210.713C315.763 210.937 315.641 211.226 315.641 211.581C315.641 211.936 315.758 212.225 315.991 212.449C316.234 212.673 316.561 212.785 316.971 212.785ZM321.582 216.215V209.271H323.122L323.15 210.223C323.383 209.859 323.705 209.584 324.116 209.397C324.527 209.201 324.956 209.103 325.404 209.103C326.216 209.103 326.874 209.36 327.378 209.873C327.882 210.386 328.134 211.142 328.134 212.141V216.215H326.566V212.337C326.566 211.749 326.426 211.287 326.146 210.951C325.866 210.615 325.455 210.447 324.914 210.447C324.373 210.447 323.943 210.629 323.626 210.993C323.318 211.348 323.164 211.833 323.164 212.449V216.215H321.582ZM331.696 216.383C331.266 216.383 330.865 216.304 330.492 216.145C330.128 215.977 329.834 215.734 329.61 215.417C329.395 215.1 329.288 214.722 329.288 214.283C329.288 213.76 329.418 213.336 329.68 213.009C329.941 212.682 330.296 212.444 330.744 212.295C331.192 212.136 331.686 212.057 332.228 212.057H333.964C333.964 211.684 333.903 211.38 333.782 211.147C333.66 210.904 333.492 210.727 333.278 210.615C333.063 210.494 332.811 210.433 332.522 210.433C332.148 210.433 331.822 210.517 331.542 210.685C331.262 210.853 331.089 211.128 331.024 211.511H329.428C329.474 211.007 329.642 210.578 329.932 210.223C330.23 209.859 330.608 209.584 331.066 209.397C331.523 209.201 332.013 209.103 332.536 209.103C333.208 209.103 333.763 209.229 334.202 209.481C334.65 209.724 334.986 210.064 335.21 210.503C335.443 210.942 335.56 211.45 335.56 212.029V214.143C335.569 214.395 335.63 214.577 335.742 214.689C335.863 214.801 336.05 214.862 336.302 214.871V216.215C335.91 216.215 335.574 216.173 335.294 216.089C335.014 216.005 334.78 215.879 334.594 215.711C334.416 215.543 334.272 215.324 334.16 215.053C333.936 215.426 333.604 215.744 333.166 216.005C332.736 216.257 332.246 216.383 331.696 216.383ZM332.102 215.095C332.466 215.095 332.783 215.011 333.054 214.843C333.334 214.666 333.553 214.432 333.712 214.143C333.88 213.844 333.964 213.518 333.964 213.163V213.121H332.34C332.097 213.121 331.864 213.154 331.64 213.219C331.416 213.284 331.238 213.392 331.108 213.541C330.977 213.681 330.912 213.877 330.912 214.129C330.912 214.465 331.028 214.712 331.262 214.871C331.495 215.02 331.775 215.095 332.102 215.095ZM337.346 216.215V206.415H338.928V216.215H337.346ZM343.208 216.383C342.676 216.383 342.181 216.29 341.724 216.103C341.276 215.907 340.907 215.632 340.618 215.277C340.338 214.922 340.179 214.507 340.142 214.031H341.738C341.794 214.358 341.952 214.624 342.214 214.829C342.484 215.025 342.811 215.123 343.194 215.123C343.539 215.123 343.824 215.048 344.048 214.899C344.281 214.75 344.398 214.544 344.398 214.283C344.398 214.059 344.318 213.886 344.16 213.765C344.001 213.634 343.805 213.536 343.572 213.471C343.338 213.396 343.096 213.331 342.844 213.275C342.405 213.172 341.994 213.046 341.612 212.897C341.238 212.748 340.935 212.538 340.702 212.267C340.468 211.996 340.352 211.642 340.352 211.203C340.352 210.764 340.473 210.391 340.716 210.083C340.958 209.766 341.28 209.523 341.682 209.355C342.092 209.187 342.55 209.103 343.054 209.103C343.819 209.103 344.454 209.294 344.958 209.677C345.471 210.06 345.756 210.62 345.812 211.357H344.3C344.262 211.04 344.127 210.797 343.894 210.629C343.67 210.461 343.376 210.377 343.012 210.377C342.694 210.377 342.428 210.438 342.214 210.559C342.008 210.68 341.906 210.876 341.906 211.147C341.906 211.334 341.98 211.488 342.13 211.609C342.288 211.73 342.484 211.833 342.718 211.917C342.96 211.992 343.198 212.057 343.432 212.113C343.908 212.225 344.332 212.356 344.706 212.505C345.079 212.654 345.373 212.864 345.588 213.135C345.812 213.406 345.928 213.774 345.938 214.241C345.938 214.689 345.816 215.072 345.574 215.389C345.331 215.706 345.004 215.954 344.594 216.131C344.183 216.299 343.721 216.383 343.208 216.383Z" fill="white"/>
<path d="M83.3107 289.119C82.9215 289.114 82.538 289.043 82.1602 288.906C81.7852 288.77 81.4443 288.543 81.1374 288.224C80.8306 287.906 80.5849 287.479 80.4002 286.942C80.2184 286.405 80.1275 285.734 80.1275 284.93C80.1275 284.169 80.2028 283.493 80.3534 282.902C80.5068 282.311 80.7269 281.812 81.0139 281.406C81.3008 280.997 81.6474 280.686 82.0536 280.473C82.4599 280.26 82.9159 280.153 83.4215 280.153C83.9414 280.153 84.4031 280.256 84.8065 280.46C85.2099 280.665 85.5366 280.947 85.7866 281.308C86.0394 281.669 86.1999 282.08 86.2681 282.54H84.9684C84.8803 282.176 84.7056 281.879 84.4443 281.649C84.1829 281.419 83.842 281.304 83.4215 281.304C82.7823 281.304 82.2838 281.582 81.9258 282.139C81.5707 282.696 81.3917 283.47 81.3889 284.462H81.4528C81.6034 284.214 81.788 284.004 82.0068 283.831C82.2284 283.655 82.4755 283.52 82.7482 283.426C83.0238 283.33 83.3136 283.281 83.6176 283.281C84.1232 283.281 84.5806 283.405 84.9897 283.652C85.4016 283.896 85.7298 284.234 85.9741 284.666C86.2184 285.098 86.3406 285.592 86.3406 286.149C86.3406 286.706 86.2141 287.21 85.9613 287.662C85.7113 288.114 85.359 288.472 84.9045 288.736C84.4499 288.997 83.9187 289.125 83.3107 289.119ZM83.3065 288.011C83.6417 288.011 83.9414 287.929 84.2056 287.764C84.4698 287.599 84.6786 287.378 84.832 287.099C84.9855 286.821 85.0622 286.51 85.0622 286.166C85.0622 285.831 84.9869 285.526 84.8363 285.25C84.6886 284.974 84.484 284.756 84.2227 284.594C83.9641 284.432 83.6687 284.351 83.3363 284.351C83.0835 284.351 82.8491 284.399 82.6332 284.496C82.4201 284.592 82.2326 284.726 82.0707 284.896C81.9088 285.067 81.7809 285.263 81.6872 285.484C81.5963 285.703 81.5508 285.935 81.5508 286.179C81.5508 286.506 81.6261 286.808 81.7766 287.087C81.9301 287.365 82.1389 287.589 82.4031 287.76C82.6701 287.928 82.9713 288.011 83.3065 288.011ZM90.7537 279.864L87.9412 290.312H86.8034L89.6159 279.864H90.7537ZM91.339 289V288.045L94.2921 284.986C94.6075 284.653 94.8674 284.362 95.072 284.112C95.2794 283.859 95.4342 283.619 95.5365 283.392C95.6387 283.165 95.6899 282.923 95.6899 282.668C95.6899 282.378 95.6217 282.128 95.4853 281.918C95.349 281.705 95.1629 281.541 94.9271 281.428C94.6913 281.311 94.4257 281.253 94.1302 281.253C93.8177 281.253 93.545 281.317 93.312 281.445C93.0791 281.572 92.9001 281.753 92.7751 281.986C92.6501 282.219 92.5876 282.491 92.5876 282.804H91.3305C91.3305 282.273 91.4527 281.808 91.697 281.411C91.9413 281.013 92.2765 280.705 92.7027 280.486C93.1288 280.264 93.6132 280.153 94.1558 280.153C94.7041 280.153 95.187 280.263 95.6046 280.482C96.0251 280.697 96.3532 280.993 96.589 281.368C96.8248 281.74 96.9427 282.161 96.9427 282.629C96.9427 282.953 96.8816 283.27 96.7595 283.58C96.6402 283.889 96.4314 284.234 96.1331 284.615C95.8348 284.993 95.42 285.452 94.8887 285.991L93.1544 287.807V287.871H97.0833V289H91.339ZM101.265 289.119C100.876 289.114 100.493 289.043 100.115 288.906C99.7397 288.77 99.3988 288.543 99.092 288.224C98.7852 287.906 98.5394 287.479 98.3548 286.942C98.1729 286.405 98.082 285.734 98.082 284.93C98.082 284.169 98.1573 283.493 98.3079 282.902C98.4613 282.311 98.6815 281.812 98.9684 281.406C99.2553 280.997 99.6019 280.686 100.008 280.473C100.414 280.26 100.87 280.153 101.376 280.153C101.896 280.153 102.358 280.256 102.761 280.46C103.164 280.665 103.491 280.947 103.741 281.308C103.994 281.669 104.154 282.08 104.223 282.54H102.923C102.835 282.176 102.66 281.879 102.399 281.649C102.137 281.419 101.797 281.304 101.376 281.304C100.737 281.304 100.238 281.582 99.8803 282.139C99.5252 282.696 99.3462 283.47 99.3434 284.462H99.4073C99.5579 284.214 99.7425 284.004 99.9613 283.831C100.183 283.655 100.43 283.52 100.703 283.426C100.978 283.33 101.268 283.281 101.572 283.281C102.078 283.281 102.535 283.405 102.944 283.652C103.356 283.896 103.684 284.234 103.929 284.666C104.173 285.098 104.295 285.592 104.295 286.149C104.295 286.706 104.169 287.21 103.916 287.662C103.666 288.114 103.314 288.472 102.859 288.736C102.404 288.997 101.873 289.125 101.265 289.119ZM101.261 288.011C101.596 288.011 101.896 287.929 102.16 287.764C102.424 287.599 102.633 287.378 102.787 287.099C102.94 286.821 103.017 286.51 103.017 286.166C103.017 285.831 102.941 285.526 102.791 285.25C102.643 284.974 102.439 284.756 102.177 284.594C101.919 284.432 101.623 284.351 101.291 284.351C101.038 284.351 100.804 284.399 100.588 284.496C100.375 284.592 100.187 284.726 100.025 284.896C99.8633 285.067 99.7354 285.263 99.6417 285.484C99.5508 285.703 99.5053 285.935 99.5053 286.179C99.5053 286.506 99.5806 286.808 99.7312 287.087C99.8846 287.365 100.093 287.589 100.358 287.76C100.625 287.928 100.926 288.011 101.261 288.011Z" fill="#657180"/>
<path d="M120.942 289.119C120.553 289.114 120.17 289.043 119.792 288.906C119.417 288.77 119.076 288.543 118.769 288.224C118.462 287.906 118.216 287.479 118.032 286.942C117.85 286.405 117.759 285.734 117.759 284.93C117.759 284.169 117.834 283.493 117.985 282.902C118.138 282.311 118.358 281.812 118.645 281.406C118.932 280.997 119.279 280.686 119.685 280.473C120.091 280.26 120.547 280.153 121.053 280.153C121.573 280.153 122.035 280.256 122.438 280.46C122.841 280.665 123.168 280.947 123.418 281.308C123.671 281.669 123.832 282.08 123.9 282.54H122.6C122.512 282.176 122.337 281.879 122.076 281.649C121.814 281.419 121.474 281.304 121.053 281.304C120.414 281.304 119.915 281.582 119.557 282.139C119.202 282.696 119.023 283.47 119.02 284.462H119.084C119.235 284.214 119.42 284.004 119.638 283.831C119.86 283.655 120.107 283.52 120.38 283.426C120.655 283.33 120.945 283.281 121.249 283.281C121.755 283.281 122.212 283.405 122.621 283.652C123.033 283.896 123.361 284.234 123.606 284.666C123.85 285.098 123.972 285.592 123.972 286.149C123.972 286.706 123.846 287.21 123.593 287.662C123.343 288.114 122.991 288.472 122.536 288.736C122.082 288.997 121.55 289.125 120.942 289.119ZM120.938 288.011C121.273 288.011 121.573 287.929 121.837 287.764C122.101 287.599 122.31 287.378 122.464 287.099C122.617 286.821 122.694 286.51 122.694 286.166C122.694 285.831 122.618 285.526 122.468 285.25C122.32 284.974 122.116 284.756 121.854 284.594C121.596 284.432 121.3 284.351 120.968 284.351C120.715 284.351 120.481 284.399 120.265 284.496C120.052 284.592 119.864 284.726 119.702 284.896C119.54 285.067 119.412 285.263 119.319 285.484C119.228 285.703 119.182 285.935 119.182 286.179C119.182 286.506 119.258 286.808 119.408 287.087C119.562 287.365 119.77 287.589 120.035 287.76C120.302 287.928 120.603 288.011 120.938 288.011ZM128.385 279.864L125.573 290.312H124.435L127.247 279.864H128.385ZM128.971 289V288.045L131.924 284.986C132.239 284.653 132.499 284.362 132.704 284.112C132.911 283.859 133.066 283.619 133.168 283.392C133.27 283.165 133.321 282.923 133.321 282.668C133.321 282.378 133.253 282.128 133.117 281.918C132.981 281.705 132.794 281.541 132.559 281.428C132.323 281.311 132.057 281.253 131.762 281.253C131.449 281.253 131.177 281.317 130.944 281.445C130.711 281.572 130.532 281.753 130.407 281.986C130.282 282.219 130.219 282.491 130.219 282.804H128.962C128.962 282.273 129.084 281.808 129.329 281.411C129.573 281.013 129.908 280.705 130.334 280.486C130.76 280.264 131.245 280.153 131.787 280.153C132.336 280.153 132.819 280.263 133.236 280.482C133.657 280.697 133.985 280.993 134.221 281.368C134.456 281.74 134.574 282.161 134.574 282.629C134.574 282.953 134.513 283.27 134.391 283.58C134.272 283.889 134.063 284.234 133.765 284.615C133.466 284.993 133.052 285.452 132.52 285.991L130.786 287.807V287.871H134.715V289H128.971ZM136.144 289L139.954 281.466V281.402H135.547V280.273H141.317V281.44L137.52 289H136.144Z" fill="#657180"/>
<path d="M159.626 289.119C159.237 289.114 158.853 289.043 158.475 288.906C158.1 288.77 157.759 288.543 157.453 288.224C157.146 287.906 156.9 287.479 156.715 286.942C156.534 286.405 156.443 285.734 156.443 284.93C156.443 284.169 156.518 283.493 156.669 282.902C156.822 282.311 157.042 281.812 157.329 281.406C157.616 280.997 157.963 280.686 158.369 280.473C158.775 280.26 159.231 280.153 159.737 280.153C160.257 280.153 160.718 280.256 161.122 280.46C161.525 280.665 161.852 280.947 162.102 281.308C162.355 281.669 162.515 282.08 162.583 282.54H161.284C161.195 282.176 161.021 281.879 160.759 281.649C160.498 281.419 160.157 281.304 159.737 281.304C159.097 281.304 158.599 281.582 158.241 282.139C157.886 282.696 157.707 283.47 157.704 284.462H157.768C157.919 284.214 158.103 284.004 158.322 283.831C158.544 283.655 158.791 283.52 159.063 283.426C159.339 283.33 159.629 283.281 159.933 283.281C160.438 283.281 160.896 283.405 161.305 283.652C161.717 283.896 162.045 284.234 162.289 284.666C162.534 285.098 162.656 285.592 162.656 286.149C162.656 286.706 162.529 287.21 162.276 287.662C162.026 288.114 161.674 288.472 161.22 288.736C160.765 288.997 160.234 289.125 159.626 289.119ZM159.622 288.011C159.957 288.011 160.257 287.929 160.521 287.764C160.785 287.599 160.994 287.378 161.147 287.099C161.301 286.821 161.377 286.51 161.377 286.166C161.377 285.831 161.302 285.526 161.151 285.25C161.004 284.974 160.799 284.756 160.538 284.594C160.279 284.432 159.984 284.351 159.651 284.351C159.399 284.351 159.164 284.399 158.948 284.496C158.735 284.592 158.548 284.726 158.386 284.896C158.224 285.067 158.096 285.263 158.002 285.484C157.911 285.703 157.866 285.935 157.866 286.179C157.866 286.506 157.941 286.808 158.092 287.087C158.245 287.365 158.454 287.589 158.718 287.76C158.985 287.928 159.286 288.011 159.622 288.011ZM167.069 279.864L164.256 290.312H163.119L165.931 279.864H167.069ZM167.654 289V288.045L170.607 284.986C170.923 284.653 171.183 284.362 171.387 284.112C171.595 283.859 171.749 283.619 171.852 283.392C171.954 283.165 172.005 282.923 172.005 282.668C172.005 282.378 171.937 282.128 171.8 281.918C171.664 281.705 171.478 281.541 171.242 281.428C171.006 281.311 170.741 281.253 170.445 281.253C170.133 281.253 169.86 281.317 169.627 281.445C169.394 281.572 169.215 281.753 169.09 281.986C168.965 282.219 168.903 282.491 168.903 282.804H167.646C167.646 282.273 167.768 281.808 168.012 281.411C168.256 281.013 168.592 280.705 169.018 280.486C169.444 280.264 169.928 280.153 170.471 280.153C171.019 280.153 171.502 280.263 171.92 280.482C172.34 280.697 172.668 280.993 172.904 281.368C173.14 281.74 173.258 282.161 173.258 282.629C173.258 282.953 173.197 283.27 173.075 283.58C172.955 283.889 172.747 284.234 172.448 284.615C172.15 284.993 171.735 285.452 171.204 285.991L169.47 287.807V287.871H173.398V289H167.654ZM177.482 289.119C176.872 289.119 176.332 289.014 175.863 288.804C175.397 288.594 175.032 288.304 174.768 287.935C174.504 287.565 174.373 287.145 174.376 286.673C174.373 286.304 174.448 285.964 174.602 285.655C174.758 285.342 174.97 285.082 175.237 284.875C175.504 284.665 175.802 284.531 176.132 284.474V284.423C175.697 284.318 175.349 284.085 175.088 283.724C174.826 283.364 174.697 282.949 174.7 282.48C174.697 282.034 174.815 281.636 175.053 281.287C175.295 280.935 175.626 280.658 176.046 280.456C176.467 280.254 176.945 280.153 177.482 280.153C178.014 280.153 178.488 280.256 178.906 280.46C179.326 280.662 179.657 280.939 179.899 281.291C180.14 281.641 180.262 282.037 180.265 282.48C180.262 282.949 180.129 283.364 179.865 283.724C179.6 284.085 179.257 284.318 178.833 284.423V284.474C179.16 284.531 179.454 284.665 179.715 284.875C179.98 285.082 180.19 285.342 180.346 285.655C180.505 285.964 180.586 286.304 180.589 286.673C180.586 287.145 180.453 287.565 180.188 287.935C179.924 288.304 179.558 288.594 179.089 288.804C178.623 289.014 178.088 289.119 177.482 289.119ZM177.482 288.041C177.843 288.041 178.156 287.982 178.42 287.862C178.684 287.74 178.889 287.571 179.034 287.355C179.178 287.136 179.252 286.881 179.255 286.588C179.252 286.284 179.173 286.016 179.017 285.783C178.863 285.55 178.654 285.366 178.39 285.233C178.126 285.099 177.823 285.033 177.482 285.033C177.139 285.033 176.833 285.099 176.566 285.233C176.299 285.366 176.089 285.55 175.936 285.783C175.782 286.016 175.707 286.284 175.71 286.588C175.707 286.881 175.776 287.136 175.918 287.355C176.063 287.571 176.269 287.74 176.536 287.862C176.803 287.982 177.119 288.041 177.482 288.041ZM177.482 283.98C177.772 283.98 178.029 283.922 178.254 283.805C178.478 283.689 178.654 283.527 178.782 283.32C178.913 283.112 178.98 282.869 178.982 282.591C178.98 282.318 178.914 282.08 178.786 281.875C178.661 281.67 178.487 281.513 178.262 281.402C178.038 281.288 177.778 281.232 177.482 281.232C177.181 281.232 176.917 281.288 176.69 281.402C176.465 281.513 176.291 281.67 176.166 281.875C176.041 282.08 175.98 282.318 175.982 282.591C175.98 282.869 176.042 283.112 176.17 283.32C176.298 283.527 176.474 283.689 176.698 283.805C176.926 283.922 177.187 283.98 177.482 283.98Z" fill="#657180"/>
<path d="M198.602 289.119C198.213 289.114 197.83 289.043 197.452 288.906C197.077 288.77 196.736 288.543 196.429 288.224C196.122 287.906 195.877 287.479 195.692 286.942C195.51 286.405 195.419 285.734 195.419 284.93C195.419 284.169 195.495 283.493 195.645 282.902C195.798 282.311 196.019 281.812 196.306 281.406C196.593 280.997 196.939 280.686 197.345 280.473C197.752 280.26 198.208 280.153 198.713 280.153C199.233 280.153 199.695 280.256 200.098 280.46C200.502 280.665 200.828 280.947 201.078 281.308C201.331 281.669 201.492 282.08 201.56 282.54H200.26C200.172 282.176 199.997 281.879 199.736 281.649C199.475 281.419 199.134 281.304 198.713 281.304C198.074 281.304 197.575 281.582 197.218 282.139C196.862 282.696 196.683 283.47 196.681 284.462H196.745C196.895 284.214 197.08 284.004 197.298 283.831C197.52 283.655 197.767 283.52 198.04 283.426C198.316 283.33 198.605 283.281 198.909 283.281C199.415 283.281 199.872 283.405 200.281 283.652C200.693 283.896 201.021 284.234 201.266 284.666C201.51 285.098 201.632 285.592 201.632 286.149C201.632 286.706 201.506 287.21 201.253 287.662C201.003 288.114 200.651 288.472 200.196 288.736C199.742 288.997 199.21 289.125 198.602 289.119ZM198.598 288.011C198.933 288.011 199.233 287.929 199.497 287.764C199.762 287.599 199.97 287.378 200.124 287.099C200.277 286.821 200.354 286.51 200.354 286.166C200.354 285.831 200.279 285.526 200.128 285.25C199.98 284.974 199.776 284.756 199.514 284.594C199.256 284.432 198.96 284.351 198.628 284.351C198.375 284.351 198.141 284.399 197.925 284.496C197.712 284.592 197.524 284.726 197.362 284.896C197.2 285.067 197.073 285.263 196.979 285.484C196.888 285.703 196.843 285.935 196.843 286.179C196.843 286.506 196.918 286.808 197.068 287.087C197.222 287.365 197.431 287.589 197.695 287.76C197.962 287.928 198.263 288.011 198.598 288.011ZM206.045 279.864L203.233 290.312H202.095L204.908 279.864H206.045ZM206.631 289V288.045L209.584 284.986C209.899 284.653 210.159 284.362 210.364 284.112C210.571 283.859 210.726 283.619 210.828 283.392C210.93 283.165 210.982 282.923 210.982 282.668C210.982 282.378 210.913 282.128 210.777 281.918C210.641 281.705 210.455 281.541 210.219 281.428C209.983 281.311 209.717 281.253 209.422 281.253C209.109 281.253 208.837 281.317 208.604 281.445C208.371 281.572 208.192 281.753 208.067 281.986C207.942 282.219 207.879 282.491 207.879 282.804H206.622C206.622 282.273 206.744 281.808 206.989 281.411C207.233 281.013 207.568 280.705 207.994 280.486C208.421 280.264 208.905 280.153 209.448 280.153C209.996 280.153 210.479 280.263 210.896 280.482C211.317 280.697 211.645 280.993 211.881 281.368C212.117 281.74 212.234 282.161 212.234 282.629C212.234 282.953 212.173 283.27 212.051 283.58C211.932 283.889 211.723 284.234 211.425 284.615C211.126 284.993 210.712 285.452 210.18 285.991L208.446 287.807V287.871H212.375V289H206.631ZM216.412 280.153C216.801 280.156 217.185 280.227 217.563 280.366C217.941 280.506 218.281 280.733 218.585 281.048C218.892 281.364 219.137 281.79 219.318 282.327C219.503 282.861 219.597 283.526 219.6 284.321C219.6 285.085 219.523 285.766 219.369 286.362C219.216 286.956 218.996 287.457 218.709 287.866C218.425 288.276 218.08 288.587 217.673 288.8C217.267 289.013 216.81 289.119 216.301 289.119C215.781 289.119 215.32 289.017 214.916 288.812C214.513 288.608 214.185 288.325 213.932 287.964C213.679 287.601 213.521 287.183 213.459 286.712H214.759C214.844 287.087 215.017 287.391 215.279 287.624C215.543 287.854 215.884 287.969 216.301 287.969C216.941 287.969 217.439 287.69 217.797 287.134C218.155 286.574 218.335 285.793 218.338 284.79H218.27C218.122 285.034 217.938 285.244 217.716 285.42C217.497 285.597 217.252 285.733 216.979 285.83C216.706 285.926 216.415 285.974 216.105 285.974C215.602 285.974 215.145 285.851 214.733 285.604C214.321 285.357 213.993 285.017 213.749 284.585C213.504 284.153 213.382 283.661 213.382 283.107C213.382 282.555 213.507 282.055 213.757 281.607C214.01 281.158 214.362 280.803 214.814 280.541C215.269 280.277 215.801 280.148 216.412 280.153ZM216.416 281.261C216.084 281.261 215.784 281.344 215.517 281.509C215.253 281.67 215.044 281.891 214.891 282.169C214.737 282.445 214.661 282.751 214.661 283.089C214.661 283.428 214.735 283.734 214.882 284.01C215.033 284.283 215.237 284.5 215.496 284.662C215.757 284.821 216.056 284.901 216.391 284.901C216.641 284.901 216.874 284.852 217.09 284.756C217.306 284.659 217.494 284.526 217.656 284.355C217.818 284.182 217.945 283.986 218.036 283.767C218.127 283.548 218.172 283.318 218.172 283.077C218.172 282.756 218.095 282.457 217.942 282.182C217.791 281.906 217.584 281.685 217.32 281.517C217.056 281.347 216.754 281.261 216.416 281.261Z" fill="#657180"/>
<path d="M242.966 280.273H244.278V286.46C244.278 287.02 244.167 287.499 243.946 287.896C243.727 288.294 243.419 288.598 243.021 288.808C242.623 289.016 242.157 289.119 241.623 289.119C241.132 289.119 240.69 289.03 240.298 288.851C239.909 288.672 239.601 288.412 239.373 288.071C239.149 287.727 239.037 287.31 239.037 286.818H240.345C240.345 287.06 240.4 287.268 240.511 287.445C240.625 287.621 240.78 287.759 240.976 287.858C241.174 287.955 241.402 288.003 241.657 288.003C241.936 288.003 242.172 287.945 242.365 287.828C242.561 287.709 242.71 287.534 242.812 287.304C242.914 287.074 242.966 286.793 242.966 286.46V280.273ZM249.759 286.286V282.455H251.037V289H249.784V287.866H249.716C249.566 288.216 249.324 288.507 248.992 288.74C248.662 288.97 248.252 289.085 247.76 289.085C247.34 289.085 246.968 288.993 246.644 288.808C246.323 288.621 246.07 288.344 245.885 287.977C245.703 287.611 245.612 287.158 245.612 286.618V282.455H246.887V286.464C246.887 286.911 247.01 287.266 247.257 287.53C247.504 287.794 247.825 287.926 248.22 287.926C248.459 287.926 248.696 287.866 248.932 287.747C249.171 287.628 249.368 287.447 249.524 287.206C249.683 286.964 249.762 286.658 249.759 286.286ZM253.543 280.273V289H252.269V280.273H253.543Z" fill="#657180"/>
<path d="M277.723 289L281.533 281.466V281.402H277.126V280.273H282.896V281.44L279.099 289H277.723ZM287.239 279.864L284.426 290.312H283.289L286.101 279.864H287.239ZM290.705 289.119C290.171 289.119 289.691 289.017 289.265 288.812C288.841 288.605 288.503 288.321 288.25 287.96C287.998 287.599 287.863 287.188 287.846 286.724H289.124C289.155 287.099 289.321 287.408 289.623 287.649C289.924 287.891 290.285 288.011 290.705 288.011C291.04 288.011 291.337 287.935 291.596 287.781C291.857 287.625 292.062 287.411 292.209 287.138C292.36 286.865 292.435 286.554 292.435 286.205C292.435 285.849 292.358 285.533 292.205 285.254C292.052 284.976 291.84 284.757 291.57 284.598C291.303 284.439 290.996 284.358 290.65 284.355C290.385 284.355 290.12 284.401 289.853 284.491C289.586 284.582 289.37 284.702 289.205 284.849L287.999 284.67L288.489 280.273H293.287V281.402H289.584L289.307 283.844H289.358C289.529 283.679 289.755 283.541 290.036 283.43C290.32 283.32 290.624 283.264 290.948 283.264C291.479 283.264 291.952 283.391 292.367 283.643C292.785 283.896 293.113 284.241 293.351 284.679C293.593 285.114 293.712 285.614 293.709 286.179C293.712 286.744 293.584 287.249 293.326 287.692C293.07 288.135 292.715 288.484 292.26 288.74C291.809 288.993 291.29 289.119 290.705 289.119Z" fill="#657180"/>
<path d="M316.629 289L320.439 281.466V281.402H316.033V280.273H321.802V281.44L318.006 289H316.629ZM326.145 279.864L323.333 290.312H322.195L325.007 279.864H326.145ZM329.777 289.119C329.388 289.114 329.005 289.043 328.627 288.906C328.252 288.77 327.911 288.543 327.604 288.224C327.297 287.906 327.052 287.479 326.867 286.942C326.685 286.405 326.594 285.734 326.594 284.93C326.594 284.169 326.67 283.493 326.82 282.902C326.973 282.311 327.194 281.812 327.481 281.406C327.768 280.997 328.114 280.686 328.52 280.473C328.927 280.26 329.383 280.153 329.888 280.153C330.408 280.153 330.87 280.256 331.273 280.46C331.677 280.665 332.003 280.947 332.253 281.308C332.506 281.669 332.667 282.08 332.735 282.54H331.435C331.347 282.176 331.172 281.879 330.911 281.649C330.65 281.419 330.309 281.304 329.888 281.304C329.249 281.304 328.75 281.582 328.393 282.139C328.037 282.696 327.858 283.47 327.856 284.462H327.92C328.07 284.214 328.255 284.004 328.473 283.831C328.695 283.655 328.942 283.52 329.215 283.426C329.491 283.33 329.78 283.281 330.084 283.281C330.59 283.281 331.047 283.405 331.456 283.652C331.868 283.896 332.196 284.234 332.441 284.666C332.685 285.098 332.807 285.592 332.807 286.149C332.807 286.706 332.681 287.21 332.428 287.662C332.178 288.114 331.826 288.472 331.371 288.736C330.917 288.997 330.385 289.125 329.777 289.119ZM329.773 288.011C330.108 288.011 330.408 287.929 330.672 287.764C330.937 287.599 331.145 287.378 331.299 287.099C331.452 286.821 331.529 286.51 331.529 286.166C331.529 285.831 331.454 285.526 331.303 285.25C331.155 284.974 330.951 284.756 330.689 284.594C330.431 284.432 330.135 284.351 329.803 284.351C329.55 284.351 329.316 284.399 329.1 284.496C328.887 284.592 328.699 284.726 328.537 284.896C328.375 285.067 328.248 285.263 328.154 285.484C328.063 285.703 328.018 285.935 328.018 286.179C328.018 286.506 328.093 286.808 328.243 287.087C328.397 287.365 328.606 287.589 328.87 287.76C329.137 287.928 329.438 288.011 329.773 288.011Z" fill="#657180"/>
<path d="M355.969 289L359.779 281.466V281.402H355.372V280.273H361.142V281.44L357.345 289H355.969ZM365.485 279.864L362.673 290.312H361.535L364.347 279.864H365.485ZM366.364 289L370.174 281.466V281.402H365.768V280.273H371.538V281.44L367.741 289H366.364Z" fill="#657180"/>
<path d="M394.653 289L398.462 281.466V281.402H394.056V280.273H399.826V281.44L396.029 289H394.653ZM404.169 279.864L401.356 290.312H400.218L403.031 279.864H404.169ZM407.703 289.119C407.092 289.119 406.552 289.014 406.084 288.804C405.618 288.594 405.253 288.304 404.988 287.935C404.724 287.565 404.594 287.145 404.596 286.673C404.594 286.304 404.669 285.964 404.822 285.655C404.978 285.342 405.19 285.082 405.457 284.875C405.724 284.665 406.022 284.531 406.352 284.474V284.423C405.917 284.318 405.569 284.085 405.308 283.724C405.047 283.364 404.917 282.949 404.92 282.48C404.917 282.034 405.035 281.636 405.274 281.287C405.515 280.935 405.846 280.658 406.267 280.456C406.687 280.254 407.166 280.153 407.703 280.153C408.234 280.153 408.709 280.256 409.126 280.46C409.547 280.662 409.878 280.939 410.119 281.291C410.361 281.641 410.483 282.037 410.486 282.48C410.483 282.949 410.349 283.364 410.085 283.724C409.821 284.085 409.477 284.318 409.054 284.423V284.474C409.38 284.531 409.674 284.665 409.936 284.875C410.2 285.082 410.41 285.342 410.567 285.655C410.726 285.964 410.807 286.304 410.809 286.673C410.807 287.145 410.673 287.565 410.409 287.935C410.145 288.304 409.778 288.594 409.309 288.804C408.844 289.014 408.308 289.119 407.703 289.119ZM407.703 288.041C408.064 288.041 408.376 287.982 408.64 287.862C408.905 287.74 409.109 287.571 409.254 287.355C409.399 287.136 409.473 286.881 409.476 286.588C409.473 286.284 409.393 286.016 409.237 285.783C409.084 285.55 408.875 285.366 408.611 285.233C408.346 285.099 408.044 285.033 407.703 285.033C407.359 285.033 407.054 285.099 406.787 285.233C406.52 285.366 406.309 285.55 406.156 285.783C406.003 286.016 405.927 286.284 405.93 286.588C405.927 286.881 405.997 287.136 406.139 287.355C406.284 287.571 406.49 287.74 406.757 287.862C407.024 287.982 407.339 288.041 407.703 288.041ZM407.703 283.98C407.993 283.98 408.25 283.922 408.474 283.805C408.699 283.689 408.875 283.527 409.003 283.32C409.133 283.112 409.2 282.869 409.203 282.591C409.2 282.318 409.135 282.08 409.007 281.875C408.882 281.67 408.707 281.513 408.483 281.402C408.258 281.288 407.998 281.232 407.703 281.232C407.402 281.232 407.138 281.288 406.91 281.402C406.686 281.513 406.511 281.67 406.386 281.875C406.261 282.08 406.2 282.318 406.203 282.591C406.2 282.869 406.263 283.112 406.39 283.32C406.518 283.527 406.694 283.689 406.919 283.805C407.146 283.922 407.407 283.98 407.703 283.98Z" fill="#657180"/>
<path d="M433.629 289L437.439 281.466V281.402H433.033V280.273H438.802V281.44L435.006 289H433.629ZM443.145 279.864L440.333 290.312H439.195L442.007 279.864H443.145ZM446.633 280.153C447.022 280.156 447.405 280.227 447.783 280.366C448.161 280.506 448.502 280.733 448.806 281.048C449.113 281.364 449.357 281.79 449.539 282.327C449.723 282.861 449.817 283.526 449.82 284.321C449.82 285.085 449.743 285.766 449.59 286.362C449.437 286.956 449.216 287.457 448.929 287.866C448.645 288.276 448.3 288.587 447.894 288.8C447.488 289.013 447.03 289.119 446.522 289.119C446.002 289.119 445.54 289.017 445.137 288.812C444.733 288.608 444.405 288.325 444.152 287.964C443.9 287.601 443.742 287.183 443.679 286.712H444.979C445.064 287.087 445.238 287.391 445.499 287.624C445.763 287.854 446.104 287.969 446.522 287.969C447.161 287.969 447.66 287.69 448.018 287.134C448.375 286.574 448.556 285.793 448.559 284.79H448.491C448.343 285.034 448.158 285.244 447.937 285.42C447.718 285.597 447.472 285.733 447.199 285.83C446.927 285.926 446.635 285.974 446.326 285.974C445.823 285.974 445.366 285.851 444.954 285.604C444.542 285.357 444.214 285.017 443.969 284.585C443.725 284.153 443.603 283.661 443.603 283.107C443.603 282.555 443.728 282.055 443.978 281.607C444.231 281.158 444.583 280.803 445.035 280.541C445.489 280.277 446.022 280.148 446.633 280.153ZM446.637 281.261C446.304 281.261 446.005 281.344 445.738 281.509C445.473 281.67 445.265 281.891 445.111 282.169C444.958 282.445 444.881 282.751 444.881 283.089C444.881 283.428 444.955 283.734 445.103 284.01C445.253 284.283 445.458 284.5 445.716 284.662C445.978 284.821 446.276 284.901 446.611 284.901C446.861 284.901 447.094 284.852 447.31 284.756C447.526 284.659 447.715 284.526 447.877 284.355C448.039 284.182 448.165 283.986 448.256 283.767C448.347 283.548 448.393 283.318 448.393 283.077C448.393 282.756 448.316 282.457 448.162 282.182C448.012 281.906 447.804 281.685 447.54 281.517C447.276 281.347 446.975 281.261 446.637 281.261Z" fill="#657180"/>
<path d="M469.975 289L473.784 281.466V281.402H469.378V280.273H475.148V281.44L471.351 289H469.975ZM479.491 279.864L476.678 290.312H475.54L478.353 279.864H479.491ZM483.387 280.273V289H482.066V281.594H482.015L479.927 282.957V281.696L482.104 280.273H483.387ZM488.306 289.145C487.633 289.142 487.058 288.964 486.58 288.612C486.103 288.26 485.738 287.747 485.485 287.074C485.232 286.401 485.106 285.589 485.106 284.641C485.106 283.695 485.232 282.886 485.485 282.216C485.741 281.545 486.107 281.034 486.585 280.682C487.065 280.33 487.639 280.153 488.306 280.153C488.974 280.153 489.546 280.331 490.024 280.686C490.501 281.038 490.866 281.55 491.119 282.22C491.374 282.888 491.502 283.695 491.502 284.641C491.502 285.592 491.376 286.405 491.123 287.078C490.87 287.749 490.505 288.261 490.028 288.616C489.551 288.969 488.977 289.145 488.306 289.145ZM488.306 288.007C488.897 288.007 489.359 287.719 489.691 287.142C490.026 286.565 490.194 285.732 490.194 284.641C490.194 283.916 490.117 283.304 489.964 282.804C489.813 282.301 489.596 281.92 489.312 281.662C489.031 281.401 488.695 281.27 488.306 281.27C487.718 281.27 487.257 281.56 486.921 282.139C486.586 282.719 486.417 283.553 486.414 284.641C486.414 285.368 486.49 285.983 486.64 286.486C486.793 286.986 487.011 287.365 487.292 287.624C487.573 287.879 487.911 288.007 488.306 288.007Z" fill="#657180"/>
<path d="M510.012 289L513.821 281.466V281.402H509.415V280.273H515.185V281.44L511.388 289H510.012ZM519.528 279.864L516.715 290.312H515.578L518.39 279.864H519.528ZM523.424 280.273V289H522.103V281.594H522.052L519.964 282.957V281.696L522.142 280.273H523.424ZM528.616 280.273V289H527.295V281.594H527.244L525.156 282.957V281.696L527.333 280.273H528.616Z" fill="#657180"/>
<defs>
<clipPath id="clip0_656_5877">
<rect width="442" height="245" fill="white" transform="translate(88.0078 24)"/>
</clipPath>
</defs>
</svg>
