<svg width="46" height="46" viewBox="0 0 46 46" fill="none" xmlns="http://www.w3.org/2000/svg">
<path d="M45.0801 10.0166L44.5713 17.999C44.5509 18.3196 44.4305 18.626 44.2275 18.875L40.4482 23.5078C40.2475 23.7539 39.9757 23.9319 39.6699 24.0176L32.2119 26.1045C31.9934 26.1657 31.7908 26.2744 31.6191 26.4229L27.9209 29.623C27.4817 30.003 27.1586 30.4992 26.9893 31.0547L26.8281 31.585C26.7867 31.721 26.9358 31.8356 27.0566 31.7607L30.7148 29.4941C30.9201 29.367 31.1853 29.5145 31.1855 29.7559V35.5205L29.3086 37.8223C28.7693 38.4837 28.4234 39.2821 28.3096 40.1279L27.9111 43.0889C27.8359 43.6482 27.4609 44.1219 26.9336 44.3232L22.54 46L18.1465 44.3232C17.6192 44.1219 17.2442 43.6483 17.1689 43.0889L16.7705 40.1279C16.6567 39.2821 16.3108 38.4837 15.7715 37.8223L13.8945 35.5205V29.7559C13.8948 29.5145 14.16 29.367 14.3652 29.4941L18.0234 31.7607C18.1443 31.8356 18.2934 31.721 18.252 31.585L18.0908 31.0547C17.9215 30.4992 17.5983 30.003 17.1592 29.623L13.4609 26.4229C13.2893 26.2744 13.0867 26.1657 12.8682 26.1045L5.41016 24.0176C5.10437 23.9319 4.83259 23.7539 4.63184 23.5078L0.852539 18.875C0.649548 18.626 0.529227 18.3196 0.508789 17.999L0 10.0166L6.79297 0L5 13.1211C4.96292 13.3935 5.0739 13.6654 5.29102 13.834L10.2422 17.6777C10.4057 17.8047 10.6142 17.86 10.8193 17.832L19.8379 16.6045H25.2422L34.2607 17.832C34.4659 17.86 34.6744 17.8047 34.8379 17.6777L39.7891 13.834C40.0062 13.6653 40.1162 13.3935 40.0791 13.1211L38.2871 0L45.0801 10.0166Z" fill="#ED1F24"/>
</svg>
