<svg width="46" height="40" viewBox="0 0 46 40" fill="none" xmlns="http://www.w3.org/2000/svg">
<path d="M31.4231 40C29.9078 40 28.4546 39.3981 27.383 38.3265C26.3114 37.2549 25.7095 35.8017 25.7095 34.2864L25.7095 17.1457C25.7095 8.20392 30.4232 2.31036 39.2993 0.0906328C39.6641 -0.00364356 40.044 -0.0244909 40.4171 0.0286441C40.7902 0.082069 41.149 0.208618 41.473 0.401165C41.7969 0.593712 42.0798 0.848541 42.3049 1.15079C42.5297 1.45304 42.6928 1.79699 42.7845 2.16266C42.876 2.52805 42.8942 2.90829 42.8382 3.28082C42.7825 3.65363 42.6534 4.01158 42.4583 4.33411C42.2635 4.65664 42.0066 4.93747 41.7027 5.1603C41.399 5.38341 41.0539 5.54397 40.6877 5.63281C34.3256 7.22404 31.4231 10.8522 31.4231 17.1457L31.4231 20.0025L39.9935 20.0025C41.435 20.0019 42.8234 20.5464 43.8801 21.5266C44.9371 22.5067 45.5848 23.85 45.6928 25.2875L45.707 25.716L45.707 34.2864C45.707 35.8017 45.1051 37.2549 44.0335 38.3265C42.9619 39.3981 41.5087 40 39.9935 40L31.4231 40ZM5.71196 40C4.19672 40 2.74347 39.3981 1.67189 38.3265C0.600308 37.2549 -0.00161706 35.8017 -0.00161693 34.2864L-0.00161543 17.1457C-0.00161465 8.20392 4.71209 2.31036 13.5881 0.0906306C13.953 -0.00364581 14.3329 -0.0244931 14.706 0.0286419C15.0791 0.0820667 15.4379 0.208616 15.7619 0.401162C16.0858 0.593709 16.3687 0.848539 16.5938 1.15079C16.8186 1.45304 16.9817 1.79699 17.0734 2.16266C17.1648 2.52804 17.1831 2.90829 17.1271 3.28082C17.0714 3.65363 16.9423 4.01158 16.7472 4.33411C16.5523 4.65664 16.2955 4.93746 15.9916 5.16029C15.6879 5.38341 15.3428 5.54397 14.9765 5.63281C8.61447 7.22404 5.71197 10.8522 5.71197 17.1457L5.71197 20.0025L14.2823 20.0025C15.7239 20.0019 17.1123 20.5464 18.169 21.5266C19.226 22.5067 19.8736 23.85 19.9816 25.2875L19.9959 25.716L19.9959 34.2864C19.9959 35.8017 19.394 37.2549 18.3224 38.3265C17.2508 39.3981 15.7976 40 14.2823 40L5.71196 40Z" fill="#ED1F24"/>
</svg>
