<svg width="24" height="24" viewBox="0 0 24 24" fill="none" xmlns="http://www.w3.org/2000/svg">
<path d="M9.43806 6.06737C10.5784 4.02281 11.148 3 12.0003 3C12.8527 3 13.4223 4.02281 14.5626 6.06737L14.857 6.59678C15.181 7.17807 15.344 7.46818 15.596 7.65983C15.848 7.85147 16.1625 7.92241 16.7925 8.06535L17.3642 8.19453C19.5781 8.69534 20.6857 8.94628 20.9482 9.79333C21.2119 10.6404 20.457 11.5224 18.9471 13.2874L18.5575 13.7427C18.1287 14.2446 17.9148 14.4955 17.8174 14.8057C17.7221 15.116 17.7538 15.4506 17.8184 16.1187L17.8777 16.7285C18.1064 19.0833 18.2197 20.2607 17.5304 20.7838C16.8412 21.3079 15.8046 20.8304 13.7325 19.8764L13.1957 19.6286C12.607 19.3576 12.3127 19.222 12.0003 19.222C11.688 19.222 11.3937 19.3576 10.8039 19.6286L10.2682 19.8764C8.19609 20.8293 7.15953 21.3079 6.47026 20.7838C5.78098 20.2607 5.89533 19.0833 6.12297 16.7285L6.18226 16.1197C6.24685 15.4506 6.27967 15.116 6.18226 14.8068C6.08697 14.4955 5.87204 14.2456 5.44322 13.7438L5.05253 13.2863C3.54374 11.5224 2.78882 10.6393 3.0514 9.79227C3.3161 8.94522 4.42254 8.69534 6.63649 8.19453L7.20824 8.06535C7.83822 7.92241 8.15268 7.85147 8.40468 7.65983C8.65773 7.46924 8.81972 7.17807 9.14372 6.59678L9.43806 6.06737Z" fill="#ED1F24"/>
</svg>
