<svg width="24" height="24" viewBox="0 0 24 24" fill="none" xmlns="http://www.w3.org/2000/svg">
<path d="M11.4166 4.77571C12.1106 3.00571 12.4586 2.11971 13.1846 2.01071C13.9106 1.90071 14.5346 2.64071 15.7846 4.11971L16.1076 4.50171C16.4626 4.92171 16.6396 5.13171 16.8806 5.25171C17.1226 5.37171 17.4006 5.38871 17.9556 5.42171L18.4616 5.45071C20.4166 5.56471 21.3936 5.62271 21.7326 6.26071C22.0726 6.90071 21.5486 7.69871 20.5016 9.29371L20.2306 9.70671C19.9326 10.1597 19.7836 10.3867 19.7436 10.6457C19.7036 10.9037 19.7766 11.1657 19.9226 11.6887L20.0546 12.1657C20.5686 14.0077 20.8246 14.9277 20.3086 15.4317C19.7916 15.9367 18.8436 15.6897 16.9476 15.1967L16.4576 15.0697C15.9176 14.9297 15.6486 14.8597 15.3826 14.8997C15.1166 14.9397 14.8836 15.0847 14.4186 15.3757L13.9946 15.6407C12.3566 16.6647 11.5386 17.1767 10.8796 16.8487C10.2206 16.5217 10.1596 15.5717 10.0346 13.6717L10.0016 13.1797C9.96665 12.6397 9.94864 12.3697 9.82465 12.1357C9.70064 11.9017 9.48465 11.7297 9.05065 11.3857L8.65565 11.0737C7.12965 9.86471 6.36665 9.25971 6.47665 8.55371C6.58665 7.84671 7.49664 7.50671 9.31565 6.82471L9.78565 6.64871C10.3036 6.45471 10.5616 6.35871 10.7506 6.17371C10.9406 5.98871 11.0386 5.73671 11.2366 5.23371L11.4166 4.77571ZM5.14665 9.59271C2.70865 11.9197 1.11165 15.8057 2.16665 21.9997C3.11065 19.3967 5.69365 17.2397 8.74865 15.9527C8.64165 15.3597 8.59465 14.6357 8.54465 13.8727L8.50565 13.2777C8.49638 13.1343 8.48571 12.9909 8.47365 12.8477C8.3562 12.7509 8.23787 12.6553 8.11865 12.5607L7.64365 12.1857C6.95065 11.6357 6.30465 11.1257 5.86065 10.6537C5.60765 10.3847 5.32465 10.0297 5.14665 9.59271Z" fill="#ED1F24"/>
<path d="M10.1791 15.4226L10.1641 15.3086L10.2201 15.4096L10.1791 15.4226Z" fill="#ED1F24"/>
</svg>
