<svg width="24" height="24" viewBox="0 0 24 24" fill="none" xmlns="http://www.w3.org/2000/svg">
<path d="M10.0809 7.89605C11.1579 5.96505 11.6959 4.99905 12.5009 4.99905C13.3059 4.99905 13.8439 5.96505 14.9209 7.89605L15.1989 8.39605C15.5049 8.94505 15.6589 9.21905 15.8969 9.40005C16.1349 9.58105 16.4319 9.64805 17.0269 9.78305L17.5669 9.90505C19.6579 10.378 20.7039 10.615 20.9519 11.415C21.2009 12.215 20.4879 13.048 19.0619 14.715L18.6939 15.145C18.2889 15.619 18.0869 15.856 17.9949 16.149C17.9049 16.442 17.9349 16.758 17.9959 17.389L18.0519 17.965C18.2679 20.189 18.3749 21.301 17.7239 21.795C17.0729 22.29 16.0939 21.839 14.1369 20.938L13.6299 20.704C13.0739 20.448 12.7959 20.32 12.5009 20.32C12.2059 20.32 11.9279 20.448 11.3709 20.704L10.8649 20.938C8.90788 21.838 7.92888 22.29 7.27788 21.795C6.62688 21.301 6.73488 20.189 6.94988 17.965L7.00588 17.39C7.06688 16.758 7.09788 16.442 7.00588 16.15C6.91588 15.856 6.71288 15.62 6.30788 15.146L5.93888 14.714C4.51388 13.048 3.80088 12.214 4.04888 11.414C4.29888 10.614 5.34388 10.378 7.43488 9.90505L7.97488 9.78305C8.56988 9.64805 8.86688 9.58105 9.10488 9.40005C9.34388 9.22005 9.49688 8.94505 9.80288 8.39605L10.0809 7.89605ZM4.86888 2.49905C4.89888 2.39405 5.08588 2.39305 5.11688 2.49905C5.25688 2.98105 5.51688 3.69305 5.90988 4.08405C6.30288 4.47405 7.01788 4.73005 7.49988 4.86705C7.60688 4.89705 7.60688 5.08405 7.50188 5.11505C7.01988 5.25505 6.30688 5.51505 5.91588 5.90805C5.52588 6.30105 5.27088 7.01605 5.13388 7.49805C5.10388 7.60505 4.91588 7.60505 4.88488 7.50005C4.74488 7.01805 4.48488 6.30505 4.09188 5.91405C3.69888 5.52405 2.98488 5.26905 2.50188 5.13205C2.39588 5.10205 2.39488 4.91405 2.50088 4.88305C2.98288 4.74305 3.69488 4.48305 4.08588 4.09005C4.47588 3.69705 4.73188 2.98205 4.86888 2.49905Z" fill="#ED1F24"/>
<path fill-rule="evenodd" clip-rule="evenodd" d="M19 3.25C19.1989 3.25 19.3897 3.32902 19.5303 3.46967C19.671 3.61032 19.75 3.80109 19.75 4V4.25H20C20.1989 4.25 20.3897 4.32902 20.5303 4.46967C20.671 4.61032 20.75 4.80109 20.75 5C20.75 5.19891 20.671 5.38968 20.5303 5.53033C20.3897 5.67098 20.1989 5.75 20 5.75H19.75V6C19.75 6.19891 19.671 6.38968 19.5303 6.53033C19.3897 6.67098 19.1989 6.75 19 6.75C18.8011 6.75 18.6103 6.67098 18.4697 6.53033C18.329 6.38968 18.25 6.19891 18.25 6V5.75H18C17.8011 5.75 17.6103 5.67098 17.4697 5.53033C17.329 5.38968 17.25 5.19891 17.25 5C17.25 4.80109 17.329 4.61032 17.4697 4.46967C17.6103 4.32902 17.8011 4.25 18 4.25H18.25V4C18.25 3.80109 18.329 3.61032 18.4697 3.46967C18.6103 3.32902 18.8011 3.25 19 3.25Z" fill="#ED1F24"/>
</svg>
