<svg width="24" height="24" viewBox="0 0 24 24" fill="none" xmlns="http://www.w3.org/2000/svg">
<path d="M11.9807 6.727C12.9937 4.909 13.5007 4 14.2577 4C15.0157 4 15.5227 4.909 16.5357 6.727L16.7977 7.197C17.0857 7.714 17.2297 7.972 17.4537 8.142C17.6787 8.312 17.9587 8.376 18.5177 8.502L19.0267 8.618C20.9947 9.063 21.9777 9.286 22.2127 10.038C22.4467 10.791 21.7757 11.575 20.4337 13.144L20.0867 13.55C19.7067 13.996 19.5157 14.219 19.4297 14.494C19.3437 14.77 19.3727 15.067 19.4297 15.662L19.4827 16.204C19.6857 18.297 19.7867 19.344 19.1737 19.808C18.5617 20.273 17.6397 19.849 15.7977 19.001L15.3207 18.781C14.7977 18.541 14.5357 18.42 14.2577 18.42C13.9807 18.42 13.7187 18.54 13.1957 18.782L12.7187 19.002C10.8767 19.849 9.95471 20.273 9.34271 19.808C8.72971 19.343 8.83071 18.297 9.03371 16.204L9.08571 15.662C9.14371 15.067 9.17271 14.77 9.08671 14.494C9.00071 14.219 8.81071 13.996 8.42971 13.55L8.08271 13.144C6.74071 11.575 6.06971 10.791 6.30371 10.038C6.53871 9.286 7.52171 9.063 9.48971 8.618L9.99971 8.503C10.5577 8.376 10.8377 8.313 11.0617 8.143C11.2867 7.972 11.4307 7.713 11.7187 7.197L11.9807 6.727Z" fill="#ED1F24"/>
<path fill-rule="evenodd" clip-rule="evenodd" d="M8.91105 5.20289C6.92905 4.63289 4.80405 4.93389 2.75305 6.13489L2.54505 6.25689C2.37372 6.35245 2.17178 6.37709 1.9825 6.32551C1.79323 6.27393 1.6317 6.15025 1.53255 5.98098C1.43339 5.81171 1.4045 5.61033 1.45208 5.42001C1.49965 5.22969 1.6199 5.06559 1.78705 4.96289L1.99505 4.84089C4.35505 3.45789 6.90305 3.06389 9.32605 3.76189L9.53405 3.82189C9.72084 3.88057 9.87729 4.00998 9.96995 4.18246C10.0626 4.35494 10.0842 4.55682 10.03 4.74497C9.97578 4.93312 9.85017 5.09262 9.67996 5.1894C9.50975 5.28617 9.30844 5.31255 9.11905 5.26289L8.91105 5.20289ZM5.00105 9.93689C5.01795 10.135 4.9555 10.3317 4.82743 10.4838C4.69935 10.6358 4.51614 10.7308 4.31805 10.7479C4.16505 10.7619 4.04805 10.7679 3.94905 10.7749C3.80012 10.7807 3.65177 10.7967 3.50505 10.8229C3.30805 10.8609 3.05305 10.9399 2.59005 11.1719C2.50183 11.2168 2.40561 11.2438 2.30691 11.2513C2.20822 11.2588 2.10901 11.2468 2.015 11.2158C1.921 11.1848 1.83406 11.1355 1.75919 11.0707C1.68433 11.006 1.62302 10.9271 1.57881 10.8385C1.5346 10.7499 1.50835 10.6535 1.50158 10.5548C1.49482 10.456 1.50767 10.3569 1.53939 10.2631C1.57111 10.1694 1.62108 10.0828 1.68641 10.0085C1.75174 9.9341 1.83115 9.87341 1.92005 9.82989C2.45605 9.56189 2.84605 9.42189 3.22205 9.34989C3.46905 9.30189 3.72405 9.28589 3.95205 9.26989L4.19105 9.25389C4.38898 9.23726 4.58543 9.29984 4.73729 9.42789C4.88914 9.55593 4.984 9.73899 5.00105 9.93689ZM6.08305 15.8569C5.50319 15.7198 4.89998 15.7145 4.3178 15.8413C3.73562 15.9682 3.1893 16.224 2.71905 16.5899C2.56283 16.7131 2.36408 16.7692 2.16651 16.7458C1.96894 16.7225 1.78874 16.6216 1.66555 16.4654C1.54235 16.3092 1.48626 16.1104 1.50961 15.9129C1.53296 15.7153 1.63383 15.5351 1.79005 15.4119C2.43748 14.9064 3.19018 14.5527 3.99259 14.377C4.795 14.2014 5.62661 14.2081 6.42605 14.3969C6.61652 14.4453 6.78038 14.5666 6.88235 14.7346C6.98433 14.9026 7.01628 15.104 6.97133 15.2953C6.92638 15.4866 6.80812 15.6527 6.642 15.7577C6.47588 15.8627 6.27517 15.8983 6.08305 15.8569Z" fill="#ED1F24"/>
</svg>
