<svg viewBox="0 0 300 50" fill="none" xmlns="http://www.w3.org/2000/svg" preserveAspectRatio="xMinYMid meet">
<g clip-path="url(#clip0_605_6139)">
<path d="M70.9494 17.517L65.8864 31.791H61.5351L56.4721 17.517H60.1727L63.7107 28.2937L67.2691 17.517H70.9494ZM77.5673 31.9537C76.4557 31.9537 75.4526 31.7165 74.5579 31.242C73.6768 30.7676 72.9787 30.0898 72.4636 29.2087C71.962 28.3276 71.7113 27.2973 71.7113 26.118C71.7113 24.9522 71.9688 23.9288 72.4839 23.0477C72.999 22.153 73.7039 21.4685 74.5986 20.994C75.4933 20.5196 76.4964 20.2823 77.6079 20.2823C78.7195 20.2823 79.7226 20.5196 80.6173 20.994C81.5119 21.4685 82.2168 22.153 82.7319 23.0477C83.247 23.9288 83.5046 24.9522 83.5046 26.118C83.5046 27.2838 83.2403 28.314 82.7116 29.2087C82.1965 30.0898 81.4848 30.7676 80.5766 31.242C79.6819 31.7165 78.6788 31.9537 77.5673 31.9537ZM77.5673 28.9443C78.2315 28.9443 78.794 28.7003 79.2549 28.2123C79.7294 27.7243 79.9666 27.0262 79.9666 26.118C79.9666 25.2098 79.7362 24.5117 79.2753 24.0237C78.8279 23.5357 78.2722 23.2917 77.6079 23.2917C76.9302 23.2917 76.3676 23.5357 75.9203 24.0237C75.4729 24.4981 75.2493 25.1962 75.2493 26.118C75.2493 27.0262 75.4662 27.7243 75.8999 28.2123C76.3473 28.7003 76.903 28.9443 77.5673 28.9443ZM88.8262 16.7443V31.791H85.3492V16.7443H88.8262ZM102.55 20.445V31.791H99.0726V30.2457C98.7202 30.7472 98.239 31.1539 97.629 31.4657C97.0325 31.7639 96.3683 31.913 95.6363 31.913C94.7687 31.913 94.0028 31.7232 93.3386 31.3437C92.6744 30.9506 92.1593 30.388 91.7933 29.656C91.4273 28.924 91.2443 28.0632 91.2443 27.0737V20.445H94.701V26.606C94.701 27.3651 94.8975 27.9548 95.2906 28.375C95.6837 28.7952 96.2124 29.0053 96.8766 29.0053C97.5544 29.0053 98.0898 28.7952 98.483 28.375C98.8761 27.9548 99.0726 27.3651 99.0726 26.606V20.445H102.55ZM119.524 20.323C120.934 20.323 122.053 20.75 122.879 21.604C123.72 22.458 124.14 23.6441 124.14 25.1623V31.791H120.683V25.63C120.683 24.898 120.487 24.3355 120.094 23.9423C119.714 23.5357 119.186 23.3323 118.508 23.3323C117.83 23.3323 117.295 23.5357 116.901 23.9423C116.522 24.3355 116.332 24.898 116.332 25.63V31.791H112.875V25.63C112.875 24.898 112.679 24.3355 112.286 23.9423C111.906 23.5357 111.378 23.3323 110.7 23.3323C110.022 23.3323 109.487 23.5357 109.093 23.9423C108.714 24.3355 108.524 24.898 108.524 25.63V31.791H105.047V20.445H108.524V21.8683C108.877 21.3939 109.337 21.0211 109.907 20.75C110.476 20.4653 111.12 20.323 111.838 20.323C112.692 20.323 113.452 20.506 114.116 20.872C114.794 21.238 115.322 21.7599 115.702 22.4377C116.095 21.8141 116.63 21.3058 117.308 20.9127C117.986 20.5196 118.725 20.323 119.524 20.323ZM137.267 25.935C137.267 26.2603 137.247 26.5992 137.206 26.9517H129.337C129.391 27.6566 129.615 28.1988 130.008 28.5783C130.415 28.9443 130.91 29.1273 131.493 29.1273C132.36 29.1273 132.963 28.7613 133.302 28.0293H137.003C136.813 28.7749 136.467 29.4459 135.966 30.0423C135.478 30.6388 134.861 31.1065 134.116 31.4453C133.37 31.7842 132.536 31.9537 131.615 31.9537C130.503 31.9537 129.513 31.7165 128.646 31.242C127.778 30.7676 127.101 30.0898 126.613 29.2087C126.125 28.3276 125.881 27.2973 125.881 26.118C125.881 24.9387 126.118 23.9085 126.592 23.0273C127.08 22.1462 127.758 21.4685 128.626 20.994C129.493 20.5196 130.489 20.2823 131.615 20.2823C132.713 20.2823 133.689 20.5128 134.543 20.9737C135.397 21.4346 136.061 22.092 136.535 22.946C137.023 23.8 137.267 24.7963 137.267 25.935ZM133.709 25.02C133.709 24.4236 133.506 23.9491 133.099 23.5967C132.692 23.2442 132.184 23.068 131.574 23.068C130.991 23.068 130.496 23.2375 130.09 23.5763C129.696 23.9152 129.452 24.3965 129.358 25.02H133.709ZM144.449 17.517C145.954 17.517 147.269 17.8152 148.394 18.4117C149.519 19.0081 150.386 19.8486 150.996 20.933C151.62 22.0039 151.932 23.2442 151.932 24.654C151.932 26.0502 151.62 27.2906 150.996 28.375C150.386 29.4595 149.512 30.2999 148.373 30.8963C147.248 31.4928 145.94 31.791 144.449 31.791H139.101V17.517H144.449ZM144.225 28.7817C145.54 28.7817 146.564 28.4225 147.296 27.704C148.028 26.9856 148.394 25.9689 148.394 24.654C148.394 23.3391 148.028 22.3157 147.296 21.5837C146.564 20.8517 145.54 20.4857 144.225 20.4857H142.578V28.7817H144.225ZM153.184 26.0977C153.184 24.9319 153.4 23.9085 153.834 23.0273C154.282 22.1462 154.885 21.4685 155.644 20.994C156.403 20.5196 157.25 20.2823 158.186 20.2823C158.985 20.2823 159.683 20.445 160.28 20.7703C160.89 21.0957 161.358 21.5227 161.683 22.0513V20.445H165.16V31.791H161.683V30.1847C161.344 30.7133 160.87 31.1403 160.26 31.4657C159.663 31.791 158.965 31.9537 158.165 31.9537C157.243 31.9537 156.403 31.7165 155.644 31.242C154.885 30.754 154.282 30.0695 153.834 29.1883C153.4 28.2937 153.184 27.2635 153.184 26.0977ZM161.683 26.118C161.683 25.2505 161.439 24.5659 160.951 24.0643C160.476 23.5628 159.894 23.312 159.202 23.312C158.511 23.312 157.921 23.5628 157.433 24.0643C156.959 24.5523 156.722 25.2301 156.722 26.0977C156.722 26.9652 156.959 27.6566 157.433 28.1717C157.921 28.6732 158.511 28.924 159.202 28.924C159.894 28.924 160.476 28.6732 160.951 28.1717C161.439 27.6701 161.683 26.9856 161.683 26.118ZM179.265 20.445L172.149 37.1793H168.407L171.01 31.4047L166.394 20.445H170.278L172.901 27.5413L175.504 20.445H179.265ZM190.791 17.517V20.3027H187.009V31.791H183.532V20.3027H179.75V17.517H190.791ZM196.013 22.336C196.42 21.7125 196.928 21.2245 197.538 20.872C198.148 20.506 198.826 20.323 199.571 20.323V24.0033H198.616C197.748 24.0033 197.098 24.1931 196.664 24.5727C196.23 24.9387 196.013 25.5893 196.013 26.5247V31.791H192.536V20.445H196.013V22.336ZM200.542 26.0977C200.542 24.9319 200.759 23.9085 201.193 23.0273C201.64 22.1462 202.243 21.4685 203.002 20.994C203.761 20.5196 204.609 20.2823 205.544 20.2823C206.344 20.2823 207.042 20.445 207.638 20.7703C208.248 21.0957 208.716 21.5227 209.041 22.0513V20.445H212.518V31.791H209.041V30.1847C208.702 30.7133 208.228 31.1403 207.618 31.4657C207.022 31.791 206.323 31.9537 205.524 31.9537C204.602 31.9537 203.761 31.7165 203.002 31.242C202.243 30.754 201.64 30.0695 201.193 29.1883C200.759 28.2937 200.542 27.2635 200.542 26.0977ZM209.041 26.118C209.041 25.2505 208.797 24.5659 208.309 24.0643C207.835 23.5628 207.252 23.312 206.561 23.312C205.869 23.312 205.28 23.5628 204.792 24.0643C204.317 24.5523 204.08 25.2301 204.08 26.0977C204.08 26.9652 204.317 27.6566 204.792 28.1717C205.28 28.6732 205.869 28.924 206.561 28.924C207.252 28.924 207.835 28.6732 208.309 28.1717C208.797 27.6701 209.041 26.9856 209.041 26.118ZM214.342 26.0977C214.342 24.9319 214.559 23.9085 214.993 23.0273C215.44 22.1462 216.044 21.4685 216.803 20.994C217.562 20.5196 218.409 20.2823 219.344 20.2823C220.09 20.2823 220.768 20.4382 221.378 20.75C222.001 21.0618 222.489 21.482 222.842 22.0107V16.7443H226.319V31.791H222.842V30.1643C222.516 30.7066 222.049 31.1403 221.439 31.4657C220.842 31.791 220.144 31.9537 219.344 31.9537C218.409 31.9537 217.562 31.7165 216.803 31.242C216.044 30.754 215.44 30.0695 214.993 29.1883C214.559 28.2937 214.342 27.2635 214.342 26.0977ZM222.842 26.118C222.842 25.2505 222.598 24.5659 222.11 24.0643C221.635 23.5628 221.052 23.312 220.361 23.312C219.67 23.312 219.08 23.5628 218.592 24.0643C218.118 24.5523 217.88 25.2301 217.88 26.0977C217.88 26.9652 218.118 27.6566 218.592 28.1717C219.08 28.6732 219.67 28.924 220.361 28.924C221.052 28.924 221.635 28.6732 222.11 28.1717C222.598 27.6701 222.842 26.9856 222.842 26.118ZM239.53 25.935C239.53 26.2603 239.509 26.5992 239.469 26.9517H231.6C231.654 27.6566 231.877 28.1988 232.271 28.5783C232.677 28.9443 233.172 29.1273 233.755 29.1273C234.622 29.1273 235.226 28.7613 235.565 28.0293H239.265C239.075 28.7749 238.73 29.4459 238.228 30.0423C237.74 30.6388 237.123 31.1065 236.378 31.4453C235.632 31.7842 234.799 31.9537 233.877 31.9537C232.765 31.9537 231.776 31.7165 230.908 31.242C230.041 30.7676 229.363 30.0898 228.875 29.2087C228.387 28.3276 228.143 27.2973 228.143 26.118C228.143 24.9387 228.38 23.9085 228.855 23.0273C229.343 22.1462 230.02 21.4685 230.888 20.994C231.755 20.5196 232.752 20.2823 233.877 20.2823C234.975 20.2823 235.951 20.5128 236.805 20.9737C237.659 21.4346 238.323 22.092 238.798 22.946C239.286 23.8 239.53 24.7963 239.53 25.935ZM235.971 25.02C235.971 24.4236 235.768 23.9491 235.361 23.5967C234.955 23.2442 234.446 23.068 233.836 23.068C233.253 23.068 232.759 23.2375 232.352 23.5763C231.959 23.9152 231.715 24.3965 231.62 25.02H235.971ZM244.841 22.336C245.248 21.7125 245.756 21.2245 246.366 20.872C246.976 20.506 247.654 20.323 248.399 20.323V24.0033H247.444C246.576 24.0033 245.925 24.1931 245.492 24.5727C245.058 24.9387 244.841 25.5893 244.841 26.5247V31.791H241.364V20.445H244.841V22.336ZM251.688 31.9537C251.078 31.9537 250.576 31.7775 250.183 31.425C249.804 31.059 249.614 30.6117 249.614 30.083C249.614 29.5408 249.804 29.0867 250.183 28.7207C250.576 28.3547 251.078 28.1717 251.688 28.1717C252.284 28.1717 252.772 28.3547 253.152 28.7207C253.545 29.0867 253.741 29.5408 253.741 30.083C253.741 30.6117 253.545 31.059 253.152 31.425C252.772 31.7775 252.284 31.9537 251.688 31.9537Z" fill="white"/>
<path d="M255.108 26.118C255.108 24.9387 255.346 23.9085 255.82 23.0273C256.308 22.1462 256.979 21.4685 257.833 20.994C258.701 20.5196 259.69 20.2823 260.802 20.2823C262.225 20.2823 263.411 20.6551 264.36 21.4007C265.323 22.1462 265.953 23.1968 266.251 24.5523H262.55C262.239 23.6848 261.635 23.251 260.741 23.251C260.104 23.251 259.595 23.5018 259.216 24.0033C258.836 24.4913 258.646 25.1962 258.646 26.118C258.646 27.0398 258.836 27.7515 259.216 28.253C259.595 28.741 260.104 28.985 260.741 28.985C261.635 28.985 262.239 28.5512 262.55 27.6837H266.251C265.953 29.0121 265.323 30.0559 264.36 30.815C263.398 31.5741 262.212 31.9537 260.802 31.9537C259.69 31.9537 258.701 31.7165 257.833 31.242C256.979 30.7676 256.308 30.0898 255.82 29.2087C255.346 28.3276 255.108 27.2973 255.108 26.118ZM273.276 31.9537C272.164 31.9537 271.161 31.7165 270.266 31.242C269.385 30.7676 268.687 30.0898 268.172 29.2087C267.67 28.3276 267.42 27.2973 267.42 26.118C267.42 24.9522 267.677 23.9288 268.192 23.0477C268.707 22.153 269.412 21.4685 270.307 20.994C271.202 20.5196 272.205 20.2823 273.316 20.2823C274.428 20.2823 275.431 20.5196 276.326 20.994C277.22 21.4685 277.925 22.153 278.44 23.0477C278.955 23.9288 279.213 24.9522 279.213 26.118C279.213 27.2838 278.949 28.314 278.42 29.2087C277.905 30.0898 277.193 30.7676 276.285 31.242C275.39 31.7165 274.387 31.9537 273.276 31.9537ZM273.276 28.9443C273.94 28.9443 274.502 28.7003 274.963 28.2123C275.438 27.7243 275.675 27.0262 275.675 26.118C275.675 25.2098 275.444 24.5117 274.984 24.0237C274.536 23.5357 273.98 23.2917 273.316 23.2917C272.638 23.2917 272.076 23.5357 271.629 24.0237C271.181 24.4981 270.958 25.1962 270.958 26.118C270.958 27.0262 271.174 27.7243 271.608 28.2123C272.056 28.7003 272.611 28.9443 273.276 28.9443ZM295.535 20.323C296.945 20.323 298.063 20.75 298.89 21.604C299.73 22.458 300.151 23.6441 300.151 25.1623V31.791H296.694V25.63C296.694 24.898 296.497 24.3355 296.104 23.9423C295.725 23.5357 295.196 23.3323 294.518 23.3323C293.84 23.3323 293.305 23.5357 292.912 23.9423C292.532 24.3355 292.343 24.898 292.343 25.63V31.791H288.886V25.63C288.886 24.898 288.689 24.3355 288.296 23.9423C287.917 23.5357 287.388 23.3323 286.71 23.3323C286.032 23.3323 285.497 23.5357 285.104 23.9423C284.724 24.3355 284.535 24.898 284.535 25.63V31.791H281.058V20.445H284.535V21.8683C284.887 21.3939 285.348 21.0211 285.917 20.75C286.487 20.4653 287.13 20.323 287.849 20.323C288.703 20.323 289.462 20.506 290.126 20.872C290.804 21.238 291.333 21.7599 291.712 22.4377C292.105 21.8141 292.641 21.3058 293.319 20.9127C293.996 20.5196 294.735 20.323 295.535 20.323Z" fill="#ED1F24"/>
<path d="M49 10.8877L48.4473 19.5645C48.425 19.913 48.294 20.2459 48.0732 20.5166L43.9658 25.5518C43.7475 25.8193 43.4517 26.0134 43.1191 26.1064L35.0137 28.375C34.7761 28.4415 34.5558 28.5593 34.3691 28.7207L30.3486 32.1982C29.8712 32.6113 29.5201 33.151 29.3359 33.7549L29.1602 34.332C29.1157 34.4796 29.278 34.6038 29.4092 34.5225L33.3857 32.0586C33.6089 31.9204 33.8975 32.0812 33.8975 32.3438V38.6094L31.8574 41.1113C31.2712 41.8303 30.8952 42.6978 30.7715 43.6172L30.3379 46.8359C30.256 47.444 29.8486 47.959 29.2754 48.1777L24.5 50L19.7246 48.1777C19.1514 47.959 18.744 47.444 18.6621 46.8359L18.2285 43.6172C18.1048 42.6978 17.7288 41.8303 17.1426 41.1113L15.1025 38.6094V32.3438C15.1025 32.0813 15.3911 31.9205 15.6143 32.0586L19.5908 34.5225C19.722 34.6038 19.8844 34.4796 19.8398 34.332L19.6641 33.7549C19.4799 33.151 19.1288 32.6113 18.6514 32.1982L14.6309 28.7207C14.4442 28.5593 14.2239 28.4415 13.9863 28.375L5.88086 26.1064C5.54832 26.0134 5.25246 25.8193 5.03418 25.5518L0.926758 20.5166C0.706023 20.246 0.575935 19.913 0.553711 19.5645L0 10.8877L7.38379 0L5.43555 14.2617C5.39508 14.5579 5.51579 14.8538 5.75195 15.0371L11.1328 19.2148C11.3106 19.3528 11.5368 19.4132 11.7598 19.3828L21.5635 18.0488H27.4365L37.2402 19.3828C37.4632 19.4132 37.6894 19.3528 37.8672 19.2148L43.249 15.0371C43.4851 14.8538 43.6049 14.5579 43.5645 14.2617L41.6162 0L49 10.8877Z" fill="#ED1F24"/>
<path d="M183.449 43.167C183.169 43.167 182.917 43.119 182.693 43.023C182.469 42.923 182.293 42.783 182.165 42.603C182.037 42.423 181.973 42.213 181.973 41.973H182.705C182.721 42.153 182.791 42.301 182.915 42.417C183.043 42.533 183.221 42.591 183.449 42.591C183.685 42.591 183.869 42.535 184.001 42.423C184.133 42.307 184.199 42.159 184.199 41.979C184.199 41.839 184.157 41.725 184.073 41.637C183.993 41.549 183.891 41.481 183.767 41.433C183.647 41.385 183.479 41.333 183.263 41.277C182.991 41.205 182.769 41.133 182.597 41.061C182.429 40.985 182.285 40.869 182.165 40.713C182.045 40.557 181.985 40.349 181.985 40.089C181.985 39.849 182.045 39.639 182.165 39.459C182.285 39.279 182.453 39.141 182.669 39.045C182.885 38.949 183.135 38.901 183.419 38.901C183.823 38.901 184.153 39.003 184.409 39.207C184.669 39.407 184.813 39.683 184.841 40.035H184.085C184.073 39.883 184.001 39.753 183.869 39.645C183.737 39.537 183.563 39.483 183.347 39.483C183.151 39.483 182.991 39.533 182.867 39.633C182.743 39.733 182.681 39.877 182.681 40.065C182.681 40.193 182.719 40.299 182.795 40.383C182.875 40.463 182.975 40.527 183.095 40.575C183.215 40.623 183.379 40.675 183.587 40.731C183.863 40.807 184.087 40.883 184.259 40.959C184.435 41.035 184.583 41.153 184.703 41.313C184.827 41.469 184.889 41.679 184.889 41.943C184.889 42.155 184.831 42.355 184.715 42.543C184.603 42.731 184.437 42.883 184.217 42.999C184.001 43.111 183.745 43.167 183.449 43.167ZM188.39 38.955V39.513H187.28V43.125H186.596V39.513H185.48V38.955H188.39ZM191.597 42.273H189.851L189.551 43.125H188.837L190.331 38.949H191.123L192.617 43.125H191.897L191.597 42.273ZM191.405 41.715L190.727 39.777L190.043 41.715H191.405ZM196.356 38.955L194.976 41.613V43.125H194.292V41.613L192.906 38.955H193.668L194.634 41.001L195.6 38.955H196.356ZM200.36 43.167C199.972 43.167 199.614 43.077 199.286 42.897C198.962 42.713 198.704 42.459 198.512 42.135C198.324 41.807 198.23 41.439 198.23 41.031C198.23 40.623 198.324 40.257 198.512 39.933C198.704 39.609 198.962 39.357 199.286 39.177C199.614 38.993 199.972 38.901 200.36 38.901C200.752 38.901 201.11 38.993 201.434 39.177C201.762 39.357 202.02 39.609 202.208 39.933C202.396 40.257 202.49 40.623 202.49 41.031C202.49 41.439 202.396 41.807 202.208 42.135C202.02 42.459 201.762 42.713 201.434 42.897C201.11 43.077 200.752 43.167 200.36 43.167ZM200.36 42.573C200.636 42.573 200.882 42.511 201.098 42.387C201.314 42.259 201.482 42.079 201.602 41.847C201.726 41.611 201.788 41.339 201.788 41.031C201.788 40.723 201.726 40.453 201.602 40.221C201.482 39.989 201.314 39.811 201.098 39.687C200.882 39.563 200.636 39.501 200.36 39.501C200.084 39.501 199.838 39.563 199.622 39.687C199.406 39.811 199.236 39.989 199.112 40.221C198.992 40.453 198.932 40.723 198.932 41.031C198.932 41.339 198.992 41.611 199.112 41.847C199.236 42.079 199.406 42.259 199.622 42.387C199.838 42.511 200.084 42.573 200.36 42.573ZM206.589 43.125H205.905L203.847 40.011V43.125H203.163V38.949H203.847L205.905 42.057V38.949H206.589V43.125ZM211.74 38.955V39.513H210.63V43.125H209.946V39.513H208.83V38.955H211.74ZM215.762 38.955V43.125H215.078V41.301H213.116V43.125H212.432V38.955H213.116V40.743H215.078V38.955H215.762ZM217.347 39.507V40.731H218.787V41.289H217.347V42.567H218.967V43.125H216.663V38.949H218.967V39.507H217.347ZM223.534 43.125L222.574 41.457H222.052V43.125H221.368V38.955H222.808C223.128 38.955 223.398 39.011 223.618 39.123C223.842 39.235 224.008 39.385 224.116 39.573C224.228 39.761 224.284 39.971 224.284 40.203C224.284 40.475 224.204 40.723 224.044 40.947C223.888 41.167 223.646 41.317 223.318 41.397L224.35 43.125H223.534ZM222.052 40.911H222.808C223.064 40.911 223.256 40.847 223.384 40.719C223.516 40.591 223.582 40.419 223.582 40.203C223.582 39.987 223.518 39.819 223.39 39.699C223.262 39.575 223.068 39.513 222.808 39.513H222.052V40.911ZM225.843 38.955V43.125H225.159V38.955H225.843ZM229.759 40.155C229.651 39.947 229.501 39.791 229.309 39.687C229.117 39.579 228.895 39.525 228.643 39.525C228.367 39.525 228.121 39.587 227.905 39.711C227.689 39.835 227.519 40.011 227.395 40.239C227.275 40.467 227.215 40.731 227.215 41.031C227.215 41.331 227.275 41.597 227.395 41.829C227.519 42.057 227.689 42.233 227.905 42.357C228.121 42.481 228.367 42.543 228.643 42.543C229.015 42.543 229.317 42.439 229.549 42.231C229.781 42.023 229.923 41.741 229.975 41.385H228.409V40.839H230.707V41.373C230.663 41.697 230.547 41.995 230.359 42.267C230.175 42.539 229.933 42.757 229.633 42.921C229.337 43.081 229.007 43.161 228.643 43.161C228.251 43.161 227.893 43.071 227.569 42.891C227.245 42.707 226.987 42.453 226.795 42.129C226.607 41.805 226.513 41.439 226.513 41.031C226.513 40.623 226.607 40.257 226.795 39.933C226.987 39.609 227.245 39.357 227.569 39.177C227.897 38.993 228.255 38.901 228.643 38.901C229.087 38.901 229.481 39.011 229.825 39.231C230.173 39.447 230.425 39.755 230.581 40.155H229.759ZM234.712 38.955V43.125H234.028V41.301H232.066V43.125H231.382V38.955H232.066V40.743H234.028V38.955H234.712ZM238.306 38.955V39.513H237.196V43.125H236.512V39.513H235.396V38.955H238.306ZM241.931 43.167C241.651 43.167 241.399 43.119 241.175 43.023C240.951 42.923 240.775 42.783 240.647 42.603C240.519 42.423 240.455 42.213 240.455 41.973H241.187C241.203 42.153 241.273 42.301 241.397 42.417C241.525 42.533 241.703 42.591 241.931 42.591C242.167 42.591 242.351 42.535 242.483 42.423C242.615 42.307 242.681 42.159 242.681 41.979C242.681 41.839 242.639 41.725 242.555 41.637C242.475 41.549 242.373 41.481 242.249 41.433C242.129 41.385 241.961 41.333 241.745 41.277C241.473 41.205 241.251 41.133 241.079 41.061C240.911 40.985 240.767 40.869 240.647 40.713C240.527 40.557 240.467 40.349 240.467 40.089C240.467 39.849 240.527 39.639 240.647 39.459C240.767 39.279 240.935 39.141 241.151 39.045C241.367 38.949 241.617 38.901 241.901 38.901C242.305 38.901 242.635 39.003 242.891 39.207C243.151 39.407 243.295 39.683 243.323 40.035H242.567C242.555 39.883 242.483 39.753 242.351 39.645C242.219 39.537 242.045 39.483 241.829 39.483C241.633 39.483 241.473 39.533 241.349 39.633C241.225 39.733 241.163 39.877 241.163 40.065C241.163 40.193 241.201 40.299 241.277 40.383C241.357 40.463 241.457 40.527 241.577 40.575C241.697 40.623 241.861 40.675 242.069 40.731C242.345 40.807 242.569 40.883 242.741 40.959C242.917 41.035 243.065 41.153 243.185 41.313C243.309 41.469 243.371 41.679 243.371 41.943C243.371 42.155 243.313 42.355 243.197 42.543C243.085 42.731 242.919 42.883 242.699 42.999C242.483 43.111 242.227 43.167 241.931 43.167ZM244.863 38.955V43.125H244.179V38.955H244.863ZM247.123 38.955C247.567 38.955 247.955 39.041 248.287 39.213C248.623 39.381 248.881 39.625 249.061 39.945C249.245 40.261 249.337 40.631 249.337 41.055C249.337 41.479 249.245 41.847 249.061 42.159C248.881 42.471 248.623 42.711 248.287 42.879C247.955 43.043 247.567 43.125 247.123 43.125H245.761V38.955H247.123ZM247.123 42.567C247.611 42.567 247.985 42.435 248.245 42.171C248.505 41.907 248.635 41.535 248.635 41.055C248.635 40.571 248.505 40.193 248.245 39.921C247.985 39.649 247.611 39.513 247.123 39.513H246.445V42.567H247.123ZM250.698 39.507V40.731H252.138V41.289H250.698V42.567H252.318V43.125H250.014V38.949H252.318V39.507H250.698ZM256.622 43.167C256.234 43.167 255.876 43.077 255.548 42.897C255.224 42.713 254.966 42.459 254.774 42.135C254.586 41.807 254.492 41.439 254.492 41.031C254.492 40.623 254.586 40.257 254.774 39.933C254.966 39.609 255.224 39.357 255.548 39.177C255.876 38.993 256.234 38.901 256.622 38.901C257.014 38.901 257.372 38.993 257.696 39.177C258.024 39.357 258.282 39.609 258.47 39.933C258.658 40.257 258.752 40.623 258.752 41.031C258.752 41.439 258.658 41.807 258.47 42.135C258.282 42.459 258.024 42.713 257.696 42.897C257.372 43.077 257.014 43.167 256.622 43.167ZM256.622 42.573C256.898 42.573 257.144 42.511 257.36 42.387C257.576 42.259 257.744 42.079 257.864 41.847C257.988 41.611 258.05 41.339 258.05 41.031C258.05 40.723 257.988 40.453 257.864 40.221C257.744 39.989 257.576 39.811 257.36 39.687C257.144 39.563 256.898 39.501 256.622 39.501C256.346 39.501 256.1 39.563 255.884 39.687C255.668 39.811 255.498 39.989 255.374 40.221C255.254 40.453 255.194 40.723 255.194 41.031C255.194 41.339 255.254 41.611 255.374 41.847C255.498 42.079 255.668 42.259 255.884 42.387C256.1 42.511 256.346 42.573 256.622 42.573ZM261.879 38.955V39.513H260.109V40.743H261.489V41.301H260.109V43.125H259.425V38.955H261.879ZM266.765 38.955V39.513H265.655V43.125H264.971V39.513H263.855V38.955H266.765ZM270.788 38.955V43.125H270.104V41.301H268.142V43.125H267.458V38.955H268.142V40.743H270.104V38.955H270.788ZM272.372 39.507V40.731H273.812V41.289H272.372V42.567H273.992V43.125H271.688V38.949H273.992V39.507H272.372ZM280.785 38.955V43.125H280.101V40.269L278.829 43.125H278.355L277.077 40.269V43.125H276.393V38.955H277.131L278.595 42.225L280.053 38.955H280.785ZM284.198 42.273H282.452L282.152 43.125H281.438L282.932 38.949H283.724L285.218 43.125H284.498L284.198 42.273ZM284.006 41.715L283.328 39.777L282.644 41.715H284.006ZM288.034 43.125L287.074 41.457H286.552V43.125H285.868V38.955H287.308C287.628 38.955 287.898 39.011 288.118 39.123C288.342 39.235 288.508 39.385 288.616 39.573C288.728 39.761 288.784 39.971 288.784 40.203C288.784 40.475 288.704 40.723 288.544 40.947C288.388 41.167 288.146 41.317 287.818 41.397L288.85 43.125H288.034ZM286.552 40.911H287.308C287.564 40.911 287.756 40.847 287.884 40.719C288.016 40.591 288.082 40.419 288.082 40.203C288.082 39.987 288.018 39.819 287.89 39.699C287.762 39.575 287.568 39.513 287.308 39.513H286.552V40.911ZM291.957 43.125L290.343 41.259V43.125H289.659V38.955H290.343V40.857L291.963 38.955H292.821L291.009 41.043L292.851 43.125H291.957ZM294.14 39.507V40.731H295.58V41.289H294.14V42.567H295.76V43.125H293.456V38.949H295.76V39.507H294.14ZM299.296 38.955V39.513H298.186V43.125H297.502V39.513H296.386V38.955H299.296Z" fill="white"/>
<rect x="56.2891" y="40.291" width="119.167" height="0.666667" fill="#D9D9D9"/>
</g>
<defs>
<clipPath id="clip0_605_6139">
<rect width="300" height="50" fill="white"/>
</clipPath>
</defs>
</svg>
