<svg width="8" height="14" viewBox="0 0 8 14" fill="none" xmlns="http://www.w3.org/2000/svg">
<path d="M0.347277 11.2161C0.135564 11.4405 0.0196914 11.7387 0.0242691 12.0472C0.0288468 12.3557 0.153514 12.6503 0.371793 12.8683C0.590072 13.0864 0.884764 13.2108 1.19328 13.2151C1.5018 13.2194 1.79983 13.1032 2.02408 12.8913L7.11208 7.80328C7.4259 7.48916 7.60219 7.0633 7.60219 6.61928C7.60219 6.17525 7.4259 5.74939 7.11208 5.43528L2.02408 0.347277C1.80172 0.124919 1.50014 -2.34292e-09 1.18568 0C0.871216 2.34292e-09 0.569634 0.124919 0.347277 0.347277C0.124919 0.569634 2.34292e-09 0.871216 0 1.18568C-2.34292e-09 1.50014 0.124919 1.80172 0.347277 2.02408L4.93928 6.61928L0.347277 11.2161Z" fill="#A7ADBE"/>
</svg>
