<svg viewBox="0 0 32 32" fill="none" xmlns="http://www.w3.org/2000/svg">
<g clip-path="url(#clip0_550_8838)">
<path d="M29.0552 0H14.9964C13.3694 0 12.0508 1.31888 12.0508 2.94556V9.87056C12.794 10.2399 13.597 10.6394 14.3465 11.0119L15.4932 8.71756C16.1876 7.33006 17.8802 6.76631 19.2672 7.45944C20.657 8.15506 21.2203 9.843 20.5245 11.2332L18.4803 15.3226C18.535 15.8653 18.4853 16.4135 18.3338 16.9375H19.6834L16.1238 26.7256C15.9126 27.3061 16.3208 27.9836 17.0052 27.9836C17.3877 27.9836 17.7477 27.7476 17.8858 27.3662L21.6783 16.9375H22.3353L26.1663 27.3694C26.3057 27.7488 26.6646 27.9836 27.0469 27.9836C27.6863 27.9836 28.155 27.345 27.9263 26.7231L24.3326 16.9375H29.0553C30.6819 16.9375 32.0008 15.6186 32.0008 13.9919V2.94563C32.0008 1.31888 30.6819 0 29.0552 0ZM27.0465 12.9211H22.8402C22.3225 12.9211 21.9027 12.5013 21.9027 11.9836C21.9027 11.4656 22.3225 11.0461 22.8402 11.0461H27.0464C27.5645 11.0461 27.9839 11.4656 27.9839 11.9836C27.9839 12.5013 27.5646 12.9211 27.0465 12.9211ZM27.0465 9.40625H22.8402C22.3225 9.40625 21.9027 8.98687 21.9027 8.46875C21.9027 7.95119 22.3225 7.53125 22.8402 7.53125H27.0464C27.5645 7.53125 27.9839 7.95119 27.9839 8.46875C27.9839 8.98687 27.5646 9.40625 27.0465 9.40625ZM27.0465 5.89187H17.0052C16.487 5.89187 16.0677 5.47187 16.0677 4.95437C16.0677 4.43687 16.487 4.01687 17.0052 4.01687H27.0464C27.5645 4.01687 27.9839 4.43675 27.9839 4.95437C27.9839 5.472 27.5645 5.89187 27.0465 5.89187Z" fill="currentColor"/>
<path d="M16.4951 16.5354C16.6645 16.0391 16.6633 15.5205 16.5203 15.0474L18.8469 10.3945C19.0784 9.93137 18.8909 9.36819 18.4277 9.13669C17.9649 8.905 17.4016 9.09275 17.1699 9.55594L15.1856 13.5242C13.9995 12.9336 12.1975 12.0376 10.7459 11.3157C9.39525 10.6441 8.43137 10.0417 6.78687 10.0417H5.9585C7.239 10.0417 8.38181 9.45237 9.12988 8.53C9.70069 7.82812 10.042 6.93356 10.042 5.95875C10.042 3.70312 8.21387 1.875 5.958 1.875C3.70313 1.875 1.875 3.70312 1.875 5.95875C1.875 7.042 2.29688 8.02637 2.98513 8.75688C3.72925 9.54813 4.78612 10.0417 5.95775 10.042C4.38694 10.042 2.85131 10.6784 1.74656 11.7861C0.620312 12.9094 0 14.406 0 16.0002V19.0128C0 20.3096 0.842062 21.4131 2.00831 21.8057V27.0459C2.00831 27.5638 2.428 27.9834 2.94581 27.9834H8.97069C9.4885 27.9834 9.90819 27.5638 9.90819 27.0459V16.5125C10.7971 16.9569 11.9649 17.5406 12.9097 18.0133C13.572 18.3443 14.3459 18.3741 15.0361 18.0933C15.7244 17.8101 16.2549 17.2464 16.4914 16.5464L16.4951 16.5354Z" fill="currentColor"/>
</g>
<defs>
<clipPath id="clip0_550_8838">
<rect width="32" height="32" fill="currentColor"/>
</clipPath>
</defs>
</svg>
