<svg viewBox="0 0 26 26" fill="none" xmlns="http://www.w3.org/2000/svg">
<path d="M16.8523 1.44444V24.5556C16.8523 24.9386 16.7001 25.306 16.4293 25.5769C16.1584 25.8478 15.791 26 15.4079 26H10.5936C10.2105 26 9.84306 25.8478 9.57218 25.5769C9.30129 25.306 9.14911 24.9386 9.14911 24.5556V1.44444C9.14911 1.06135 9.30129 0.693954 9.57218 0.423068C9.84306 0.152182 10.2105 0 10.5936 0H15.4079C15.791 0 16.1584 0.152182 16.4293 0.423068C16.7001 0.693954 16.8523 1.06135 16.8523 1.44444ZM24.5556 5.77778H19.7412C19.3581 5.77778 18.9907 5.92996 18.7198 6.20085C18.449 6.47173 18.2968 6.83913 18.2968 7.22222V24.5556C18.2968 24.9386 18.449 25.306 18.7198 25.5769C18.9907 25.8478 19.3581 26 19.7412 26H24.5556C24.9386 26 25.306 25.8478 25.5769 25.5769C25.8478 25.306 26 24.9386 26 24.5556V7.22222C26 6.83913 25.8478 6.47173 25.5769 6.20085C25.306 5.92996 24.9386 5.77778 24.5556 5.77778ZM6.25878 13H1.44444C1.06135 13 0.693954 13.1522 0.423068 13.4231C0.152182 13.694 0 14.0614 0 14.4444V24.5556C0 24.9386 0.152182 25.306 0.423068 25.5769C0.693954 25.8478 1.06135 26 1.44444 26H6.25878C6.64187 26 7.00927 25.8478 7.28015 25.5769C7.55104 25.306 7.70322 24.9386 7.70322 24.5556V14.4444C7.70322 14.0614 7.55104 13.694 7.28015 13.4231C7.00927 13.1522 6.64187 13 6.25878 13Z" fill="currentColor"/>
</svg>
