<svg viewBox="0 0 32 32" fill="none" xmlns="http://www.w3.org/2000/svg">
<path fill-rule="evenodd" clip-rule="evenodd" d="M1.33594 17.3337C1.33594 9.23366 7.90261 2.66699 16.0026 2.66699C24.1026 2.66699 30.6693 9.23366 30.6693 17.3337C30.6693 21.7803 28.6893 25.7657 25.5679 28.4537C24.8533 29.067 23.9626 29.3337 23.1146 29.3337H8.89194C8.04261 29.3337 7.15195 29.067 6.43861 28.4537C4.83615 27.078 3.55038 25.3719 2.66958 23.4524C1.78879 21.5329 1.33383 19.4456 1.33594 17.3337ZM17.3359 6.66699C17.3359 6.31337 17.1955 5.97423 16.9454 5.72418C16.6954 5.47413 16.3562 5.33366 16.0026 5.33366C15.649 5.33366 15.3099 5.47413 15.0598 5.72418C14.8098 5.97423 14.6693 6.31337 14.6693 6.66699V8.00033C14.6693 8.35395 14.8098 8.69309 15.0598 8.94313C15.3099 9.19318 15.649 9.33366 16.0026 9.33366C16.3562 9.33366 16.6954 9.19318 16.9454 8.94313C17.1955 8.69309 17.3359 8.35395 17.3359 8.00033V6.66699ZM4.00261 17.3337C4.00261 16.98 4.14309 16.6409 4.39314 16.3909C4.64318 16.1408 4.98232 16.0003 5.33595 16.0003H6.66928C7.0229 16.0003 7.36204 16.1408 7.61209 16.3909C7.86214 16.6409 8.00261 16.98 8.00261 17.3337C8.00261 17.6873 7.86214 18.0264 7.61209 18.2765C7.36204 18.5265 7.0229 18.667 6.66928 18.667H5.33595C4.98232 18.667 4.64318 18.5265 4.39314 18.2765C4.14309 18.0264 4.00261 17.6873 4.00261 17.3337ZM25.3359 16.0003C24.9823 16.0003 24.6432 16.1408 24.3931 16.3909C24.1431 16.6409 24.0026 16.98 24.0026 17.3337C24.0026 17.6873 24.1431 18.0264 24.3931 18.2765C24.6432 18.5265 24.9823 18.667 25.3359 18.667H26.6693C27.0229 18.667 27.362 18.5265 27.6121 18.2765C27.8621 18.0264 28.0026 17.6873 28.0026 17.3337C28.0026 16.98 27.8621 16.6409 27.6121 16.3909C27.362 16.1408 27.0229 16.0003 26.6693 16.0003H25.3359ZM10.2786 11.6097C10.0286 11.8596 9.6895 12 9.33595 12C8.98239 12 8.64332 11.8596 8.39328 11.6097L7.45061 10.667C7.32327 10.544 7.22169 10.3969 7.15181 10.2342C7.08193 10.0715 7.04515 9.89657 7.04361 9.71953C7.04207 9.54249 7.07581 9.36692 7.14285 9.20305C7.20989 9.03919 7.3089 8.89032 7.43409 8.76513C7.55928 8.63994 7.70815 8.54094 7.87201 8.4739C8.03587 8.40686 8.21144 8.37312 8.38848 8.37466C8.56552 8.3762 8.74048 8.41298 8.90315 8.48286C9.06582 8.55274 9.21295 8.65431 9.33595 8.78166L10.2786 9.72433C10.5286 9.97436 10.669 10.3134 10.669 10.667C10.669 11.0205 10.5286 11.3596 10.2786 11.6097ZM18.6693 17.3337C18.6693 17.0937 18.6373 16.863 18.5786 16.643L22.2786 12.943C22.5215 12.6915 22.6559 12.3547 22.6528 12.0051C22.6498 11.6555 22.5096 11.3211 22.2624 11.0739C22.0152 10.8267 21.6807 10.6865 21.3311 10.6834C20.9816 10.6804 20.6447 10.8148 20.3933 11.0577L16.6933 14.7577C16.1551 14.6133 15.5852 14.6412 15.0637 14.8374C14.5422 15.0336 14.0953 15.3882 13.7856 15.8514C13.476 16.3147 13.3192 16.8633 13.3374 17.4201C13.3555 17.977 13.5476 18.5143 13.8868 18.9564C14.2259 19.3985 14.695 19.7232 15.2281 19.8851C15.7613 20.0469 16.3318 20.0376 16.8594 19.8586C17.3871 19.6796 17.8454 19.3398 18.17 18.8869C18.4946 18.434 18.6692 17.8908 18.6693 17.3337Z" fill="currentColor"/>
</svg>
