<svg viewBox="0 0 32 32" fill="none" xmlns="http://www.w3.org/2000/svg">
<path d="M31.2004 12.4051C31.2031 12.9677 31.0425 13.519 30.7383 13.9923C30.434 14.4655 29.9991 14.8405 29.4862 15.0717L26.0766 16.6147L24.172 17.4717L18.7624 19.9289C17.9004 20.3304 16.961 20.5385 16.01 20.5385C15.0591 20.5385 14.1197 20.3304 13.2577 19.9289L7.82925 17.4717L5.92461 16.6147L4.01997 15.7385V23.9667C4.15517 24.0516 4.26641 24.1697 4.34309 24.3097C4.41976 24.4497 4.45934 24.607 4.45805 24.7667V26.7286C4.45929 26.854 4.4355 26.9784 4.38808 27.0945C4.34066 27.2106 4.27056 27.3161 4.18188 27.4048C4.0932 27.4934 3.98773 27.5635 3.87163 27.611C3.75552 27.6584 3.63113 27.6822 3.50573 27.6809H2.62957C2.50413 27.6822 2.37971 27.6585 2.26357 27.6111C2.14743 27.5637 2.04192 27.4936 1.9532 27.4049C1.86449 27.3162 1.79436 27.2107 1.74692 27.0946C1.69948 26.9785 1.67569 26.854 1.67693 26.7286V24.767C1.6757 24.6073 1.71533 24.45 1.79207 24.31C1.8688 24.17 1.98008 24.0519 2.11533 23.967V15.2048C2.114 15.0942 2.13332 14.9844 2.17229 14.8809C1.72311 14.6 1.35884 14.2022 1.1185 13.7301C0.878157 13.258 0.770814 12.7294 0.807972 12.2009C0.84513 11.6725 1.02539 11.1641 1.32943 10.7302C1.63347 10.2964 2.04983 9.95348 2.53389 9.73821L13.258 4.88125C15.0059 4.08125 17.0148 4.08125 18.7627 4.88125L29.4865 9.73853C29.9994 9.96975 30.4343 10.3447 30.7386 10.8179C31.0428 11.2912 31.203 11.8425 31.2004 12.4051ZM19.5435 21.6621C18.4366 22.1765 17.2308 22.443 16.0102 22.443C14.7896 22.443 13.5838 22.1765 12.4769 21.6621L5.92461 18.7097V21.1478C5.92669 21.88 6.09591 22.6021 6.41939 23.2589C6.74286 23.9158 7.21204 24.4902 7.79117 24.9382C12.6433 28.646 19.3771 28.646 24.2292 24.9382C24.8059 24.4891 25.2721 23.9141 25.5923 23.2572C25.9125 22.6002 26.0782 21.8787 26.0766 21.1478V18.6908L24.9528 19.2051L19.5435 21.6621Z" fill="currentColor"/>
</svg>
