<svg viewBox="0 0 32 32" fill="none" xmlns="http://www.w3.org/2000/svg">
<path d="M29.2768 10.3791C29.0644 10.2916 28.8302 10.2677 28.604 10.3104C28.3777 10.3531 28.1694 10.4605 28.0053 10.619L25.9174 12.6756L19.1635 6.0488C19.0551 5.94171 18.9261 5.85671 18.7839 5.79871C18.6418 5.7407 18.4893 5.71084 18.3353 5.71084C18.1813 5.71084 18.0289 5.7407 17.8867 5.79871C17.7446 5.85671 17.6156 5.94171 17.5071 6.0488L13.6694 9.81924L3.99943 0.336016C3.89067 0.229486 3.76156 0.144982 3.61945 0.0873278C3.47735 0.029674 3.32505 0 3.17124 0C3.01743 0 2.86513 0.029674 2.72303 0.0873278C2.58092 0.144982 2.45181 0.229486 2.34305 0.336016C2.1234 0.551164 2 0.842967 2 1.14723C2 1.29789 2.0303 1.44707 2.08916 1.58626C2.14802 1.72545 2.23429 1.85192 2.34305 1.95845L12.8413 12.2415C12.9497 12.3486 13.0787 12.4336 13.2209 12.4916C13.363 12.5496 13.5155 12.5794 13.6694 12.5794C13.8234 12.5794 13.9759 12.5496 14.118 12.4916C14.2602 12.4336 14.3892 12.3486 14.4976 12.2415L18.3353 8.47102L24.2726 14.2866L22.173 16.3318C22.0111 16.4925 21.9015 16.6965 21.8579 16.9182C21.8143 17.1398 21.8387 17.3691 21.928 17.5772C22.0156 17.7859 22.1642 17.9645 22.3551 18.0905C22.5461 18.2166 22.7709 18.2845 23.0012 18.2856H28.8335C29.1429 18.2856 29.4396 18.1652 29.6583 17.9509C29.8771 17.7367 30 17.4461 30 17.143V11.4302C29.9988 11.2047 29.9296 10.9845 29.8009 10.7974C29.6722 10.6104 29.4898 10.4648 29.2768 10.3791Z" fill="currentColor"/>
<path d="M28.8323 21.7129H24.1665C23.5222 21.7129 23 22.2244 23 22.8554V30.8533C23 31.4844 23.5222 31.9959 24.1665 31.9959H28.8323C29.4766 31.9959 29.9988 31.4844 29.9988 30.8533V22.8554C29.9988 22.2244 29.4766 21.7129 28.8323 21.7129Z" fill="currentColor"/>
<path d="M18.3323 17.1426H13.6665C13.0222 17.1426 12.5 17.6541 12.5 18.2851V30.8533C12.5 31.4843 13.0222 31.9958 13.6665 31.9958H18.3323C18.9766 31.9958 19.4988 31.4843 19.4988 30.8533V18.2851C19.4988 17.6541 18.9766 17.1426 18.3323 17.1426Z" fill="currentColor"/>
<path d="M7.83625 12.5723H3.17037C2.52615 12.5723 2.00391 13.0838 2.00391 13.7148V30.8532C2.00391 31.4842 2.52615 31.9957 3.17037 31.9957H7.83625C8.48047 31.9957 9.00271 31.4842 9.00271 30.8532V13.7148C9.00271 13.0838 8.48047 12.5723 7.83625 12.5723Z" fill="currentColor"/>
</svg>
