<svg viewBox="0 0 32 32" fill="none" xmlns="http://www.w3.org/2000/svg">
<path d="M23.1779 20.564C22.9499 19.0151 22.1743 17.5991 20.9917 16.573C19.8092 15.547 18.298 14.9788 16.7324 14.9715H15.2732C13.7076 14.9788 12.1964 15.547 11.0138 16.573C9.83123 17.5991 9.05562 19.0151 8.82766 20.564L8.12825 25.4544C8.1059 25.6125 8.12067 25.7736 8.17137 25.925C8.22207 26.0764 8.30731 26.2139 8.42035 26.3266C8.69463 26.6009 10.3773 27.9997 16.0041 27.9997C21.631 27.9997 23.3095 26.6064 23.5879 26.3266C23.701 26.2139 23.7862 26.0764 23.8369 25.925C23.8876 25.7736 23.9024 25.6125 23.88 25.4544L23.1779 20.564ZM9.91243 15.7258C8.58702 16.9476 7.72465 18.59 7.47135 20.3748L6.96394 23.8856C2.8909 23.8581 1.65665 22.377 1.45094 22.0753C1.37143 21.9657 1.31468 21.8413 1.28406 21.7094C1.25344 21.5775 1.24957 21.4408 1.27266 21.3073L1.57437 19.6068C1.73156 18.7181 2.10074 17.8804 2.6506 17.1647C3.20046 16.449 3.91479 15.8764 4.73302 15.4956C5.55125 15.1147 6.44926 14.9368 7.35089 14.9769C8.25253 15.0169 9.13121 15.2738 9.91243 15.7258ZM30.7301 21.3073C30.7532 21.4408 30.7494 21.5775 30.7187 21.7094C30.6881 21.8413 30.6314 21.9657 30.5519 22.0753C30.3462 22.377 29.1119 23.8581 25.0389 23.8856L24.5315 20.3748C24.2782 18.59 23.4158 16.9476 22.0904 15.7258C22.8716 15.2738 23.7503 15.0169 24.6519 14.9769C25.5535 14.9368 26.4516 15.1147 27.2698 15.4956C28.088 15.8764 28.8023 16.449 29.3522 17.1647C29.9021 17.8804 30.2712 18.7181 30.4284 19.6068L30.7301 21.3073ZM10.1456 12.7087C9.80035 13.1983 9.34207 13.5973 8.80965 13.8719C8.27723 14.1465 7.6864 14.2885 7.08736 14.2858C6.48979 14.2858 5.90077 14.1438 5.36884 13.8715C4.83692 13.5992 4.37731 13.2044 4.0279 12.7196C3.6785 12.2348 3.44929 11.674 3.35917 11.0832C3.26905 10.4925 3.3206 9.8888 3.50957 9.32189C3.69854 8.75499 4.01952 8.2411 4.44606 7.82258C4.8726 7.40406 5.39248 7.09289 5.96287 6.91471C6.53327 6.73653 7.13783 6.69645 7.72676 6.79776C8.31568 6.89908 8.8721 7.13889 9.35016 7.49743C9.21265 8.03515 9.14354 8.58808 9.14445 9.1431C9.14549 10.4009 9.49178 11.6342 10.1456 12.7087ZM28.6868 10.5145C28.6871 11.0099 28.5898 11.5004 28.4004 11.9581C28.211 12.4159 27.9332 12.8318 27.583 13.182C27.2327 13.5323 26.8168 13.8101 26.3591 13.9995C25.9014 14.1889 25.4108 14.2862 24.9154 14.2858C24.3164 14.2885 23.7256 14.1465 23.1932 13.8719C22.6607 13.5973 22.2025 13.1983 21.8572 12.7087C22.511 11.6342 22.8573 10.4009 22.8584 9.1431C22.8593 8.58808 22.7902 8.03515 22.6526 7.49743C23.213 7.0772 23.8792 6.8213 24.5768 6.7584C25.2743 6.69551 25.9756 6.8281 26.602 7.14132C27.2285 7.45453 27.7553 7.93601 28.1235 8.53179C28.4917 9.12757 28.6868 9.81411 28.6868 10.5145Z" fill="currentColor"/>
<path d="M15.9982 14.2854C18.8384 14.2854 21.1409 11.983 21.1409 9.14272C21.1409 6.30247 18.8384 4 15.9982 4C13.1579 4 10.8555 6.30247 10.8555 9.14272C10.8555 11.983 13.1579 14.2854 15.9982 14.2854Z" fill="currentColor"/>
</svg>
